<?xml version="1.0" standalone="no"?>
<!DOCTYPE svg PUBLIC "-//W3C//DTD SVG 1.1//EN" "http://www.w3.org/Graphics/SVG/1.1/DTD/svg11.dtd" >
<svg xmlns="http://www.w3.org/2000/svg">
<metadata>Generated by IcoMoon</metadata>
<defs>
<font id="icomoon" horiz-adv-x="1024">
<font-face units-per-em="1024" ascent="960" descent="-64" />
<missing-glyph horiz-adv-x="1024" />
<glyph unicode="&#x20;" horiz-adv-x="512" d="" />
<glyph unicode="&#xe900;" glyph-name="Forecasting-Configuration" d="M759.893 459.947c-6.4 0.853-13.227 1.707-20.053 2.56 4.267 5.12 7.68 9.813 11.52 14.507 5.973 7.68 5.547 13.227-1.28 19.627-10.24 10.24-20.907 20.907-31.147 31.147-6.827 6.827-12.373 7.253-20.053 1.28-4.693-3.413-9.387-7.253-14.080-10.667h-0.853c-0.853 6.827-1.707 13.227-2.56 19.627-0.853 6.827-5.547 11.093-12.8 11.093-16.213 0-32 0-48.213 0-6.827 0-11.52-4.267-12.8-11.52-0.853-6.4-1.707-13.227-2.56-20.053l-16.213 12.8c-5.547 3.84-11.52 3.84-16.213-0.853-11.947-11.52-23.467-23.040-34.987-34.987-4.267-4.693-4.693-10.667-0.853-16.213 3.413-4.693 7.253-9.387 10.667-14.080l1.707-2.56c-6.827-0.853-13.653-1.707-20.053-2.56-6.827-0.853-11.093-5.547-11.093-12.8 0-16.213 0-32 0-48.213 0-6.827 4.267-11.52 11.52-12.8 6.4-0.853 13.227-1.707 20.053-2.56-4.267-5.12-7.68-9.813-11.52-14.507-5.973-7.68-5.547-13.227 1.28-19.627 10.24-10.24 20.907-20.907 31.147-31.147 6.827-6.827 12.373-7.253 20.053-1.28 4.693 3.413 9.387 7.253 14.507 11.52 0.853-7.253 1.707-13.653 2.56-20.053 0.853-7.68 5.547-11.52 13.227-11.52 15.787 0 31.147 0 46.933 0 8.107 0 12.373 3.84 13.653 11.947 0.853 6.4 1.707 12.8 2.56 19.627l16.213-12.8c5.547-3.84 11.52-3.84 16.213 0.853 11.947 11.52 23.467 23.040 34.987 34.987 4.693 4.693 4.693 10.667 0.853 16.213-3.413 4.693-7.253 9.387-10.667 14.080l-1.707 2.56c6.827 0.853 13.227 1.707 19.627 2.56 7.68 0.853 11.52 5.547 11.52 13.227 0 15.787 0 31.573 0 47.36 0 7.253-4.267 11.947-11.52 13.227zM746.24 409.6c-5.12-0.853-10.667-1.28-15.787-1.707-6.4-0.427-10.667-3.413-12.8-9.813l-3.84-8.533c-2.987-5.547-2.133-10.667 1.707-15.36 3.413-4.267 6.827-8.533 9.813-12.373-6.4-6.4-12.8-12.8-19.2-19.2-3.84 2.987-8.533 6.4-12.8 9.813-4.693 3.84-9.813 4.267-15.36 1.707l-8.96-3.84c-5.973-2.133-8.533-6.4-9.387-12.373-0.427-5.547-1.28-10.667-2.133-16.213h-27.307c-0.853 5.12-1.28 10.667-2.133 15.787-0.427 6.4-3.413 11.093-9.813 13.227l-8.96 3.84c-5.12 2.56-9.813 1.707-14.080-1.707-4.693-3.413-9.387-7.253-13.653-10.667-6.4 6.4-12.8 12.8-19.2 19.2 3.413 4.267 7.253 8.96 10.667 13.653 3.413 4.267 3.84 8.96 1.707 13.653l-3.84 9.387c-2.133 6.4-6.827 9.387-13.227 9.813-5.12 0.427-10.24 1.28-15.787 2.133v27.307c5.12 0.853 10.24 1.707 15.787 2.133 6.4 0.427 11.093 3.413 13.227 9.813l3.413 8.107c2.987 5.973 2.133 11.093-1.707 15.787-3.413 4.267-6.827 8.533-9.813 12.8 6.4 6.4 12.8 12.8 19.2 19.2 4.267-3.413 8.96-6.827 13.227-10.24 4.693-3.84 9.387-4.267 14.933-1.707l8.96 3.84c5.973 2.133 8.96 6.4 9.387 12.373 0.427 5.12 1.28 10.667 2.133 16.213h27.307c0.853-5.12 1.707-10.24 2.133-15.787 0.427-6.827 3.84-11.093 10.24-13.227l8.96-3.84c5.12-2.56 9.387-1.707 13.653 1.707 4.693 3.413 9.387 7.253 13.653 10.667 6.4-6.4 12.8-12.8 19.2-19.2-3.413-4.267-6.827-8.96-10.24-13.653-3.413-4.267-4.267-8.96-1.707-14.080l4.267-9.813c2.133-5.547 5.973-8.533 11.947-8.96 5.547-0.853 10.667-1.28 16.64-2.133v-27.307zM644.693 476.587c-29.44 0-53.333-23.467-53.333-52.907s23.467-53.333 52.48-53.333c29.44 0 53.333 23.467 53.333 52.907s-23.467 53.333-52.907 53.333zM644.693 394.667c-15.36 0-28.587 12.8-28.587 28.587 0 15.36 12.8 28.587 28.587 28.587 15.36 0 28.587-12.8 28.587-28.587 0-15.36-12.8-28.587-28.587-28.587zM512 829.44c-210.347 0-381.44-171.093-381.44-381.44s171.093-381.44 381.44-381.44 381.44 171.093 381.44 381.44-171.093 381.44-381.44 381.44zM253.013 217.6c-46.507 52.48-78.080 118.613-85.76 192.427 12.8 0.427 49.92 0 85.76-0.427v-191.573zM361.813 135.68c-32.427 15.787-61.867 35.84-87.467 60.16v0.853s0 160.853 0 160.853h87.467v-222.293zM470.613 103.68c-30.293 3.84-59.733 11.52-87.467 22.187v143.787h87.467v-165.973zM512.427 101.12c-6.827 0-13.653 0.853-20.48 0.853v178.347c0 5.973-4.693 10.667-10.667 10.667h-98.133v77.227c0 5.973-4.693 10.667-10.667 10.667h-98.133v40.533c0 5.973-4.693 10.667-10.24 10.667-61.44 1.28-87.040 1.28-98.133 0.427 0 5.547-0.853 11.093-0.853 17.067 0 18.347 1.707 36.267 4.693 54.187l101.973 101.973 99.413-99.413c9.387-9.387 15.787-9.387 25.173 0l142.080 142.080v-28.16h27.307v59.733c0 10.667-5.12 15.787-15.787 15.787-16.64 0-32.853 0-49.493 0h-4.693s-5.547-0.853-5.547-0.853v-27.307h25.6l-133.12-133.12-98.56 98.56c-8.96 8.96-15.787 8.96-24.747 0l-77.227-77.227c44.8 139.947 176.213 241.493 330.667 241.493 191.573 0 347.307-155.733 347.307-347.307s-155.733-347.307-347.307-347.307z" />
<glyph unicode="&#xe901;" glyph-name="SecurityUsers" d="M512 960l-448-139.52v-375.467c0-0.206 0-0.45 0-0.695 0-221.593 140.773-410.308 337.768-481.591l3.566-1.127h5.973c10.24-3.84 21.333-6.827 32-9.813l15.787-4.267c13.396-3.368 30.344-6.51 47.585-8.716l2.335-0.244h5.12c19.576 2.45 36.524 5.592 53.128 9.617l-3.208-0.657 15.787 4.267c10.667 2.987 21.76 5.973 32 9.813h5.973c200.561 72.411 341.334 261.125 341.334 482.718 0 0.244 0 0.489-0.001 0.733v-0.038 375.467zM917.333 753.067v-308.053c-0.464-205.037-131.622-379.321-314.564-443.995l-3.303-1.018-27.307-8.107-15.787-4.267c-14.507-3.413-29.44-6.4-42.667-8.533s-29.867 5.12-42.667 8.533l-15.787 4.267-28.587 8.107c-60.529 21.237-112.638 52.457-157.036 92.128l0.449-0.394-36.267 38.4-7.68 9.387-5.12 5.547c-68.692 80.842-110.585 186.322-110.933 301.578v342.688l405.333 128 346.027-110.933 55.893-17.067zM737.28 533.333c17.654 20.966 28.381 48.271 28.381 78.082 0 67.158-54.442 121.6-121.6 121.6-0.228 0-0.455-0.001-0.683-0.002h0.035c-23.802-0.013-46.046-6.676-64.976-18.232l0.55 0.312c-26.914 50.068-78.928 83.532-138.758 83.532-86.716 0-157.013-70.297-157.013-157.013 0-40.173 15.087-76.822 39.904-104.591l-0.134 0.152c-75.232-56.045-125.030-142.617-130.943-241.021l-0.043-0.899c-0.277-2.051-0.435-4.421-0.435-6.828 0-29.691 24.069-53.76 53.76-53.76 0.153 0 0.306 0.001 0.459 0.002h386.964c29.65 0.053 53.666 24.102 53.666 53.76 0 2.105-0.121 4.181-0.356 6.222l0.023-0.249c0 2.56 0 5.12 0 8.107h101.547c0.026 0 0.057 0 0.088 0 13.104 0 24.906 5.573 33.166 14.478l0.026 0.029c7.486 8.568 12.051 19.855 12.051 32.209 0 1.127-0.038 2.246-0.113 3.355l0.008-0.15c-4.666 73.697-40.818 138.11-95.026 180.495l-0.547 0.412zM597.333 642.133c0.005 0.419 0.007 0.915 0.007 1.411 0 9.93-1.091 19.605-3.159 28.912l0.165-0.883c13.317 10.893 30.514 17.494 49.252 17.494 0.085 0 0.169 0 0.254 0h-0.013c1.745 0.136 3.779 0.213 5.831 0.213 44.065 0 79.787-35.722 79.787-79.787s-35.722-79.787-79.787-79.787c-2.052 0-4.086 0.077-6.099 0.23l0.268-0.016c-0.114-0.001-0.25-0.001-0.385-0.001-27.677 0-52.009 14.322-65.989 35.959l-0.187 0.308c12.464 21.87 19.88 48.024 20.053 75.895v0.051zM439.467 757.333c63.623 0 115.2-51.577 115.2-115.2s-51.577-115.2-115.2-115.2c-63.623 0-115.2 51.577-115.2 115.2v0c0 0 0 0.001 0 0.001 0 63.473 51.334 114.957 114.75 115.199h0.023zM640 280.32c-2.15-1.959-4.965-3.22-8.069-3.411l-0.037-0.002h-386.133c-3.142 0.193-5.957 1.455-8.117 3.423l0.011-0.009c-1.887 2.216-3.035 5.112-3.035 8.276 0 0.391 0.018 0.778 0.052 1.16l-0.004-0.049c4.428 90.881 52.097 169.758 122.729 216.968l1.005 0.632c22.979-14.438 50.916-23.003 80.853-23.003s57.875 8.565 81.495 23.378l-0.642-0.375c71.636-47.842 119.305-126.719 123.708-216.96l0.025-0.64c0.001-0.072 0.002-0.158 0.002-0.243 0-3.581-1.47-6.818-3.84-9.141l-0.002-0.002zM810.667 350.293l-23.893-5.547h-109.227c-12.8 58.648-39.562 109.715-76.664 151.372l0.29-0.332c12.612-5.261 27.254-8.382 42.607-8.533h0.059c22.016 0.068 42.614 6.082 60.29 16.517l-0.557-0.304c49.6-35.041 82.367-91.060 85.317-154.864l0.016-0.442z" />
<glyph unicode="&#xe902;" glyph-name="FinishedProduct" d="M786.773 612.693c-1.537 2.434-3.539 4.436-5.896 5.928l-0.077 0.046-258.133 146.347c-3.060 1.797-6.739 2.858-10.667 2.858s-7.607-1.061-10.767-2.913l0.101 0.055-258.133-146.347c-2.403-1.423-4.398-3.282-5.933-5.485l-0.040-0.061c-1.876-2.914-2.99-6.472-2.99-10.29 0-0.132 0.001-0.264 0.004-0.396v0.020-306.347c0.074-8.023 4.478-15.002 10.986-18.717l0.107-0.056 258.133-144.213c2.93-1.612 6.421-2.56 10.133-2.56 0.038 0 0.075 0 0.113 0h-0.006c0.184-0.007 0.4-0.010 0.617-0.010 3.739 0 7.217 1.119 10.117 3.039l-0.068-0.042 258.133 151.893c6.405 3.546 10.67 10.264 10.67 17.978 0 0.13-0.001 0.259-0.004 0.388v-0.019 298.667c0.002 0.112 0.004 0.244 0.004 0.377 0 3.818-1.115 7.376-3.036 10.366l0.046-0.076zM490.667 186.027l-213.333 120.32v256l215.467-122.453zM512 477.867l-213.333 122.027 213.333 122.027 213.333-122.027zM748.8 314.027l-215.467-128v256l215.467 121.173zM512 960c-282.77 0-512-229.23-512-512s229.23-512 512-512c282.77 0 512 229.23 512 512v0c0 282.77-229.23 512-512 512v0zM512-21.333c-259.206 0-469.333 210.128-469.333 469.333s210.128 469.333 469.333 469.333c259.206 0 469.333-210.128 469.333-469.333v0c0-259.206-210.128-469.333-469.333-469.333v0z" />
<glyph unicode="&#xe903;" glyph-name="Product-Demand-Forecasting" d="M914.773 64v566.187c0 9.387-2.56 17.92-6.827 25.6l-120.747 205.653c-8.107 17.493-22.613 31.147-41.387 37.547h-451.413c-17.92-6.4-32.853-20.053-40.96-37.547-37.973-67.413-77.653-136.107-116.907-202.667-5.547-9.387-8.96-20.48-8.96-32v-1.28s0-560.64 0-560.64v-5.547c0-34.56 27.733-62.72 62.293-62.72h5.12s651.947 0 651.947 0h5.547c34.56 0 62.72 27.733 62.72 62.293v4.693zM549.12 846.080h177.92c5.12 0 11.093 0 11.093-5.12l91.307-161.28 2.987-6.4-283.307 2.133v170.667zM211.627 682.667c31.573 52.48 60.587 105.387 90.88 155.307v0s8.96 5.973 8.96 5.973h183.040l2.56-167.253h-285.44v2.987s0 2.987 0 2.987zM242.773 50.347v67.84h108.373v-67.84h-108.373zM384.853 50.347v189.867h108.373v-189.867h-108.373zM527.36 50.347v108.373h108.373v-108.373h-108.373zM669.44 50.347v230.4h108.8v-230.4h-108.8zM859.733 621.653v-554.24c0-17.92-1.707-17.92-17.92-17.92h-30.293v245.333c0 12.8-6.4 18.773-19.2 18.773h-136.533c-13.653 0-19.627-5.973-19.627-19.627v-73.813s0-27.733 0-27.733h-109.227s0 13.227 0 13.227v47.787c0 13.227-5.973 19.627-19.2 19.627h-137.387c-12.8 0-18.773-6.4-18.773-19.2v-102.827h-123.307c-12.8 0-18.773-6.4-18.773-19.2v-82.773h-11.093c-17.92 0-17.92 1.707-17.92 18.347v242.347l150.613 150.613 145.067-145.067c13.653-13.653 23.467-13.653 37.12 0l207.787 207.787v-41.387h40.107v87.040c0 15.36-7.68 23.040-23.040 23.040-24.32 0-48.213 0-72.533 0h-6.827s-8.107-0.853-8.107-0.853v-40.107h37.12l-194.987-194.987-144.213 144.213c-13.227 13.227-23.040 13.227-36.267 0l-132.267-132.267v254.293h679.253z" />
<glyph unicode="&#xe904;" glyph-name="TankMonitor" d="M922.027 378.453v49.067h-42.667v102.4h42.667v102.4h-42.667v225.28h42.667v102.4h-901.12v-102.4h42.667v-225.28h-42.667v-102.4h42.667v-102.4h-42.667v-102.4h42.667v-286.72h-42.667v-102.4h901.12v69.547c49.661 46.802 80.583 113.017 80.583 186.453s-30.922 139.651-80.455 186.334l-0.128 0.12zM102.827-21.333v938.667h737.28v-487.253c-27.538 11.335-59.507 17.917-93.012 17.92h-0.001c-140.167-1.593-253.181-115.591-253.181-255.984 0-88.678 45.089-166.825 113.592-212.766l0.923-0.583zM747.093-21.333c-117.821 0-213.333 95.513-213.333 213.333s95.513 213.333 213.333 213.333c117.821 0 213.333-95.513 213.333-213.333v0c0-117.821-95.513-213.333-213.333-213.333v0zM645.547 555.093c0 77.227-122.027 229.547-136.107 246.613l-13.653 16.64-13.653-16.64c-14.080-17.067-136.533-170.667-136.533-246.613 8.35-75.779 72.019-134.199 149.333-134.199s140.983 58.42 149.273 133.525l0.060 0.675zM381.013 555.093c0 49.067 73.387 153.6 114.773 206.933 42.667-53.333 114.347-157.867 114.347-206.933-3.794-60.305-53.633-107.779-114.56-107.779s-110.765 47.473-114.543 107.447l-0.017 0.331zM830.293 231.68c0.001 0.127 0.001 0.277 0.001 0.427 0 63.152-51.195 114.347-114.347 114.347s-114.347-51.195-114.347-114.347c0-63.152 51.194-114.346 114.346-114.347v0c23.822 0.093 45.956 7.246 64.438 19.473l-0.438-0.273 80.64-80.213 30.293 29.867-80.213 80.64c12.292 18.046 19.627 40.325 19.627 64.318 0 0.038 0 0.076 0 0.115v-0.006zM715.947 160.427c-39.587 0.001-71.679 32.093-71.679 71.68s32.092 71.68 71.68 71.68c39.588 0 71.68-32.092 71.68-71.68 0-0.15 0-0.3-0.001-0.45v0.023c-0.242-39.404-32.241-71.253-71.679-71.253 0 0-0.001 0-0.001 0v0z" />
<glyph unicode="&#xe905;" glyph-name="Supplier" d="M898.133 317.867c-14.080 0-30.293 0-48.213-3.413-58.517-11.032-128.728-19.403-200.134-23.283l-4.239-0.184c-4.592-0.538-9.913-0.845-15.304-0.845-29.353 0-56.582 9.092-79.025 24.614l0.463-0.303c-48.213 48.213-148.907 193.707-313.173 193.707-130.674-2.577-235.929-107.833-238.503-238.263l-0.004-0.244v-333.653h439.893v229.12c45.198-23.933 97.654-43.989 152.691-57.47l4.749-0.983c8.572-1.927 18.417-3.031 28.52-3.031 1.224 0 2.444 0.016 3.659 0.048l-0.179-0.004c103.245 7.425 198.902 23.641 291.202 48.106l-10.882-2.453c41.030 6.687 71.968 41.87 71.968 84.28 0 9.847-1.668 19.304-4.737 28.105l0.182-0.599c-6.929 32.92-35.729 57.278-70.218 57.278-3.072 0-6.098-0.193-9.068-0.568l0.353 0.036zM933.973 215.467c-7.682-12.178-19.896-20.9-34.219-23.835l-0.341-0.058c-78.326-21.806-170.633-38.28-265.386-46.136l-5.547-0.37c-3.263-0.359-7.048-0.563-10.88-0.563s-7.617 0.205-11.343 0.603l0.463-0.040c-53.814 13.517-100.824 31.49-144.974 54.235l3.747-1.755c-7.042 5.327-15.947 8.533-25.6 8.533v0c-7.018-0.141-13.604-1.859-19.459-4.812l0.259 0.119c-13.992-7.163-23.415-21.462-23.467-37.966v-184.754h-354.56v290.987c2.334 107.208 88.632 193.506 195.62 195.836l0.22 0.004c120.32 0 205.227-95.147 256-151.893 10.24-11.52 19.2-21.76 27.307-29.44 28.458-22.985 65.074-36.897 104.939-36.897 6.622 0 13.154 0.384 19.575 1.13l-0.782-0.074c60.826 1.907 118.736 8.192 175.21 18.578l-7.103-1.085 42.667 5.973c12.466 1.804 27.221 3.032 42.188 3.404l0.478 0.009c25.173 0 30.72-3.84 38.4-26.453 1.214-3.778 1.914-8.125 1.914-12.635 0-7.577-1.975-14.692-5.438-20.859l0.111 0.215zM242.347 559.36c110.28 0 199.68 89.4 199.68 199.68s-89.4 199.68-199.68 199.68c-110.28 0-199.68-89.4-199.68-199.68 0-0.15 0-0.3 0-0.45v0.023c0 0 0 0 0 0 0-110.045 89.209-199.253 199.253-199.253 0.15 0 0.3 0 0.45 0h-0.023zM242.347 917.333c86.712-0.005 157.004-70.301 157.004-157.013 0-86.716-70.297-157.013-157.013-157.013-86.116 0-156.040 69.328-157.003 155.215l-0.001 0.091c-0.006 0.507-0.009 1.107-0.009 1.707 0 86.716 70.297 157.013 157.013 157.013 0.003 0 0.007 0 0.010 0h-0.001zM526.080 874.667v-496.213h497.92v496.213zM981.333 421.12h-412.587v410.88h412.587zM891.733 642.56l-111.787 111.787-29.867-30.293 75.093-75.093h-173.227v-42.667h173.227l-75.093-75.52 29.867-30.293 111.787 111.787c3.898 3.867 6.31 9.225 6.31 15.147s-2.413 11.28-6.309 15.145l-0.001 0.001z" />
<glyph unicode="&#xe906;" glyph-name="OriginTerminal" d="M535.467 799.573v-206.933c116.218-13.087 205.72-110.82 205.72-229.457 0-54.425-18.836-104.45-50.344-143.913l0.357 0.463 146.347-147.627c19.627 20.053 39.68 40.107 59.307 60.587 4.607 6.568 12.145 10.809 20.672 10.809 2.989 0 5.857-0.521 8.516-1.477l-0.176 0.055c11.52-4.693 14.080-14.933 14.080-26.88v-151.893c0-20.053-7.253-27.307-26.453-27.307h-153.173c-1.131-0.183-2.435-0.288-3.764-0.288-9.736 0-18.158 5.622-22.198 13.796l-0.065 0.145c-1.126 2.702-1.78 5.841-1.78 9.132 0 8.183 4.042 15.423 10.238 19.831l0.075 0.051 60.16 58.88-148.48 147.2c-37.94-31.088-86.957-49.93-140.376-49.93-0.749 0-1.498 0.004-2.245 0.011l0.114-0.001c-0.434-0.003-0.947-0.005-1.46-0.005-54.185 0-103.894 19.166-142.716 51.089l0.39-0.311-148.053-147.2c20.907-20.48 42.667-42.667 63.147-62.293 5.135-4.1 8.396-10.359 8.396-17.38 0-10.232-6.927-18.847-16.348-21.41l-0.156-0.036c-1.732-0.311-3.725-0.49-5.76-0.49s-4.028 0.178-5.965 0.519l0.205-0.030h-153.173c-18.773 0-26.453 7.253-26.453 26.027v153.173c-0.155 1.031-0.243 2.22-0.243 3.43 0 9.809 5.808 18.262 14.172 22.108l0.151 0.062c2.473 0.91 5.33 1.437 8.309 1.437 8.1 0 15.29-3.891 19.805-9.906l0.046-0.064 60.16-61.44 146.773 148.053c-31.474 39.012-50.522 89.193-50.522 143.823 0 118.355 89.407 215.828 204.367 228.564l1.035 0.093v206.933h-85.333c-0.866-0.111-1.867-0.175-2.884-0.175-9.708 0-18.063 5.789-21.802 14.104l-0.061 0.151c-1.304 2.829-2.065 6.138-2.065 9.625 0 7.041 3.101 13.357 8.011 17.659l0.027 0.023 2.56 2.56 103.68 104.533c4.767 6.758 12.541 11.118 21.333 11.118s16.567-4.36 21.278-11.036l0.055-0.082 107.093-105.387c6.416-4.533 10.555-11.92 10.555-20.273 0-3.141-0.585-6.145-1.652-8.909l0.057 0.169c-4.255-8.58-12.955-14.375-23.008-14.375-1.367 0-2.709 0.107-4.017 0.313l0.145-0.019h-85.333zM367.787 250.453l118.187 119.893c1.923 3.141 3.062 6.944 3.062 11.012 0 0.629-0.027 1.253-0.081 1.868l0.006-0.080c0 49.067 0 97.707 0 146.347v14.933c-62.361-6.948-114.449-45.151-140.761-98.371l-0.466-1.043c-11.954-23.72-18.954-51.699-18.954-81.313 0-42.895 14.687-82.36 39.306-113.641l-0.299 0.394zM535.893 546.133c-0.066-1.084-0.104-2.351-0.104-3.627s0.038-2.543 0.112-3.8l-0.008 0.173c0-52.907 0-105.813 0-159.147 0.729-5.256 3.206-9.832 6.815-13.215l0.012-0.011 106.24-106.24 8.96-8.107c24.023 30.218 38.543 68.93 38.543 111.033 0 28.533-6.668 55.508-18.532 79.452l0.469-1.045c-26.194 56.304-78.886 96.392-141.603 104.439l-0.904 0.095zM621.227 218.453l-109.227 111.36-113.067-109.227c30.563-24.696 69.893-39.645 112.715-39.645 41.609 0 79.922 14.114 110.411 37.816l-0.406-0.304zM512 901.12l-54.187-55.040h109.653zM208.64-17.493l-77.653 78.933v-78.933zM891.307-17.493v75.947l-76.373-75.947z" />
<glyph unicode="&#xe907;" glyph-name="Breadcrumb" d="M420.261 666.547l-35.349-35.349 182.917-183.478-182.917-182.917 35.349-35.349 218.827 218.266-218.827 218.827z" />
<glyph unicode="&#xe908;" glyph-name="Master" d="M62.843 774.838h897.753v-42.082h-897.753v42.082zM308.042 469.041h653.116v-42.082h-653.116v42.082zM308.042 163.244h653.116v-42.082h-653.116v42.082zM62.843 469.041h81.92v-42.082h-81.92v42.082zM62.843 163.244h81.92v-42.082h-81.92v42.082z" />
<glyph unicode="&#xe909;" glyph-name="RailRouteConfig" d="M770.133-64h42.667v9.387c-12.561-2.307-27.27-3.842-42.259-4.258l-0.408-0.009zM913.493 291.84l-52.907 54.613-38.827-20.907-17.92 46.933h-71.68l-14.080-42.667h-4.267l-42.667 20.907-49.92-50.773 19.627-42.667-2.987-6.827-40.533-15.787v-69.547l42.667-17.067 2.987-7.253-18.773-42.667 48.64-49.493 42.667 20.907h5.12l15.36-42.667 72.533 2.987 13.227 42.667 42.667-19.627 50.347 53.76-20.48 42.667 42.667 16.213v69.12l-42.667 14.933zM893.013 192l-33.707-12.8-12.373-34.56 15.36-32.427-8.96-9.813-31.573 14.933-37.12-16.64-10.24-33.28h-10.667l-11.52 32.427-40.533 16.64-31.573-15.787-6.827 5.973 14.507 32-16.213 42.667-31.573 10.667v10.667l33.28 11.52 16.64 42.667-14.507 32 7.253 7.68 31.573-15.787 40.533 17.067 10.667 32h11.093l13.227-34.987 35.413-16.64 29.44 15.787 9.813-9.813-15.787-32.427 15.36-35.84 31.147-11.093zM1024 212.48c0.101 1.341 0.159 2.904 0.159 4.48s-0.058 3.139-0.171 4.687l0.012-0.207c-0.983 11.922-2.796 22.836-5.42 33.431l0.3-1.431-3.84 15.787c-3.063 10.129-6.108 18.337-9.568 26.323l0.608-1.577c-2.56 6.827-5.547 12.8-8.533 19.2l-9.813 17.067c-13.885 22.631-30.294 42.026-49.209 58.635l-0.285 0.245c-45.181 40.287-105.011 64.997-170.608 65.28h-0.058c-15.254-0.242-29.994-1.629-44.372-4.080l1.705 0.24h-9.387c-12.996-2.944-23.839-6.172-34.388-10.011l1.961 0.624c-11.47-4.147-20.762-8.175-29.775-12.677l1.615 0.73-11.093-5.973c-34.388-19.323-62.926-45.135-84.798-76.003l-0.536-0.797v-2.56h-302.507v213.333h516.267v-101.973c15.208-0.188 29.933-1.733 44.213-4.518l-1.546 0.251v104.107h123.733v42.667h-125.867v213.333h125.867v42.667h-125.867v106.24h-42.667v-104.96h-514.133v104.96h-42.667v-104.96h-128v-42.667h128v-213.333h-128v-42.667h128v-213.333h-128v-42.667h128v-213.333h-128v-42.667h128v-108.373h42.667v104.96h310.613s0-2.987 2.987-4.267l3.413-4.267c47.259-55.584 117.242-90.616 195.407-90.616 141.385 0 256 114.615 256 256 0 5.16-0.153 10.285-0.454 15.37l0.033-0.701zM256 812.373h516.267v-213.333h-516.267zM256 83.627v213.333h278.187c-2.987-6.827-5.547-13.653-8.107-20.48-2.989-8.727-5.938-19.753-8.223-31.020l-0.31-1.833c-2.987-14.451-4.696-31.059-4.696-48.066 0-41.332 10.098-80.305 27.962-114.588l-0.652 1.374zM918.613 46.507c-38.625-38.72-92.035-62.675-151.040-62.675s-112.415 23.955-151.036 62.67l-0.004 0.004c-38.72 38.625-62.675 92.035-62.675 151.040s23.955 112.415 62.67 151.036l0.004 0.004c38.625 38.72 92.035 62.675 151.040 62.675s112.415-23.955 151.036-62.67l0.004-0.004c6.229-6.417 11.976-13.384 17.136-20.791l0.358-0.542c27.187-35.433 43.567-80.399 43.567-129.191 0-59.262-24.164-112.881-63.177-151.54l-0.016-0.016zM768 274.773c-0.381 0.007-0.83 0.011-1.28 0.011-42.18 0-76.373-34.194-76.373-76.373s34.194-76.373 76.373-76.373c42.176 0 76.367 34.187 76.373 76.362v0.001c0.001 0.128 0.001 0.28 0.001 0.431 0 41.645-33.518 75.46-75.049 75.941h-0.046zM768 164.693c-0.254-0.007-0.553-0.011-0.853-0.011-18.616 0-33.707 15.091-33.707 33.707s15.091 33.707 33.707 33.707c18.612 0 33.7-15.085 33.707-33.695v-0.001c0.007-0.254 0.011-0.553 0.011-0.853 0-18.144-14.709-32.853-32.853-32.853-0.004 0-0.008 0-0.012 0h0.001z" />
<glyph unicode="&#xe90a;" glyph-name="CarrierCompany" d="M1024 26.453v291.413l-94.72 47.36-85.333-58.027v268.8l-137.813 42.667-85.333-85.333v293.973l-163.84 83.2-165.973-85.333-2.133-343.893-50.347 27.307-148.053-85.333v-110.933l-38.827 13.653-51.627-48.64v-291.84h1024v42.667zM981.333 26.453h-36.267v284.587l36.267-18.347zM915.2 307.2v-280.747h-73.813v231.68zM800.427 26.453h-75.093v543.147l73.387-24.32zM696.32 552.107v-525.653h-73.387v452.267zM581.973 26.453h-110.507v830.72l110.507-55.040zM440.747 856.32v-829.867h-113.92l5.12 775.68zM285.44 26.453h-29.44v426.667l30.72-16.64zM224 453.12v-426.667h-92.587v375.893zM62.293 281.6l28.16-9.813v-245.333h-47.787v233.813z" />
<glyph unicode="&#xe90b;" glyph-name="Driver" d="M560.213-11.52h-379.307l-130.987 622.080c-0.466 2.669-0.732 5.742-0.732 8.877 0 12.828 4.457 24.614 11.908 33.895l-0.082-0.106c15.11 18.759 37.25 31.327 62.359 33.679l0.361 0.027c1.686 0.106 3.657 0.167 5.641 0.167 43.108 0 79.551-28.54 91.462-67.756l0.177-0.677c7.68-25.6 80.213-387.84 96.853-471.467h236.8c2.057 0.191 4.448 0.301 6.864 0.301 43.358 0 78.507-35.149 78.507-78.507 0-0.856-0.014-1.709-0.041-2.558l0.003 0.124c0.454-2.976 0.713-6.409 0.713-9.903 0-38.174-30.946-69.12-69.12-69.12-4.019 0-7.959 0.343-11.79 1.002l0.41-0.058zM213.333 29.44h346.027c32 0 37.12 9.387 37.12 37.12 0.171 1.361 0.269 2.937 0.269 4.535 0 21.208-17.192 38.4-38.4 38.4-1.598 0-3.174-0.098-4.721-0.287l0.186 0.019h-269.227l-3.413 16.64c-25.173 125.867-93.013 460.8-99.413 483.413-7.033 21.524-26.93 36.8-50.395 36.8-1.184 0-2.358-0.039-3.523-0.115l0.158 0.008c-13.83-1.083-25.905-7.8-34.063-17.831l-0.070-0.089c-2.001-2.611-3.371-5.806-3.829-9.287l-0.011-0.099zM898.133-64c-32.054 0.507-61.16 12.718-83.324 32.535l0.124-0.109c-18.347 17.92-161.707 168.107-193.707 201.387h-294.827l-90.88 430.507c-16.64 67.413 42.667 88.747 68.267 99.413 8.439 2.743 18.149 4.325 28.229 4.325 21.567 0 41.443-7.241 57.329-19.423l-0.225 0.166 135.253-82.347c25.6 4.693 106.24 19.2 137.387 22.613 3.433 0.532 7.393 0.836 11.424 0.836 33.865 0 62.722-21.442 73.735-51.491l0.175-0.545c9.813-39.253 4.267-85.333-42.667-100.267s-202.24-42.667-209.067-42.667h-7.68l-10.667 5.973 21.76-75.52h179.627l5.973-6.4c2.56-2.56 251.307-258.987 267.093-274.773 14.571-16.46 23.469-38.236 23.469-62.089 0-0.222-0.001-0.443-0.002-0.665v0.034c0.007-0.394 0.011-0.858 0.011-1.324 0-22.142-8.972-42.189-23.478-56.703v0c-13.339-14.344-32.274-23.33-53.308-23.467h-0.025zM359.68 210.773h280.32l5.973-6.4 198.827-206.933c15.36-14.933 59.733-30.72 78.933-11.947 7.128 7.172 11.534 17.056 11.534 27.969 0 0.367-0.005 0.733-0.015 1.098l0.001-0.054c0.002 0.177 0.003 0.386 0.003 0.595 0 12.56-4.342 24.106-11.606 33.219l0.083-0.108c-16.213 15.787-223.573 229.12-262.4 269.227h-192l-60.587 203.093 85.333-49.493c32.853 5.973 164.267 31.573 197.973 42.667 22.187 6.827 17.067 37.973 13.653 51.2-6.666 12.725-19.779 21.259-34.886 21.259-2.754 0-5.442-0.284-8.035-0.823l0.255 0.044c-34.987-3.84-141.227-23.467-142.080-23.893h-7.68l-148.907 89.6c-9.359 7.19-21.24 11.522-34.133 11.522-4.233 0-8.356-0.467-12.322-1.352l0.375 0.070c-40.107-14.933-49.493-26.027-42.667-51.627v0zM678.024 406.617l235.075 275.043 31.137-26.612-235.075-275.043-31.137 26.612zM273.067 683.947c-76.348 0-138.239 61.892-138.239 138.24s61.892 138.24 138.24 138.24c76.348 0 138.24-61.892 138.24-138.24 0-0.15 0-0.3-0.001-0.45v0.023c0 0 0 0 0-0.001 0-76.112-61.701-137.813-137.813-137.813-0.15 0-0.3 0-0.45 0.001h0.023zM273.067 917.333c-53.72-0.009-97.265-43.559-97.265-97.28 0-53.726 43.554-97.28 97.28-97.28s97.28 43.554 97.28 97.28c0 0.6-0.005 1.199-0.016 1.796l0.001-0.090c-0.959 52.987-44.139 95.573-97.265 95.573-0.005 0-0.011 0-0.016 0h0.001z" />
<glyph unicode="&#xe90c;" glyph-name="PrimeMover" d="M816.64 295.68l-162.987 203.52v449.707h-427.52l-226.133-452.267v-244.907h231.253v-113.067h43.52v157.013h-231.253v190.72l209.493 418.987h357.12v-421.547l185.6-232.107h228.267v43.947h-207.36zM523.093 818.347h-209.92l-152.32-305.067h362.24zM480.427 556.8h-249.173l110.080 218.027h139.093zM544.853 339.2c-0.127 0-0.277 0-0.427 0-108.395 0-196.267-87.872-196.267-196.267s87.872-196.267 196.267-196.267c108.395 0 196.266 87.871 196.267 196.266v0c0 0 0 0 0 0 0 108.245-87.629 196.024-195.817 196.266h-0.023zM544.853-9.387c-0.127 0-0.276-0.001-0.426-0.001-84.36 0-152.747 68.387-152.747 152.747s68.387 152.747 152.747 152.747c84.36 0 152.747-68.387 152.747-152.747 0-0.15 0-0.3-0.001-0.449v0.023c-0.242-84.027-68.293-152.078-152.297-152.32h-0.023zM805.973 143.787h218.027v-43.52h-218.027v43.52z" />
<glyph unicode="&#xe90d;" glyph-name="Vessel" d="M843.52 60.16l-24.32-24.747c-5.948-5.959-14.17-9.645-23.253-9.645s-17.306 3.686-23.253 9.645l-0.001 0.001-28.16 28.587c-15.123 13.872-35.369 22.373-57.6 22.373s-42.476-8.501-57.663-22.43l0.063 0.057-20.907-21.333c-6.036-5.76-14.231-9.305-23.253-9.305s-17.217 3.545-23.267 9.318l-17.48 17.48c-15.123 13.872-35.369 22.373-57.6 22.373s-42.476-8.501-57.663-22.43l0.063 0.057-17.493-17.92c-6.036-5.76-14.231-9.305-23.253-9.305s-17.217 3.545-23.267 9.318l-14.067 14.067c-14.697 14.836-35.076 24.022-57.6 24.022s-42.903-9.186-57.594-24.016l-0.006-0.006-10.667-10.24c-5.879-5.935-14.030-9.609-23.040-9.609s-17.161 3.674-23.037 9.606l-0.003 0.003c-14.791 14.631-35.14 23.669-57.6 23.669s-42.809-9.039-57.607-23.677l-51.193-51.193 34.56-34.133 50.773 50.773c5.948 5.959 14.17 9.645 23.253 9.645s17.306-3.686 23.253-9.645l0.001-0.001c15.123-13.872 35.369-22.373 57.6-22.373s42.476 8.501 57.663 22.43l-0.063-0.057 10.667 9.813c5.879 5.935 14.030 9.609 23.040 9.609s17.161-3.674 23.037-9.606l14.083-14.083c14.697-14.836 35.076-24.022 57.6-24.022s42.903 9.186 57.594 24.016l0.006 0.006 17.92 17.493c5.969 5.734 14.092 9.265 23.040 9.265s17.070-3.531 23.051-9.276l17.482-17.482c14.697-14.836 35.076-24.022 57.6-24.022s42.903 9.186 57.594 24.016l0.006 0.006 21.333 20.907c5.969 5.734 14.092 9.265 23.040 9.265s17.070-3.531 23.051-9.276l28.149-28.149c14.791-14.631 35.14-23.669 57.6-23.669s42.809 9.039 57.607 23.677l24.74 24.74c5.948 5.959 14.17 9.645 23.253 9.645s17.306-3.686 23.253-9.645l0.001-0.001 56.747-57.173 34.56 34.56-58.027 58.027c-14.746 14.38-34.924 23.251-57.173 23.251s-42.428-8.87-57.19-23.267l0.017 0.017zM843.52 175.787l-24.32-26.453c-5.948-5.959-14.17-9.645-23.253-9.645s-17.306 3.686-23.253 9.645l-28.161 28.161c-15.123 13.872-35.369 22.373-57.6 22.373s-42.476-8.501-57.663-22.43l0.063 0.057-20.907-21.333c-6.036-5.76-14.231-9.305-23.253-9.305s-17.217 3.545-23.267 9.318l-17.48 17.48c-14.881 14.432-35.201 23.329-57.6 23.329s-42.719-8.897-57.621-23.349l0.021 0.020-17.493-17.493c-5.948-5.959-14.17-9.645-23.253-9.645s-17.306 3.686-23.253 9.645l-14.081 14.081c-15.123 13.872-35.369 22.373-57.6 22.373s-42.476-8.501-57.663-22.43l0.063 0.057-10.667-10.667c-5.879-5.935-14.030-9.609-23.040-9.609s-17.161 3.674-23.037 9.606l-0.003 0.003c-14.697 14.836-35.076 24.022-57.6 24.022s-42.903-9.186-57.594-24.016l-0.006-0.006-51.2-48.64 34.56-34.56 50.773 51.2c5.993 5.858 14.201 9.472 23.253 9.472s17.26-3.614 23.26-9.478l-0.006 0.006c14.881-14.432 35.201-23.329 57.6-23.329s42.719 8.897 57.621 23.349l-0.021-0.020 10.667 10.24c5.969 5.734 14.092 9.265 23.040 9.265s17.070-3.531 23.051-9.276l14.069-14.069c14.791-14.631 35.14-23.669 57.6-23.669s42.809 9.039 57.607 23.677l17.913 17.913c6.011 5.64 14.121 9.104 23.040 9.104s17.029-3.464 23.058-9.121l-0.018 0.017 17.493-17.92c14.791-14.631 35.14-23.669 57.6-23.669s42.809 9.039 57.607 23.677l21.326 21.326c5.969 5.734 14.092 9.265 23.040 9.265s17.070-3.531 23.051-9.276l28.149-28.149c15.123-13.872 35.369-22.373 57.6-22.373s42.476 8.501 57.663 22.43l-0.063-0.057 24.747 24.747c6.036 5.76 14.231 9.305 23.253 9.305s17.217-3.545 23.267-9.318l-0.013 0.013 56.747-58.027 34.56 34.133-58.027 58.027c-14.655 14.581-34.862 23.595-57.173 23.595s-42.518-9.014-57.177-23.598l0.003 0.003zM200.107 170.24l32.427 36.267c-53.584 47.904-99.988 102.175-138.498 162.007l-1.876 3.113c-16.578 36.090-30.032 78.135-38.291 122.014l-0.536 3.426h917.333c-8.795-47.305-22.249-89.35-40.235-128.898l1.408 3.458c-15.988-33.739-35.829-62.722-59.492-88.095l0.186 0.201c-24.874-26.632-50.767-51.309-78.030-74.421l-1.33-1.099 29.013-39.253c31.083 25.371 58.954 51.754 84.786 80.032l0.548 0.608c26.982 28.977 49.816 62.316 67.24 98.737l1.027 2.383c22.064 48.49 38.914 104.792 47.775 163.71l0.438 3.543c0.243 1.233 0.383 2.652 0.383 4.102 0 5.838-2.255 11.15-5.942 15.111l0.012-0.014c-4.455 5.199-11.012 8.486-18.338 8.533h-164.275v267.093c-2.165 65.932-56.132 118.557-122.391 118.557-64.306 0-117.034-49.568-122.061-112.581l-0.028-0.429c-22.232 24.399-54.132 39.657-89.596 39.68h-0.004c-67.532-0.242-122.212-54.922-122.453-122.43v-26.050c-22.55 27.609-56.593 45.094-94.72 45.094-67.393 0-122.027-54.633-122.027-122.027 0-0.103 0-0.207 0-0.31v0.016-85.333h-138.24c-7.334-0.048-13.891-3.335-18.319-8.501l-0.027-0.033c-3.674-3.948-5.929-9.259-5.929-15.098 0-1.451 0.139-2.869 0.405-4.242l-0.023 0.14c9.149-62.432 25.858-118.75 49.419-171.329l-1.632 4.076c42.902-69.688 93.228-129.516 151.094-181.060l0.8-0.7zM640 812.8c0 40.766 33.047 73.813 73.813 73.813s73.813-33.047 73.813-73.813v0-267.093h-147.627zM426.667 735.573c0 40.766 33.047 73.813 73.813 73.813s73.813-33.047 73.813-73.813v0-189.867h-147.627zM213.333 632.32c-0.136 1.679-0.213 3.634-0.213 5.608 0 40.766 33.047 73.813 73.813 73.813s73.813-33.047 73.813-73.813c0-1.974-0.077-3.929-0.229-5.864l0.016 0.256v-85.333h-147.2z" />
<glyph unicode="&#xe90e;" glyph-name="RailWagon" d="M830.293 781.653h-636.587c-107.136-0.726-193.707-87.744-193.707-194.982 0-0.001 0-0.003 0-0.004v0-102.827c0 0 0 0 0 0 0-107.538 87.056-194.744 194.537-194.986h635.756c107.136 0.726 193.707 87.744 193.707 194.982 0 0.001 0 0.003 0 0.004v0 102.827c0 0.001 0 0.003 0 0.004 0 107.238-86.57 194.257-193.638 194.982h-0.069zM164.693 334.507c-70.079 14.424-122.027 75.609-122.027 148.928 0 0.142 0 0.285 0.001 0.427v-0.022 102.827c0 0.070 0 0.153 0 0.237 0 73.624 52.382 135.014 121.91 148.935l0.97 0.162zM331.52 331.52h-124.16v69.973h124.16zM331.52 444.16h-124.16v46.507h124.16zM331.52 533.333h-124.16v46.507h124.16zM331.52 622.507h-124.16v46.507h124.16zM331.52 711.68h-124.16v27.307h124.16zM981.333 483.84c0 0 0 0 0-0.001 0-83.974-67.953-152.077-151.87-152.319h-455.276v407.467h456.107c83.572-0.725 151.040-68.641 151.040-152.315 0-0.002 0-0.004 0-0.006v0zM0 219.307h153.6c-20.55-17.56-33.493-43.503-33.493-72.469 0-52.548 42.599-95.147 95.147-95.147s95.147 42.599 95.147 95.147c0 28.966-12.944 54.909-33.362 72.36l-0.131 0.109h469.333c-20.55-17.56-33.493-43.503-33.493-72.469 0-52.548 42.599-95.147 95.147-95.147s95.147 42.599 95.147 95.147c0 28.966-12.944 54.909-33.362 72.36l-0.131 0.109h154.453v42.667h-1024zM810.667 199.68c0.127 0.001 0.277 0.002 0.427 0.002 28.984 0 52.48-23.496 52.48-52.48s-23.496-52.48-52.48-52.48c-28.983 0-52.479 23.495-52.48 52.478v0c0 0.001 0 0.001 0 0.002 0 28.834 23.254 52.237 52.030 52.478h0.023zM217.6 199.68c28.984 0 52.48-23.496 52.48-52.48s-23.496-52.48-52.48-52.48c-28.984 0-52.48 23.496-52.48 52.48v0c0 0.013 0 0.028 0 0.043 0 28.234 22.295 51.26 50.24 52.433l0.106 0.004zM426.667 843.52h170.667v-42.667h-170.667v42.667z" />
<glyph unicode="&#xe90f;" glyph-name="Order" d="M566.187 965.12h-448v-1035.093h787.627v691.2zM578.56 891.733l246.613-249.6h-246.613zM863.147-27.307h-702.293v950.613h375.040v-323.84h327.253zM512 526.507l-13.653-16.64c-14.080-17.067-136.107-170.667-136.107-246.613 6.055-77.704 70.599-138.463 149.333-138.463s143.278 60.759 149.301 137.947l0.032 0.516c0 77.227-122.027 229.547-136.107 246.613zM512 149.333c0 0-0.001 0-0.001 0-63.238 0-114.53 51.143-114.772 114.323v0.023c0 49.067 73.387 153.6 114.773 206.933 42.667-53.333 114.773-157.867 114.773-206.933-0.243-63.204-51.535-114.347-114.773-114.347 0 0-0.001 0-0.001 0v0z" />
<glyph unicode="&#xe910;" glyph-name="VehicleHSEInspection" d="M298.667 554.667h-125.013l-88.32-170.667h213.333zM256 426.667h-98.56l42.667 85.333h55.893zM298.667 256c-47.128 0-85.333-38.205-85.333-85.333s38.205-85.333 85.333-85.333c47.128 0 85.333 38.205 85.333 85.333v0c0 47.128-38.205 85.333-85.333 85.333v0zM298.667 128c-23.564 0-42.667 19.103-42.667 42.667s19.103 42.667 42.667 42.667c23.564 0 42.667-19.103 42.667-42.667v0c0.001-0.127 0.002-0.277 0.002-0.427 0-23.564-19.103-42.667-42.667-42.667-0.001 0-0.001 0-0.002 0v0zM640 853.333h213.333v-42.667h-213.333v42.667zM859.307 302.933c0 0.060 0 0.131 0 0.202 0 52.312-42.408 94.72-94.72 94.72s-94.72-42.408-94.72-94.72c0-52.312 42.408-94.72 94.72-94.72 19.377 0 37.394 5.818 52.401 15.803l-0.348-0.218 66.987-66.987 25.173 25.173-66.987 66.987c10.883 14.895 17.434 33.557 17.493 53.746v0.014zM764.16 243.2c-32.99 0-59.733 26.744-59.733 59.733s26.744 59.733 59.733 59.733c32.99 0 59.733-26.744 59.733-59.733v0c0-32.99-26.744-59.733-59.733-59.733v0zM1024 554.24v42.667c0 94.257-76.41 170.667-170.667 170.667v0h-256c-94.257 0-170.667-76.41-170.667-170.667v0-42.667c-0.001-0.194-0.001-0.424-0.001-0.654 0-89 68.125-162.088 155.073-169.964l0.662-0.048c-13.241-24.735-22.338-53.653-25.516-84.329l-0.084-1.004h-81.493l-91.307 107.093v234.667h-264.533l-119.467-240.64v-143.36h128v-42.667h42.667v85.333h-128v90.453l102.827 208.213h195.84v-206.507l113.067-134.827h101.973c1.349-15.744 4.22-30.255 8.499-44.148l-0.393 1.481h-137.813v-42.667h154.88c11.68-22.774 25.91-42.316 42.693-59.334l-0.027 0.027c42.476-42.476 101.157-68.748 165.973-68.748 129.633 0 234.722 105.089 234.722 234.722 0 64.817-26.272 123.497-68.748 165.973v0c4.693-4.693 8.107-10.24 12.373-14.933 34.128 31.3 55.45 76.092 55.467 125.863v0.003zM925.013 141.653c-34.753-34.796-82.788-56.32-135.849-56.32-106.039 0-192 85.961-192 192s85.961 192 192 192c53.061 0 101.095-21.524 135.847-56.318l0.002-0.002c35.006-34.593 56.686-82.605 56.686-135.68s-21.68-101.087-56.668-135.662l-0.019-0.018zM938.667 458.667c-39.971 33.211-91.822 53.367-148.38 53.367-64.576 0-123.014-26.274-165.209-68.716l-0.011-0.011c-5.12-5.12-8.96-11.093-13.653-16.64h-14.080c-70.692 0-128 57.308-128 128v0 42.667c0 70.692 57.308 128 128 128v0h256c70.692 0 128-57.308 128-128v0-42.667c0.001-0.176 0.001-0.385 0.001-0.593 0-37.852-16.43-71.867-42.548-95.301l-0.12-0.105z" />
<glyph unicode="&#xe911;" glyph-name="TruckShipmentByCompartment" d="M298.667 405.333h-125.013l-88.32-170.667h213.333zM256 277.333h-98.56l42.667 85.333h55.893zM298.667 106.667c-47.128 0-85.333-38.205-85.333-85.333s38.205-85.333 85.333-85.333c47.128 0 85.333 38.205 85.333 85.333v0c0 47.128-38.205 85.333-85.333 85.333v0zM298.667-21.333c-23.564 0-42.667 19.103-42.667 42.667s19.103 42.667 42.667 42.667c23.564 0 42.667-19.103 42.667-42.667v0c0-23.564-19.103-42.667-42.667-42.667v0zM863.573 188.587h-107.52l-42.667-39.253h-238.080l-90.88 107.093-0.427 233.813h-264.533l-119.467-240.64v-142.933h128v-42.667h42.667v85.333h-128v90.027l102.827 208.213h195.84l0.427-206.507 113.067-134.4h276.48l42.667 39.253h71.68l42.667-39.253h93.013v-42.667h42.667v85.333h-118.187l-42.24 39.253zM810.667 106.667c-47.128 0-85.333-38.205-85.333-85.333s38.205-85.333 85.333-85.333c47.128 0 85.333 38.205 85.333 85.333v0c0 47.128-38.205 85.333-85.333 85.333v0zM810.667-21.333c-23.564 0-42.667 19.103-42.667 42.667s19.103 42.667 42.667 42.667c23.564 0 42.667-19.103 42.667-42.667v0c0-23.564-19.103-42.667-42.667-42.667v0zM426.667 63.573h256v-42.667h-256v42.667zM853.333 618.667h-256c-94.257 0-170.667-76.41-170.667-170.667v0-42.667c0-94.257 76.41-170.667 170.667-170.667v0h256c94.257 0 170.667 76.41 170.667 170.667v0 42.667c0 94.257-76.41 170.667-170.667 170.667v0zM554.667 285.44c-49.895 18.013-84.984 64.811-85.333 119.851v42.709c0.35 55.083 35.438 101.88 84.442 119.612l0.891 0.282zM704 277.333h-106.667v298.667h106.667zM853.333 277.333h-106.667v298.667h106.667zM981.333 405.333c-0.35-55.083-35.438-101.88-84.442-119.612l-0.891-0.282v282.453c49.895-18.013 84.984-64.811 85.333-119.851v-0.042zM533.333 722.773c11.782 0 21.333 9.551 21.333 21.333v0 143.36l54.187-55.467c3.781-3.92 9.068-6.365 14.927-6.4h0.007c0.442-0.035 0.956-0.054 1.475-0.054 5.821 0 11.062 2.48 14.726 6.441l0.012 0.013c3.898 3.867 6.31 9.225 6.31 15.147s-2.413 11.28-6.309 15.145l-91.734 91.734c-3.845 3.771-9.117 6.098-14.933 6.098s-11.088-2.327-14.937-6.102l0.003 0.003-91.733-90.453c-4.298-3.917-6.984-9.538-6.984-15.787s2.686-11.87 6.967-15.771l0.017-0.015c3.845-3.771 9.117-6.098 14.933-6.098s11.088 2.327 14.937 6.102l55.464 55.464v-143.36c0-11.782 9.551-21.333 21.333-21.333v0z" />
<glyph unicode="&#xe912;" glyph-name="TruckShipmentByProduct" d="M298.667 405.333h-125.013l-88.32-170.667h213.333zM256 277.333h-98.56l42.667 85.333h55.893zM298.667 106.667c-47.128 0-85.333-38.205-85.333-85.333s38.205-85.333 85.333-85.333c47.128 0 85.333 38.205 85.333 85.333v0c0 47.128-38.205 85.333-85.333 85.333v0zM298.667-21.333c-23.564 0-42.667 19.103-42.667 42.667s19.103 42.667 42.667 42.667c23.564 0 42.667-19.103 42.667-42.667v0c0-23.564-19.103-42.667-42.667-42.667v0zM863.573 188.587h-107.52l-42.667-39.253h-238.080l-90.88 107.093-0.427 233.813h-264.533l-119.467-240.64v-142.933h128v-42.667h42.667v85.333h-128v90.027l102.827 208.213h195.84l0.427-206.507 113.067-134.4h276.48l42.667 39.253h71.68l42.667-39.253h93.013v-42.667h42.667v85.333h-118.187l-42.24 39.253zM810.667 106.667c-47.128 0-85.333-38.205-85.333-85.333s38.205-85.333 85.333-85.333c47.128 0 85.333 38.205 85.333 85.333v0c0 47.128-38.205 85.333-85.333 85.333v0zM810.667-21.333c-23.564 0-42.667 19.103-42.667 42.667s19.103 42.667 42.667 42.667c23.564 0 42.667-19.103 42.667-42.667v0c0-23.564-19.103-42.667-42.667-42.667v0zM426.667 63.573h256v-42.667h-256v42.667zM533.333 722.773c11.782 0 21.333 9.551 21.333 21.333v0 143.36l54.187-55.467c3.781-3.92 9.068-6.365 14.927-6.4h0.007c0.442-0.035 0.956-0.054 1.475-0.054 5.821 0 11.062 2.48 14.726 6.441l0.012 0.013c3.898 3.867 6.31 9.225 6.31 15.147s-2.413 11.28-6.309 15.145l-91.734 91.734c-3.845 3.771-9.117 6.098-14.933 6.098s-11.088-2.327-14.937-6.102l0.003 0.003-91.733-90.453c-4.298-3.917-6.984-9.538-6.984-15.787s2.686-11.87 6.967-15.771l0.017-0.015c3.845-3.771 9.117-6.098 14.933-6.098s11.088 2.327 14.937 6.102l55.464 55.464v-143.36c0-11.782 9.551-21.333 21.333-21.333v0zM640 704h213.333v-42.667h-213.333v42.667zM853.333 618.667h-256c-94.257 0-170.667-76.41-170.667-170.667v0-42.667c0-94.257 76.41-170.667 170.667-170.667v0h256c94.257 0 170.667 76.41 170.667 170.667v0 42.667c0 94.257-76.41 170.667-170.667 170.667v0zM981.333 405.333c0-70.692-57.308-128-128-128v0h-256c-70.692 0-128 57.308-128 128v0 42.667c0 70.692 57.308 128 128 128v0h256c70.692 0 128-57.308 128-128v0z" />
<glyph unicode="&#xe913;" glyph-name="TruckReciept" d="M298.667 405.333h-125.013l-88.32-170.667h213.333zM256 277.333h-98.56l42.667 85.333h55.893zM298.667 106.667c-47.128 0-85.333-38.205-85.333-85.333s38.205-85.333 85.333-85.333c47.128 0 85.333 38.205 85.333 85.333v0c0 47.128-38.205 85.333-85.333 85.333v0zM298.667-21.333c-23.564 0-42.667 19.103-42.667 42.667s19.103 42.667 42.667 42.667c23.564 0 42.667-19.103 42.667-42.667v0c0-23.564-19.103-42.667-42.667-42.667v0zM863.573 188.587h-107.52l-42.667-39.253h-238.080l-90.88 107.093-0.427 233.813h-264.533l-119.467-240.64v-142.933h128v-42.667h42.667v85.333h-128v90.027l102.827 208.213h195.84l0.427-206.507 113.067-134.4h276.48l42.667 39.253h71.68l42.667-39.253h93.013v-42.667h42.667v85.333h-118.187l-42.24 39.253zM810.667 106.667c-47.128 0-85.333-38.205-85.333-85.333s38.205-85.333 85.333-85.333c47.128 0 85.333 38.205 85.333 85.333v0c0 47.128-38.205 85.333-85.333 85.333v0zM810.667-21.333c-23.564 0-42.667 19.103-42.667 42.667s19.103 42.667 42.667 42.667c23.564 0 42.667-19.103 42.667-42.667v0c0-23.564-19.103-42.667-42.667-42.667v0zM426.667 63.573h256v-42.667h-256v42.667zM533.333 960c-11.782 0-21.333-9.551-21.333-21.333v0-142.933l-54.187 54.187c-3.781 3.92-9.068 6.365-14.927 6.4h-0.007c-0.073 0.001-0.159 0.001-0.244 0.001-5.795 0-11.017-2.458-14.678-6.389l-0.011-0.012c-3.898-3.867-6.31-9.225-6.31-15.147s2.413-11.28 6.309-15.145l90.454-90.454c3.845-3.771 9.117-6.098 14.933-6.098s11.088 2.327 14.937 6.102l-0.003-0.003 91.733 90.453c3.898 3.867 6.31 9.225 6.31 15.147s-2.413 11.28-6.309 15.145l-0.001 0.001c-3.845 3.771-9.117 6.098-14.933 6.098s-11.088-2.327-14.937-6.102l-55.463-54.183v143.36c-0.239 11.597-9.697 20.907-21.329 20.907-0.002 0-0.003 0-0.005 0v0zM640 704h213.333v-42.667h-213.333v42.667zM853.333 618.667h-256c-94.257 0-170.667-76.41-170.667-170.667v0-42.667c0-94.257 76.41-170.667 170.667-170.667v0h256c94.257 0 170.667 76.41 170.667 170.667v0 42.667c0 94.257-76.41 170.667-170.667 170.667v0zM981.333 405.333c0-70.692-57.308-128-128-128v0h-256c-70.692 0-128 57.308-128 128v0 42.667c0 70.692 57.308 128 128 128v0h256c70.692 0 128-57.308 128-128v0z" />
<glyph unicode="&#xe914;" glyph-name="MarineDispatch" d="M843.52 60.16l-24.32-24.747c-5.948-5.959-14.17-9.645-23.253-9.645s-17.306 3.686-23.253 9.645l-0.001 0.001-28.16 28.587c-15.123 13.872-35.369 22.373-57.6 22.373s-42.476-8.501-57.663-22.43l0.063 0.057-20.907-21.333c-6.036-5.76-14.231-9.305-23.253-9.305s-17.217 3.545-23.267 9.318l-17.48 17.48c-15.123 13.872-35.369 22.373-57.6 22.373s-42.476-8.501-57.663-22.43l0.063 0.057-17.493-17.92c-6.036-5.76-14.231-9.305-23.253-9.305s-17.217 3.545-23.267 9.318l-14.067 14.067c-14.697 14.836-35.076 24.022-57.6 24.022s-42.903-9.186-57.594-24.016l-0.006-0.006-10.667-10.24c-5.879-5.935-14.030-9.609-23.040-9.609s-17.161 3.674-23.037 9.606l-0.003 0.003c-14.791 14.631-35.14 23.669-57.6 23.669s-42.809-9.039-57.607-23.677l-51.193-51.193 34.56-34.133 50.773 50.773c5.948 5.959 14.17 9.645 23.253 9.645s17.306-3.686 23.253-9.645l0.001-0.001c15.123-13.872 35.369-22.373 57.6-22.373s42.476 8.501 57.663 22.43l-0.063-0.057 10.667 9.813c5.879 5.935 14.030 9.609 23.040 9.609s17.161-3.674 23.037-9.606l14.083-14.083c14.697-14.836 35.076-24.022 57.6-24.022s42.903 9.186 57.594 24.016l0.006 0.006 17.92 17.493c5.969 5.734 14.092 9.265 23.040 9.265s17.070-3.531 23.051-9.276l17.482-17.482c14.697-14.836 35.076-24.022 57.6-24.022s42.903 9.186 57.594 24.016l0.006 0.006 21.333 20.907c5.969 5.734 14.092 9.265 23.040 9.265s17.070-3.531 23.051-9.276l28.149-28.149c14.791-14.631 35.14-23.669 57.6-23.669s42.809 9.039 57.607 23.677l24.74 24.74c5.948 5.959 14.17 9.645 23.253 9.645s17.306-3.686 23.253-9.645l0.001-0.001 56.747-57.173 34.56 34.56-58.027 58.027c-14.746 14.38-34.924 23.251-57.173 23.251s-42.428-8.87-57.19-23.267l0.017 0.017zM843.52 175.787l-24.32-26.453c-5.948-5.959-14.17-9.645-23.253-9.645s-17.306 3.686-23.253 9.645l-28.161 28.161c-15.123 13.872-35.369 22.373-57.6 22.373s-42.476-8.501-57.663-22.43l0.063 0.057-20.907-21.333c-6.036-5.76-14.231-9.305-23.253-9.305s-17.217 3.545-23.267 9.318l-17.48 17.48c-14.881 14.432-35.201 23.329-57.6 23.329s-42.719-8.897-57.621-23.349l0.021 0.020-17.493-17.493c-5.948-5.959-14.17-9.645-23.253-9.645s-17.306 3.686-23.253 9.645l-14.081 14.081c-15.123 13.872-35.369 22.373-57.6 22.373s-42.476-8.501-57.663-22.43l0.063 0.057-10.667-10.667c-5.879-5.935-14.030-9.609-23.040-9.609s-17.161 3.674-23.037 9.606l-0.003 0.003c-14.697 14.836-35.076 24.022-57.6 24.022s-42.903-9.186-57.594-24.016l-0.006-0.006-51.2-48.64 34.56-34.56 50.773 51.2c5.993 5.858 14.201 9.472 23.253 9.472s17.26-3.614 23.26-9.478l-0.006 0.006c14.881-14.432 35.201-23.329 57.6-23.329s42.719 8.897 57.621 23.349l-0.021-0.020 10.667 10.24c5.969 5.734 14.092 9.265 23.040 9.265s17.070-3.531 23.051-9.276l14.069-14.069c14.791-14.631 35.14-23.669 57.6-23.669s42.809 9.039 57.607 23.677l17.913 17.913c6.011 5.64 14.121 9.104 23.040 9.104s17.029-3.464 23.058-9.121l-0.018 0.017 17.493-17.92c14.791-14.631 35.14-23.669 57.6-23.669s42.809 9.039 57.607 23.677l21.326 21.326c5.969 5.734 14.092 9.265 23.040 9.265s17.070-3.531 23.051-9.276l28.149-28.149c15.123-13.872 35.369-22.373 57.6-22.373s42.476 8.501 57.663 22.43l-0.063-0.057 24.747 24.747c6.036 5.76 14.231 9.305 23.253 9.305s17.217-3.545 23.267-9.318l-0.013 0.013 56.747-58.027 34.56 34.133-58.027 58.027c-14.655 14.581-34.862 23.595-57.173 23.595s-42.518-9.014-57.177-23.598l0.003 0.003zM200.107 170.24l32.427 36.267c-53.584 47.904-99.988 102.175-138.498 162.007l-1.876 3.113c-16.578 36.090-30.032 78.135-38.291 122.014l-0.536 3.426h917.333c-8.795-47.305-22.249-89.35-40.235-128.898l1.408 3.458c-15.988-33.739-35.829-62.722-59.492-88.095l0.186 0.201c-24.874-26.632-50.767-51.309-78.030-74.421l-1.33-1.099 29.013-39.253c31.083 25.371 58.954 51.754 84.786 80.032l0.548 0.608c26.982 28.977 49.816 62.316 67.24 98.737l1.027 2.383c22.064 48.49 38.914 104.792 47.775 163.71l0.438 3.543c0.243 1.233 0.383 2.652 0.383 4.102 0 5.838-2.255 11.15-5.942 15.111l0.012-0.014c-4.455 5.199-11.012 8.486-18.338 8.533h-164.275v267.093c-2.165 65.932-56.132 118.557-122.391 118.557-64.306 0-117.034-49.568-122.061-112.581l-0.028-0.429c-22.232 24.399-54.132 39.657-89.596 39.68h-0.004c-67.532-0.242-122.212-54.922-122.453-122.43v-26.050c-22.55 27.609-56.593 45.094-94.72 45.094-67.393 0-122.027-54.633-122.027-122.027 0-0.103 0-0.207 0-0.31v0.016-85.333h-138.24c-7.334-0.048-13.891-3.335-18.319-8.501l-0.027-0.033c-3.674-3.948-5.929-9.259-5.929-15.098 0-1.451 0.139-2.869 0.405-4.242l-0.023 0.14c9.149-62.432 25.858-118.75 49.419-171.329l-1.632 4.076c42.902-69.688 93.228-129.516 151.094-181.060l0.8-0.7zM712.107 886.613c40.766 0 73.813-33.047 73.813-73.813v0-267.093h-145.92v267.093c0 0 0 0.001 0 0.001 0 40.616 32.805 73.57 73.364 73.812h0.023zM498.773 809.387c40.669-0.24 73.573-33.144 73.813-73.79v-189.89h-145.92v189.867c0.239 40.82 33.385 73.818 74.239 73.818 0.3 0 0.6-0.002 0.9-0.005h-0.046zM213.333 632.32c-0.136 1.679-0.213 3.634-0.213 5.608 0 40.766 33.047 73.813 73.813 73.813s73.813-33.047 73.813-73.813c0-1.974-0.077-3.929-0.229-5.864l0.016 0.256v-85.333h-147.2zM512 234.667c11.782 0 21.333 9.551 21.333 21.333v0 142.933l54.187-53.76c3.781-3.92 9.068-6.365 14.927-6.4h0.007c0.073-0.001 0.159-0.001 0.244-0.001 5.795 0 11.017 2.458 14.678 6.389l0.011 0.012c3.984 3.745 6.465 9.050 6.465 14.933s-2.481 11.188-6.454 14.923l-0.011 0.010-90.453 90.453c-3.745 3.984-9.050 6.465-14.933 6.465s-11.188-2.481-14.923-6.454l-0.010-0.011-90.453-90.453c-3.822-3.822-6.186-9.102-6.186-14.933 0-11.664 9.455-21.119 21.119-21.119 5.832 0 11.112 2.364 14.933 6.186v0l54.187 53.76v-142.933c0-11.782 9.551-21.333 21.333-21.333v0z" />
<glyph unicode="&#xe915;" glyph-name="MarineReciept" d="M843.52 60.16l-24.32-24.747c-5.948-5.959-14.17-9.645-23.253-9.645s-17.306 3.686-23.253 9.645l-0.001 0.001-28.16 28.587c-15.123 13.872-35.369 22.373-57.6 22.373s-42.476-8.501-57.663-22.43l0.063 0.057-20.907-21.333c-6.036-5.76-14.231-9.305-23.253-9.305s-17.217 3.545-23.267 9.318l-17.48 17.48c-15.123 13.872-35.369 22.373-57.6 22.373s-42.476-8.501-57.663-22.43l0.063 0.057-17.493-17.92c-6.036-5.76-14.231-9.305-23.253-9.305s-17.217 3.545-23.267 9.318l-14.067 14.067c-14.697 14.836-35.076 24.022-57.6 24.022s-42.903-9.186-57.594-24.016l-0.006-0.006-10.667-10.24c-5.879-5.935-14.030-9.609-23.040-9.609s-17.161 3.674-23.037 9.606l-0.003 0.003c-14.791 14.631-35.14 23.669-57.6 23.669s-42.809-9.039-57.607-23.677l-51.193-51.193 34.56-34.133 50.773 50.773c5.948 5.959 14.17 9.645 23.253 9.645s17.306-3.686 23.253-9.645l0.001-0.001c15.123-13.872 35.369-22.373 57.6-22.373s42.476 8.501 57.663 22.43l-0.063-0.057 10.667 9.813c5.879 5.935 14.030 9.609 23.040 9.609s17.161-3.674 23.037-9.606l14.083-14.083c14.697-14.836 35.076-24.022 57.6-24.022s42.903 9.186 57.594 24.016l0.006 0.006 17.92 17.493c5.969 5.734 14.092 9.265 23.040 9.265s17.070-3.531 23.051-9.276l17.482-17.482c14.697-14.836 35.076-24.022 57.6-24.022s42.903 9.186 57.594 24.016l0.006 0.006 21.333 20.907c5.969 5.734 14.092 9.265 23.040 9.265s17.070-3.531 23.051-9.276l28.149-28.149c14.791-14.631 35.14-23.669 57.6-23.669s42.809 9.039 57.607 23.677l24.74 24.74c5.948 5.959 14.17 9.645 23.253 9.645s17.306-3.686 23.253-9.645l0.001-0.001 56.747-57.173 34.56 34.56-58.027 58.027c-14.746 14.38-34.924 23.251-57.173 23.251s-42.428-8.87-57.19-23.267l0.017 0.017zM843.52 175.787l-24.32-26.453c-5.948-5.959-14.17-9.645-23.253-9.645s-17.306 3.686-23.253 9.645l-28.161 28.161c-15.123 13.872-35.369 22.373-57.6 22.373s-42.476-8.501-57.663-22.43l0.063 0.057-20.907-21.333c-6.036-5.76-14.231-9.305-23.253-9.305s-17.217 3.545-23.267 9.318l-17.48 17.48c-14.881 14.432-35.201 23.329-57.6 23.329s-42.719-8.897-57.621-23.349l0.021 0.020-17.493-17.493c-5.948-5.959-14.17-9.645-23.253-9.645s-17.306 3.686-23.253 9.645l-14.081 14.081c-15.123 13.872-35.369 22.373-57.6 22.373s-42.476-8.501-57.663-22.43l0.063 0.057-10.667-10.667c-5.879-5.935-14.030-9.609-23.040-9.609s-17.161 3.674-23.037 9.606l-0.003 0.003c-14.697 14.836-35.076 24.022-57.6 24.022s-42.903-9.186-57.594-24.016l-0.006-0.006-51.2-48.64 34.56-34.56 50.773 51.2c5.993 5.858 14.201 9.472 23.253 9.472s17.26-3.614 23.26-9.478l-0.006 0.006c14.881-14.432 35.201-23.329 57.6-23.329s42.719 8.897 57.621 23.349l-0.021-0.020 10.667 10.24c5.969 5.734 14.092 9.265 23.040 9.265s17.070-3.531 23.051-9.276l14.069-14.069c14.791-14.631 35.14-23.669 57.6-23.669s42.809 9.039 57.607 23.677l17.913 17.913c6.011 5.64 14.121 9.104 23.040 9.104s17.029-3.464 23.058-9.121l-0.018 0.017 17.493-17.92c14.791-14.631 35.14-23.669 57.6-23.669s42.809 9.039 57.607 23.677l21.326 21.326c5.969 5.734 14.092 9.265 23.040 9.265s17.070-3.531 23.051-9.276l28.149-28.149c15.123-13.872 35.369-22.373 57.6-22.373s42.476 8.501 57.663 22.43l-0.063-0.057 24.747 24.747c6.036 5.76 14.231 9.305 23.253 9.305s17.217-3.545 23.267-9.318l-0.013 0.013 56.747-58.027 34.56 34.133-58.027 58.027c-14.655 14.581-34.862 23.595-57.173 23.595s-42.518-9.014-57.177-23.598l0.003 0.003zM200.107 170.24l32.427 36.267c-53.584 47.904-99.988 102.175-138.498 162.007l-1.876 3.113c-16.578 36.090-30.032 78.135-38.291 122.014l-0.536 3.426h917.333c-8.795-47.305-22.249-89.35-40.235-128.898l1.408 3.458c-15.988-33.739-35.829-62.722-59.492-88.095l0.186 0.201c-24.874-26.632-50.767-51.309-78.030-74.421l-1.33-1.099 29.013-39.253c31.083 25.371 58.954 51.754 84.786 80.032l0.548 0.608c26.982 28.977 49.816 62.316 67.24 98.737l1.027 2.383c22.064 48.49 38.914 104.792 47.775 163.71l0.438 3.543c0.243 1.233 0.383 2.652 0.383 4.102 0 5.838-2.255 11.15-5.942 15.111l0.012-0.014c-4.455 5.199-11.012 8.486-18.338 8.533h-164.275v267.093c-2.165 65.932-56.132 118.557-122.391 118.557-64.306 0-117.034-49.568-122.061-112.581l-0.028-0.429c-22.232 24.399-54.132 39.657-89.596 39.68h-0.004c-67.532-0.242-122.212-54.922-122.453-122.43v-26.050c-22.55 27.609-56.593 45.094-94.72 45.094-67.393 0-122.027-54.633-122.027-122.027 0-0.103 0-0.207 0-0.31v0.016-85.333h-138.24c-7.334-0.048-13.891-3.335-18.319-8.501l-0.027-0.033c-3.674-3.948-5.929-9.259-5.929-15.098 0-1.451 0.139-2.869 0.405-4.242l-0.023 0.14c9.149-62.432 25.858-118.75 49.419-171.329l-1.632 4.076c42.902-69.688 93.228-129.516 151.094-181.060l0.8-0.7zM712.107 886.613c40.766 0 73.813-33.047 73.813-73.813v0-267.093h-145.92v267.093c0 0 0 0.001 0 0.001 0 40.616 32.805 73.57 73.364 73.812h0.023zM498.773 809.387c40.669-0.24 73.573-33.144 73.813-73.79v-189.89h-145.92v189.867c0.239 40.82 33.385 73.818 74.239 73.818 0.3 0 0.6-0.002 0.9-0.005h-0.046zM213.333 632.32c-0.136 1.679-0.213 3.634-0.213 5.608 0 40.766 33.047 73.813 73.813 73.813s73.813-33.047 73.813-73.813c0-1.974-0.077-3.929-0.229-5.864l0.016 0.256v-85.333h-147.2zM512 471.893c-11.782 0-21.333-9.551-21.333-21.333v0-142.933l-54.187 55.040c-3.781 3.92-9.068 6.365-14.927 6.4h-0.007c-0.073 0.001-0.159 0.001-0.244 0.001-5.795 0-11.017-2.458-14.678-6.389l-0.011-0.012c-3.984-3.745-6.465-9.050-6.465-14.933s2.481-11.188 6.454-14.923l0.011-0.010 90.453-90.453c3.745-3.984 9.050-6.465 14.933-6.465s11.188 2.481 14.923 6.454l0.010 0.011 90.453 90.453c3.822 3.822 6.186 9.102 6.186 14.933 0 11.664-9.455 21.119-21.119 21.119-5.832 0-11.112-2.364-14.933-6.186v0l-54.187-55.040v142.933c0 11.782-9.551 21.333-21.333 21.333v0z" />
<glyph unicode="&#xe916;" glyph-name="RailReciept" d="M830.293 781.653h-636.587c-107.136-0.726-193.707-87.744-193.707-194.982 0-0.001 0-0.003 0-0.004v0-102.827c0 0 0 0 0 0 0-107.538 87.056-194.744 194.537-194.986h635.756c107.136 0.726 193.707 87.744 193.707 194.982 0 0.001 0 0.003 0 0.004v0 102.827c0 0.001 0 0.003 0 0.004 0 107.238-86.57 194.257-193.638 194.982h-0.069zM164.693 334.507c-70.079 14.424-122.027 75.609-122.027 148.928 0 0.142 0 0.285 0.001 0.427v-0.022 102.827c0 0.070 0 0.153 0 0.237 0 73.624 52.382 135.014 121.91 148.935l0.97 0.162zM331.52 331.52h-124.16v69.973h124.16zM331.52 444.16h-124.16v46.507h124.16zM331.52 533.333h-124.16v46.507h124.16zM331.52 622.507h-124.16v46.507h124.16zM331.52 711.68h-124.16v27.307h124.16zM981.333 483.84c0 0 0 0 0-0.001 0-83.974-67.953-152.077-151.87-152.319h-455.276v407.467h456.107c83.572-0.725 151.040-68.641 151.040-152.315 0-0.002 0-0.004 0-0.006v0zM736.853 543.573l-54.187-52.907v142.080c0 11.782-9.551 21.333-21.333 21.333s-21.333-9.551-21.333-21.333v0-142.080l-54.187 52.907c-3.781 3.92-9.068 6.365-14.927 6.4h-0.007c-0.073 0.001-0.159 0.001-0.244 0.001-5.795 0-11.017-2.458-14.678-6.389l-0.011-0.012c-3.898-3.867-6.31-9.225-6.31-15.147s2.413-11.28 6.309-15.145l90.454-90.454c3.845-3.771 9.117-6.098 14.933-6.098s11.088 2.327 14.937 6.102l-0.003-0.003 91.733 90.453c3.898 3.867 6.31 9.225 6.31 15.147s-2.413 11.28-6.309 15.145l-0.001 0.001c-3.779 4.406-9.352 7.18-15.573 7.18s-11.794-2.774-15.55-7.152l-0.023-0.027zM0 219.307h153.6c-20.55-17.56-33.493-43.503-33.493-72.469 0-52.548 42.599-95.147 95.147-95.147s95.147 42.599 95.147 95.147c0 28.966-12.944 54.909-33.362 72.36l-0.131 0.109h469.333c-20.55-17.56-33.493-43.503-33.493-72.469 0-52.548 42.599-95.147 95.147-95.147s95.147 42.599 95.147 95.147c0 28.966-12.944 54.909-33.362 72.36l-0.131 0.109h154.453v42.667h-1024zM810.667 199.68c0.127 0.001 0.277 0.002 0.427 0.002 28.984 0 52.48-23.496 52.48-52.48s-23.496-52.48-52.48-52.48c-28.983 0-52.479 23.495-52.48 52.478v0c0 0.001 0 0.001 0 0.002 0 28.834 23.254 52.237 52.030 52.478h0.023zM217.6 199.68c28.984 0 52.48-23.496 52.48-52.48s-23.496-52.48-52.48-52.48c-28.984 0-52.48 23.496-52.48 52.48v0c0 0.013 0 0.028 0 0.043 0 28.234 22.295 51.26 50.24 52.433l0.106 0.004zM426.667 843.52h170.667v-42.667h-170.667v42.667z" />
<glyph unicode="&#xe917;" glyph-name="RailDispatch" d="M830.293 781.653h-636.587c-107.136-0.726-193.707-87.744-193.707-194.982 0-0.001 0-0.003 0-0.004v0-102.827c0 0 0 0 0 0 0-107.538 87.056-194.744 194.537-194.986h635.756c107.136 0.726 193.707 87.744 193.707 194.982 0 0.001 0 0.003 0 0.004v0 102.827c0 0.001 0 0.003 0 0.004 0 107.238-86.57 194.257-193.638 194.982h-0.069zM164.693 334.507c-70.079 14.424-122.027 75.609-122.027 148.928 0 0.142 0 0.285 0.001 0.427v-0.022 102.827c0 0.070 0 0.153 0 0.237 0 73.624 52.382 135.014 121.91 148.935l0.97 0.162zM331.52 331.52h-124.16v69.973h124.16zM331.52 444.16h-124.16v46.507h124.16zM331.52 533.333h-124.16v46.507h124.16zM331.52 622.507h-124.16v46.507h124.16zM331.52 711.68h-124.16v27.307h124.16zM981.333 483.84c0 0 0 0 0-0.001 0-83.974-67.953-152.077-151.87-152.319h-455.276v407.467h456.107c83.572-0.725 151.040-68.641 151.040-152.315 0-0.002 0-0.004 0-0.006v0zM0 219.307h153.6c-20.55-17.56-33.493-43.503-33.493-72.469 0-52.548 42.599-95.147 95.147-95.147s95.147 42.599 95.147 95.147c0 28.966-12.944 54.909-33.362 72.36l-0.131 0.109h469.333c-20.55-17.56-33.493-43.503-33.493-72.469 0-52.548 42.599-95.147 95.147-95.147s95.147 42.599 95.147 95.147c0 28.966-12.944 54.909-33.362 72.36l-0.131 0.109h154.453v42.667h-1024zM810.667 199.68c0.127 0.001 0.277 0.002 0.427 0.002 28.984 0 52.48-23.496 52.48-52.48s-23.496-52.48-52.48-52.48c-28.983 0-52.479 23.495-52.48 52.478v0c0 0.001 0 0.001 0 0.002 0 28.834 23.254 52.237 52.030 52.478h0.023zM217.6 199.68c28.984 0 52.48-23.496 52.48-52.48s-23.496-52.48-52.48-52.48c-28.984 0-52.48 23.496-52.48 52.48v0c0 0.013 0 0.028 0 0.043 0 28.234 22.295 51.26 50.24 52.433l0.106 0.004zM426.667 843.52h170.667v-42.667h-170.667v42.667zM661.333 416.853c11.782 0 21.333 9.551 21.333 21.333v0 142.933l54.187-54.187c3.781-3.92 9.068-6.365 14.927-6.4h0.007c0.073-0.001 0.159-0.001 0.244-0.001 5.795 0 11.017 2.458 14.678 6.389l0.011 0.012c3.898 3.867 6.31 9.225 6.31 15.147s-2.413 11.28-6.309 15.145l-90.454 90.454c-3.845 3.771-9.117 6.098-14.933 6.098s-11.088-2.327-14.937-6.102l0.003 0.003-91.733-90.453c-3.898-3.867-6.31-9.225-6.31-15.147s2.413-11.28 6.309-15.145l0.001-0.001c3.845-3.771 9.117-6.098 14.933-6.098s11.088 2.327 14.937 6.102l55.463 54.183v-142.933c0-11.782 9.551-21.333 21.333-21.333v0z" />
<glyph unicode="&#xe918;" glyph-name="Trailer" d="M869.699 388.243l-49.376 48.815h-95.386l-50.499-51.060h-170.012l-72.942 93.703v245.199h-261.471l-119.513-251.371-1.122-126.808h144.763v-52.743h28.055v80.798h-144.763v89.775l110.536 232.294h215.461v-226.683l87.531-112.219h194.7l51.060 51.060h72.381l48.815-48.815h89.214v-51.621h28.055v79.676zM483.104 278.83h144.763v-28.055h-144.763v28.055zM338.341 329.889c-43.765 0-79.115-35.349-79.115-79.115s35.349-79.115 79.115-79.115 79.115 35.349 79.115 79.115-35.349 79.115-79.115 79.115zM338.341 199.715c-28.055 0-51.060 23.005-51.060 51.060s23.005 51.060 51.060 51.060 51.060-23.005 51.060-51.060-23.005-51.060-51.060-51.060zM758.041 329.889c-43.765 0-79.115-35.349-79.115-79.115s35.349-79.115 79.115-79.115 79.115 35.349 79.115 79.115-35.349 79.115-79.115 79.115zM758.041 199.715c-28.055 0-51.060 23.005-51.060 51.060s23.005 51.060 51.060 51.060 51.060-23.005 51.060-51.060-23.005-51.060-51.060-51.060zM329.924 626.709h-99.875l-70.137-158.229h170.012v158.229zM301.87 496.535h-98.753l45.449 102.119h53.304v-102.119z" />
<glyph unicode="&#xe919;" glyph-name="Vehicle" d="M298.667 533.333h-125.013l-88.32-170.667h213.333zM256 405.333h-98.56l42.667 85.333h55.893zM298.667 234.667c-47.128 0-85.333-38.205-85.333-85.333s38.205-85.333 85.333-85.333c47.128 0 85.333 38.205 85.333 85.333v0c0 47.128-38.205 85.333-85.333 85.333v0zM298.667 106.667c-23.564 0-42.667 19.103-42.667 42.667s19.103 42.667 42.667 42.667c23.564 0 42.667-19.103 42.667-42.667v0c0-23.564-19.103-42.667-42.667-42.667v0zM640 832h213.333v-42.667h-213.333v42.667zM778.24 317.013h-107.52l-42.667-39.68h-152.747l-90.88 107.52-0.427 233.813h-264.533l-119.467-240.64v-143.36h128v-42.667h42.667v85.333h-128v90.453l102.827 208.213h195.84l0.427-206.507 113.067-134.827h191.147l42.667 39.68h71.68l42.667-39.68h93.013v-42.667h42.667v85.333h-118.187l-42.24 39.68zM426.667 192h170.667v-42.667h-170.667v42.667zM853.333 746.667h-256c-94.257 0-170.667-76.41-170.667-170.667v0-42.667c0-94.257 76.41-170.667 170.667-170.667v0h256c94.257 0 170.667 76.41 170.667 170.667v0 42.667c0 94.257-76.41 170.667-170.667 170.667v0zM981.333 533.333c0-70.692-57.308-128-128-128v0h-256c-70.692 0-128 57.308-128 128v0 42.667c0 70.692 57.308 128 128 128v0h256c70.692 0 128-57.308 128-128v0zM725.333 234.667c-47.128 0-85.333-38.205-85.333-85.333s38.205-85.333 85.333-85.333c47.128 0 85.333 38.205 85.333 85.333v0c0 47.128-38.205 85.333-85.333 85.333v0zM725.333 106.667c-23.564 0-42.667 19.103-42.667 42.667s19.103 42.667 42.667 42.667c23.564 0 42.667-19.103 42.667-42.667v0c0-23.564-19.103-42.667-42.667-42.667v0z" />
<glyph unicode="&#xe91a;" glyph-name="PipelineDispatch" d="M512 477.867c103.682 0 187.733-84.051 187.733-187.733s-84.051-187.733-187.733-187.733c-103.682 0-187.733 84.051-187.733 187.733v0c0 103.682 84.051 187.733 187.733 187.733v0zM512 520.533c-127.246 0-230.4-103.154-230.4-230.4s103.154-230.4 230.4-230.4c127.246 0 230.4 103.154 230.4 230.4v0c0 127.246-103.154 230.4-230.4 230.4v0zM762.027 354.133h40.96v-128h-40.96v128zM835.413 430.933h40.96v-281.6h-40.96v281.6zM909.227 430.933h40.96v-281.6h-40.96v281.6zM983.040 354.133h40.96v-128h-40.96v128zM0 354.133h40.96v-128h-40.96v128zM73.813 430.933h40.96v-281.6h-40.96v281.6zM147.627 430.933h40.96v-281.6h-40.96v281.6zM221.013 354.133h40.96v-128h-40.96v128zM450.56 836.267h122.88v-42.667h-122.88v42.667zM376.747 759.467h270.507v-42.667h-270.507v42.667zM376.747 682.667h270.507v-42.667h-270.507v42.667zM450.56 605.867h122.88v-42.667h-122.88v42.667zM512 171.52c11.782 0 21.333 9.551 21.333 21.333v0 142.933l54.187-53.76c3.781-3.92 9.068-6.365 14.927-6.4h0.007c0.073-0.001 0.159-0.001 0.244-0.001 5.795 0 11.017 2.458 14.678 6.389l0.011 0.012c3.984 3.745 6.465 9.050 6.465 14.933s-2.481 11.188-6.454 14.923l-0.011 0.010-90.453 90.453c-3.745 3.984-9.050 6.465-14.933 6.465s-11.188-2.481-14.923-6.454l-0.010-0.011-90.453-90.453c-3.822-3.822-6.186-9.102-6.186-14.933 0-11.664 9.455-21.119 21.119-21.119 5.832 0 11.112 2.364 14.933 6.186v0l54.187 53.76v-143.787c0.471-11.409 9.834-20.48 21.316-20.48 0.006 0 0.012 0 0.018 0h-0.001z" />
<glyph unicode="&#xe91b;" glyph-name="PipelineReciept" d="M512 477.867c103.682 0 187.733-84.051 187.733-187.733s-84.051-187.733-187.733-187.733c-103.682 0-187.733 84.051-187.733 187.733v0c0 103.682 84.051 187.733 187.733 187.733v0zM512 520.533c-127.246 0-230.4-103.154-230.4-230.4s103.154-230.4 230.4-230.4c127.246 0 230.4 103.154 230.4 230.4v0c0 127.246-103.154 230.4-230.4 230.4v0zM512 408.747c-11.782 0-21.333-9.551-21.333-21.333v0-142.933l-54.187 53.76c-3.781 3.92-9.068 6.365-14.927 6.4h-0.007c-0.073 0.001-0.159 0.001-0.244 0.001-5.795 0-11.017-2.458-14.678-6.389l-0.011-0.012c-3.984-3.745-6.465-9.050-6.465-14.933s2.481-11.188 6.454-14.923l0.011-0.010 90.453-90.453c3.745-3.984 9.050-6.465 14.933-6.465s11.188 2.481 14.923 6.454l0.010 0.011 90.453 90.453c3.822 3.822 6.186 9.102 6.186 14.933 0 11.664-9.455 21.119-21.119 21.119-5.832 0-11.112-2.364-14.933-6.186v0l-54.187-53.76v142.933c0 11.782-9.551 21.333-21.333 21.333v0zM762.027 354.133h40.96v-128h-40.96v128zM835.413 430.933h40.96v-281.6h-40.96v281.6zM909.227 430.933h40.96v-281.6h-40.96v281.6zM983.040 354.133h40.96v-128h-40.96v128zM0 354.133h40.96v-128h-40.96v128zM73.813 430.933h40.96v-281.6h-40.96v281.6zM147.627 430.933h40.96v-281.6h-40.96v281.6zM221.013 354.133h40.96v-128h-40.96v128zM450.56 836.267h122.88v-42.667h-122.88v42.667zM376.747 759.467h270.507v-42.667h-270.507v42.667zM376.747 682.667h270.507v-42.667h-270.507v42.667zM450.56 605.867h122.88v-42.667h-122.88v42.667z" />
<glyph unicode="&#xe91c;" glyph-name="ViewTransloading" d="M401.493 800h229.973c1.731-0.136 3.748-0.213 5.784-0.213 43.358 0 78.507 35.149 78.507 78.507s-35.149 78.507-78.507 78.507c-2.035 0-4.053-0.077-6.049-0.23l0.265 0.016h-229.973c-1.731 0.136-3.748 0.213-5.784 0.213-43.358 0-78.507-35.149-78.507-78.507s35.149-78.507 78.507-78.507c2.035 0 4.053 0.077 6.049 0.23l-0.265-0.016zM401.493 935.253h229.973c1.478 0.136 3.197 0.213 4.934 0.213 31.576 0 57.173-25.597 57.173-57.173s-25.597-57.173-57.173-57.173c-1.737 0-3.456 0.077-5.154 0.229l0.219-0.016h-229.973c-1.478-0.136-3.197-0.213-4.934-0.213-31.576 0-57.173 25.597-57.173 57.173s25.597 57.173 57.173 57.173c1.737 0 3.456-0.077 5.154-0.229l-0.219 0.016zM682.667 796.587h-341.333v-21.333h89.173c-0.191-1.154-0.3-2.484-0.3-3.84s0.109-2.686 0.319-3.982l-0.019 0.142c0.236-15.221 12.513-27.497 27.711-27.733h0.022c15.221 0.236 27.497 12.513 27.733 27.711v0.022c0.191 1.154 0.3 2.484 0.3 3.84s-0.109 2.686-0.319 3.982l0.019-0.142h64.427c-0.191-1.154-0.3-2.484-0.3-3.84s0.109-2.686 0.319-3.982l-0.019 0.142c0.236-15.221 12.513-27.497 27.711-27.733h0.022c15.221 0.236 27.497 12.513 27.733 27.711v0.022c0.191 1.154 0.3 2.484 0.3 3.84s-0.109 2.686-0.319 3.982l0.019-0.142h76.8zM291.413 852.48l-20.48 37.547-30.72-18.347 23.040-35.84c7.786 5.283 16.995 10.804 26.501 15.839l1.659 0.801zM120.32 692.48l-34.987 23.040c-8.107-12.8-15.36-25.6-22.187-38.827l37.973-19.627c6.69 14.131 13.087 25.735 20.082 36.927l-0.882-1.514zM170.667 757.333l-31.573 28.587c-9.813-10.667-19.2-22.187-28.587-34.133l34.133-25.6c7.253 10.667 16.213 20.48 26.027 31.147zM229.973 812.373l-26.027 33.707c-12.649-9.572-23.771-18.935-34.394-28.827l0.261 0.241 29.013-31.147c9.456 8.839 19.606 17.366 30.196 25.341l0.95 0.685zM85.333 618.667l-42.667 17.493c-5.547-13.653-10.667-27.733-14.933-42.667l42.667-12.8c5.137 15.493 10.191 28.054 15.89 40.254l-0.957-2.28zM11.093 374.187c0-14.933 5.12-29.44 8.533-42.667l42.667 9.813c-2.987 12.8-5.547 26.453-7.68 40.107zM59.307 542.293l-42.667 8.96c-2.987-14.507-5.547-29.013-7.253-42.667l42.667-5.12c2.133 11.947 4.267 25.6 7.253 38.827zM49.493 420.693c0 8.107 0 16.213 0 24.747v15.787h-42.667v-17.493c0-9.387 0-18.347 0-27.307zM263.253 4.693c10.549-6.214 23.572-12.916 36.958-18.955l2.722-1.099 17.493 36.693c-12.373 5.547-24.32 11.947-36.267 18.347zM599.467-9.387l8.107-42.667c14.933 2.987 29.013 6.4 42.667 10.667l-11.947 42.667c-9.998-3.521-23-7.194-36.261-10.181l-2.566-0.486zM677.973 12.8l15.36-39.68c13.653 5.12 27.307 11.093 40.533 17.493l-18.773 38.4c-9.827-5.148-22.064-10.607-34.637-15.385l-2.483-0.828zM518.4-17.92v-42.667c14.933 0 29.867 0 42.667 2.56l-4.267 42.667c-11.093-1.28-24.32-2.133-38.4-2.56zM430.507-53.76c14.507-2.56 29.44-4.267 42.667-5.547l2.987 42.667c-13.653 0-27.307 2.56-40.533 4.693zM344.32-32c13.653-4.693 28.16-9.387 42.667-12.8l10.24 42.667c-13.227 3.413-26.027 7.253-38.827 11.52zM750.933 48.64l22.187-36.693c12.8 7.68 25.173 16.213 37.12 24.747l-25.173 34.56c-9.755-7.375-20.897-14.843-32.45-21.69l-1.683-0.923zM972.373 494.080l42.667 4.267c0 14.933-3.84 29.867-6.827 42.667l-42.667-8.107c3.413-11.947 5.547-25.173 6.827-38.827zM957.013 573.867l42.667 11.947q-6.4 21.76-14.080 42.667l-40.107-15.36c3.413-13.227 7.68-26.027 11.52-39.253zM963.413 341.333l42.667-9.387c2.56 11.093 4.693 22.187 6.827 33.28l-42.667 6.827c-2.56-9.387-4.693-20.48-6.827-30.72zM927.573 649.813l38.4 18.773c-6.827 13.653-14.080 26.453-21.76 39.253l-36.267-22.187c6.827-11.52 13.653-24.32 19.627-35.84zM974.933 445.44c0-11.093 0-22.187 0-32.853l42.667-2.987c0 11.947 0 23.467 0 35.413v8.96h-42.667zM791.040 866.987c-12.373 8.107-24.747 15.787-37.973 23.040l-20.48-37.547c14.018-7.116 25.605-13.919 36.761-21.321l-1.348 0.841zM860.587 811.52c-10.226 9.902-21.072 19.395-32.381 28.329l-0.899 0.685-26.88-33.28q16.213-12.8 30.72-26.88zM885.333 719.36l34.133 25.173c-8.533 11.947-17.92 23.467-27.733 34.987l-32-28.587c8.628-9.503 17.022-19.792 24.861-30.514l0.739-1.060zM1033.387 293.973c-1.624 3.309-4.97 5.547-8.838 5.547-0.043 0-0.086 0-0.129-0.001h-331.513c-0.036 0-0.079 0.001-0.122 0.001-3.868 0-7.214-2.238-8.812-5.49l-0.026-0.058c-0.905-1.458-1.442-3.226-1.442-5.12s0.536-3.662 1.466-5.162l-0.024 0.042 68.267-102.4c-5.119 4.623-11.936 7.452-19.413 7.452s-14.294-2.829-19.439-7.474l0.025 0.023-28.16-28.16 14.507-14.507 28.16 28.16c1.605 1.534 3.786 2.479 6.187 2.479s4.581-0.944 6.19-2.482l14.504-14.504c5.425-5.534 12.979-8.964 21.333-8.964s15.908 3.43 21.329 8.959l14.512 14.512c1.673 1.367 3.833 2.196 6.187 2.196s4.514-0.828 6.204-2.21l-0.018 0.014 14.507-14.507c5.318-5.757 12.906-9.35 21.333-9.35s16.015 3.593 21.315 9.33l0.018 0.020 14.507 14.507c1.673 1.367 3.833 2.196 6.187 2.196s4.514-0.828 6.204-2.21l-0.018 0.014 14.507-14.507c5.425-5.534 12.979-8.964 21.333-8.964s15.908 3.43 21.329 8.959l14.512 14.512c1.605 1.534 3.786 2.479 6.187 2.479s4.581-0.944 6.19-2.482l28.157-28.157 14.507 14.507-28.16 28.16c-5.119 4.623-11.936 7.452-19.413 7.452s-14.294-2.829-19.439-7.474l0.025 0.023 68.267 102.4c0.261 0.842 0.412 1.81 0.412 2.813 0 2.962-1.312 5.617-3.386 7.416l-0.012 0.010zM932.693 170.667s0 0 0-2.56l-11.52 11.52c-5.425 5.534-12.979 8.964-21.333 8.964s-15.908-3.43-21.329-8.959l-14.512-14.512c-1.605-1.534-3.786-2.479-6.187-2.479s-4.581 0.944-6.19 2.482l-14.504 14.504c-5.425 5.534-12.979 8.964-21.333 8.964s-15.908-3.43-21.329-8.959l-11.525-11.525s0 0 0 2.56l-70.4 106.667h292.267zM962.133 138.24l-14.507-14.507c-1.605-1.534-3.786-2.479-6.187-2.479s-4.581 0.944-6.19 2.482l-14.504 14.504c-5.425 5.534-12.979 8.964-21.333 8.964s-15.908-3.43-21.329-8.959l-14.512-14.512c-1.605-1.534-3.786-2.479-6.187-2.479s-4.581 0.944-6.19 2.482l-14.504 14.504c-5.425 5.534-12.979 8.964-21.333 8.964s-15.908-3.43-21.329-8.959l-14.512-14.512c-1.605-1.534-3.786-2.479-6.187-2.479s-4.581 0.944-6.19 2.482l-14.504 14.504c-5.318 5.757-12.906 9.35-21.333 9.35s-16.015-3.593-21.315-9.33l-0.018-0.020-28.16-28.16 14.507-14.507 28.16 28.16c1.605 1.534 3.786 2.479 6.187 2.479s4.581-0.944 6.19-2.482l14.504-14.504c5.425-5.534 12.979-8.964 21.333-8.964s15.908 3.43 21.329 8.959l0.005 0.005 16.64 14.507c1.673 1.367 3.833 2.196 6.187 2.196s4.514-0.828 6.204-2.21l-0.018 0.014 14.507-14.507c5.318-5.757 12.906-9.35 21.333-9.35s16.015 3.593 21.315 9.33l0.018 0.020 15.787 14.507c1.673 1.367 3.833 2.196 6.187 2.196s4.514-0.828 6.204-2.21l-0.018 0.014 14.507-14.507c5.425-5.534 12.979-8.964 21.333-8.964s15.908 3.43 21.329 8.959l14.512 14.512c1.605 1.534 3.786 2.479 6.187 2.479s4.581-0.944 6.19-2.482l28.157-28.157 14.507 14.507-28.16 28.16c-5.361 6.478-13.402 10.574-22.4 10.574s-17.039-4.096-22.361-10.525l-0.039-0.048zM137.813 277.333h-60.16l-42.667-81.92h102.4zM113.067 219.307h-37.973l17.92 34.56h20.053zM135.68 142.933c-23.564 0-42.667-19.103-42.667-42.667s19.103-42.667 42.667-42.667c23.564 0 42.667 19.103 42.667 42.667v0c0 23.564-19.103 42.667-42.667 42.667v0zM135.68 84.48c-9.566 0.232-17.261 7.927-17.493 17.471v0.022c0 9.661 7.832 17.493 17.493 17.493v0c9.661 0 17.493-7.832 17.493-17.493v0c0-9.661-7.832-17.493-17.493-17.493v0zM354.987 179.627l-0.427 0.853h-50.347l-19.627-18.347h-67.84l-40.107 47.787v107.52h-123.733l-54.613-110.507-0.427-68.267h58.027v-19.2h23.893v42.667h-58.453v38.827l46.080 93.013h85.76v-92.587l52.053-61.867 0.427-0.853h88.747l19.2 17.92h31.147l18.773-17.493 0.427-0.427h41.387v-19.2h23.467v42.667h-55.040l-18.773 17.493zM192 123.733h81.92v-23.467h-81.92v23.467zM370.773 101.973c0 23.564-19.103 42.667-42.667 42.667s-42.667-19.103-42.667-42.667c0-23.564 19.103-42.667 42.667-42.667v0c23.564 0 42.667 19.103 42.667 42.667v0zM328.107 84.48c-9.661 0-17.493 7.832-17.493 17.493v0c0 9.661 7.832 17.493 17.493 17.493v0c9.661 0 17.493-7.832 17.493-17.493v0c-0.156-9.019-6.951-16.405-15.7-17.485l-0.087-0.009z" />
<glyph unicode="&#xe91d;" glyph-name="NotificationLog" d="M566.187 965.12h-448v-1035.093h787.627v691.2zM578.56 891.733l246.613-249.6h-246.613zM863.147-27.307h-702.293v950.613h375.040v-323.84h327.253zM512 561.493c-1.032 0.028-2.248 0.045-3.467 0.045-73.128 0-132.658-58.219-134.769-130.837l-0.004-0.195v-100.693c0-12.96-10.506-23.467-23.467-23.467v0h-48.64v-137.387h112.64c5.266-50.199 46.741-89.165 97.579-90.451l0.128-0.003c50.425 1.939 91.225 40.676 96.39 90.018l0.037 0.435h114.773v137.387h-47.36c-13.011 0.24-23.467 10.844-23.467 23.89 0 0.001 0 0.003 0 0.004v0 99.84c-1.843 73.031-61.483 131.529-134.786 131.529-1.965 0-3.92-0.042-5.865-0.125l0.278 0.009zM512 106.667c-33.974 1.544-61.575 26.947-66.512 59.772l-0.048 0.388h132.693c-4.955-33.077-32.338-58.411-65.962-60.153l-0.172-0.007zM621.227 427.52v-99.84c1.843-28.189 25.159-50.355 53.652-50.355 0.338 0 0.675 0.003 1.012 0.009l-0.050-0.001h16.213v-76.8h-81.067v64.427l-8.107 4.267c-15.668 12.010-26.021 30.279-27.297 51.003l-0.010 0.197v98.133c0 36.76-29.8 66.56-66.56 66.56v-30.293c20.030 0 36.267-16.237 36.267-36.267v0-98.56c1.609-28.758 14.952-54.113 35.278-71.566l0.135-0.114v-48.64h-248.747v77.653h16.213c29.691 0 53.76 24.069 53.76 53.76v0 100.267c3.435 55.89 49.602 99.916 106.052 99.916 1.417 0 2.827-0.028 4.23-0.083l-0.202 0.006c0.666 0.015 1.45 0.024 2.236 0.024 57.032 0 103.568-44.94 106.129-101.34l0.008-0.231z" />
<glyph unicode="&#xe91e;" glyph-name="Road" d="M298.667 618.667h-125.013l-88.32-170.667h213.333zM256 490.667h-98.56l42.667 85.333h55.893zM298.667 320c-47.128 0-85.333-38.205-85.333-85.333s38.205-85.333 85.333-85.333c47.128 0 85.333 38.205 85.333 85.333v0c0 47.128-38.205 85.333-85.333 85.333v0zM298.667 192c-23.564 0-42.667 19.103-42.667 42.667s19.103 42.667 42.667 42.667c23.564 0 42.667-19.103 42.667-42.667v0c0-23.564-19.103-42.667-42.667-42.667v0zM0 149.333h1024v-42.667h-1024v42.667zM778.24 402.347h-107.52l-42.667-39.68h-152.747l-90.88 107.52-0.427 233.813h-264.533l-119.467-240.64v-143.36h128v-42.667h42.667v85.333h-128v90.453l102.827 208.213h195.84l0.427-206.507 113.067-134.827h191.147l42.667 39.68h71.68l42.667-39.68h93.013v-42.667h42.667v85.333h-118.187l-42.24 39.68zM426.667 277.333h170.667v-42.667h-170.667v42.667zM853.333 832h-256c-94.257 0-170.667-76.41-170.667-170.667v0-42.667c0-94.257 76.41-170.667 170.667-170.667v0h256c94.257 0 170.667 76.41 170.667 170.667v0 42.667c0 94.257-76.41 170.667-170.667 170.667v0zM981.333 618.667c0-70.692-57.308-128-128-128v0h-256c-70.692 0-128 57.308-128 128v0 42.667c0 70.692 57.308 128 128 128v0h256c70.692 0 128-57.308 128-128v0zM725.333 320c-47.128 0-85.333-38.205-85.333-85.333s38.205-85.333 85.333-85.333c47.128 0 85.333 38.205 85.333 85.333v0c0 47.128-38.205 85.333-85.333 85.333v0zM725.333 192c-23.564 0-42.667 19.103-42.667 42.667s19.103 42.667 42.667 42.667c23.564 0 42.667-19.103 42.667-42.667v0c0-23.564-19.103-42.667-42.667-42.667v0z" />
<glyph unicode="&#xe91f;" glyph-name="Rail" d="M830.293 855.467h-636.587c-106.839-0.723-193.226-87.26-193.707-194.087v-104.153c0 0 0-0.001 0-0.002 0-107.152 86.622-194.073 193.66-194.558h636.633c107.085 0.485 193.707 87.406 193.707 194.558 0 0.001 0 0.001 0 0.002v0 104.107c-0.48 106.873-86.868 193.411-193.638 194.133h-0.069zM164.693 408.32c-70.072 14.423-122.016 75.597-122.027 148.905v104.108c0.057 73.66 52.391 135.080 121.902 149.168l0.978 0.165zM331.52 405.333h-124.16v69.973h124.16zM331.52 517.973h-124.16v46.507h124.16zM331.52 607.147h-124.16v46.507h124.16zM331.52 696.32h-124.16v46.507h124.16zM331.52 785.493h-124.16v27.307h124.16zM981.333 557.227c-0.238-83.493-67.616-151.17-150.971-151.893h-456.176v407.467h456.107c83.275-0.721 150.561-68.157 151.040-151.421v-0.046zM736.853 618.667l-54.187-55.467v140.8c0 11.782-9.551 21.333-21.333 21.333s-21.333-9.551-21.333-21.333v0-140.8l-54.187 55.467c-3.903 3.654-9.149 5.916-14.922 5.973h-0.011c-11.652-0.169-21.034-9.655-21.034-21.331 0-5.817 2.328-11.090 6.104-14.939l90.45-90.45c3.745-3.984 9.050-6.465 14.933-6.465s11.188 2.481 14.923 6.454l0.010 0.011 91.733 89.173c4.298 3.917 6.984 9.538 6.984 15.787s-2.686 11.87-6.967 15.771l-0.017 0.015c-3.903 4.161-9.435 6.753-15.573 6.753s-11.671-2.592-15.563-6.742l-0.011-0.012zM0 292.693h153.6c-20.55-17.56-33.493-43.503-33.493-72.469 0-52.548 42.599-95.147 95.147-95.147s95.147 42.599 95.147 95.147c0 28.966-12.944 54.909-33.362 72.36l-0.131 0.109h469.333c-20.55-17.56-33.493-43.503-33.493-72.469 0-52.548 42.599-95.147 95.147-95.147s95.147 42.599 95.147 95.147c0 28.966-12.944 54.909-33.362 72.36l-0.131 0.109h154.453v42.667h-1024zM810.667 273.493c0.127 0.001 0.277 0.002 0.427 0.002 28.984 0 52.48-23.496 52.48-52.48s-23.496-52.48-52.48-52.48c-28.983 0-52.479 23.495-52.48 52.478v0c0 0.001 0 0.001 0 0.002 0 28.834 23.254 52.237 52.030 52.478h0.023zM217.6 273.493c28.984 0 52.48-23.496 52.48-52.48s-23.496-52.48-52.48-52.48c-28.984 0-52.48 23.496-52.48 52.48v0c0 0.013 0 0.028 0 0.043 0 28.234 22.295 51.26 50.24 52.433l0.106 0.004zM426.667 917.333h170.667v-42.667h-170.667v42.667zM0 106.667h1024v-42.667h-1024v42.667z" />
<glyph unicode="&#xe920;" glyph-name="About" d="M512 898.11c-247.56 0-450.11-202.549-450.11-450.11s202.549-450.11 450.11-450.11c247.56 0 450.11 202.549 450.11 450.11s-202.549 450.11-450.11 450.11zM512 71.033c-208.176 0-376.967 168.791-376.967 376.967s168.791 376.967 376.967 376.967c208.176 0 376.967-168.791 376.967-376.967s-168.791-376.967-376.967-376.967zM483.868 504.264h56.264v-292.571h-56.264v292.571zM483.868 684.308h56.264v-90.022h-56.264v90.022z" />
<glyph unicode="&#xe921;" glyph-name="Pipeline" d="M512 477.867c103.682 0 187.733-84.051 187.733-187.733s-84.051-187.733-187.733-187.733c-103.682 0-187.733 84.051-187.733 187.733v0c0 103.682 84.051 187.733 187.733 187.733v0zM512 520.533c-127.246 0-230.4-103.154-230.4-230.4s103.154-230.4 230.4-230.4c127.246 0 230.4 103.154 230.4 230.4v0c0 127.246-103.154 230.4-230.4 230.4v0zM762.027 354.133h40.96v-128h-40.96v128zM835.413 430.933h40.96v-281.6h-40.96v281.6zM909.227 430.933h40.96v-281.6h-40.96v281.6zM983.040 354.133h40.96v-128h-40.96v128zM0 354.133h40.96v-128h-40.96v128zM73.813 430.933h40.96v-281.6h-40.96v281.6zM147.627 430.933h40.96v-281.6h-40.96v281.6zM221.013 354.133h40.96v-128h-40.96v128zM450.56 836.267h122.88v-42.667h-122.88v42.667zM376.747 759.467h270.507v-42.667h-270.507v42.667zM376.747 682.667h270.507v-42.667h-270.507v42.667zM450.56 605.867h122.88v-42.667h-122.88v42.667z" />
<glyph unicode="&#xe922;" glyph-name="Shipment" d="M957.44 506.453l-296.107 453.547-184.32-281.6-178.347 281.6-244.48-386.56c-33.889-47.421-54.187-106.577-54.187-170.474 0-0.068 0-0.135 0-0.203v0.010c0-164.949 133.718-298.667 298.667-298.667v0c3.423-0.132 7.443-0.207 11.48-0.207 14.758 0 29.281 1.006 43.505 2.952l-1.652-0.185c64.619-105.291 179.116-174.46 309.769-174.46 200.060 0 362.24 162.18 362.24 362.24 0 0.884-0.003 1.767-0.009 2.649l0.001-0.135c0.002 0.471 0.004 1.029 0.004 1.587 0 77.996-24.944 150.167-67.291 208.968l0.727-1.062zM298.667 146.347c-141.35 0.046-255.92 114.643-255.92 256 0 55.323 17.549 106.547 47.383 148.41l-0.53-0.783 209.067 331.52 152.747-242.347-87.467-134.4c-40.839-57.649-65.281-129.424-65.281-206.907 0-0.309 0-0.618 0.001-0.928v0.048c0.020-53.559 11.971-104.323 33.338-149.784l-0.911 2.157c-9.417-1.518-20.605-2.589-31.968-2.974l-0.459-0.012zM661.333-24.32c-176.708 0.342-319.826 143.671-319.826 320.426 0 68.499 21.494 131.978 58.106 184.061l-0.68-1.020 262.4 403.2 260.693-399.787c36.355-51.219 58.118-115.016 58.118-183.896 0-176.313-142.592-319.322-318.746-319.998h-0.064zM676.267 505.6c-1.777 2.119-4.084 3.739-6.719 4.661l-0.108 0.033c-2.397 1.012-5.183 1.6-8.107 1.6s-5.71-0.588-8.247-1.653l0.141 0.052c-2.742-0.955-5.049-2.574-6.807-4.67l-0.019-0.024-157.44-157.013c-3.876-3.876-6.274-9.232-6.274-15.147 0-11.83 9.59-21.421 21.421-21.421 5.915 0 11.27 2.398 15.147 6.274l120.747 120.747v-311.040c0-11.782 9.551-21.333 21.333-21.333s21.333 9.551 21.333 21.333v0 311.040l120.747-119.040c3.903-3.654 9.149-5.916 14.922-5.973h0.011c5.925 0.031 11.315 2.294 15.379 5.99l-0.019-0.017c3.797 3.912 6.137 9.256 6.137 15.147s-2.341 11.234-6.142 15.152l0.005-0.005z" />
<glyph unicode="&#xe923;" glyph-name="Reciept" d="M957.44 506.453l-296.107 453.547-184.32-281.6-178.347 281.6-244.48-386.56c-33.889-47.421-54.187-106.577-54.187-170.474 0-0.068 0-0.135 0-0.203v0.010c0-164.949 133.718-298.667 298.667-298.667v0c3.423-0.132 7.443-0.207 11.48-0.207 14.758 0 29.281 1.006 43.505 2.952l-1.652-0.185c64.619-105.291 179.116-174.46 309.769-174.46 200.060 0 362.24 162.18 362.24 362.24 0 0.884-0.003 1.767-0.009 2.649l0.001-0.135c0.002 0.471 0.004 1.029 0.004 1.587 0 77.996-24.944 150.167-67.291 208.968l0.727-1.062zM298.667 146.347c-141.35 0.046-255.92 114.643-255.92 256 0 55.323 17.549 106.547 47.383 148.41l-0.53-0.783 209.067 331.52 152.747-242.347-87.467-134.4c-40.839-57.649-65.281-129.424-65.281-206.907 0-0.309 0-0.618 0.001-0.928v0.048c0.020-53.559 11.971-104.323 33.338-149.784l-0.911 2.157c-9.417-1.518-20.605-2.589-31.968-2.974l-0.459-0.012zM661.333-24.32c-176.708 0.342-319.826 143.671-319.826 320.426 0 68.499 21.494 131.978 58.106 184.061l-0.68-1.020 262.4 403.2 260.693-399.787c36.355-51.219 58.118-115.016 58.118-183.896 0-176.313-142.592-319.322-318.746-319.998h-0.064zM488.96 270.080l157.44-157.013c1.777-2.119 4.084-3.739 6.719-4.661l0.108-0.033c2.397-1.012 5.183-1.6 8.107-1.6s5.71 0.588 8.247 1.653l-0.141-0.052c2.742 0.955 5.049 2.574 6.807 4.67l0.019 0.024 157.44 157.013c3.771 3.845 6.098 9.117 6.098 14.933s-2.327 11.088-6.102 14.937l0.003-0.003c-3.867 3.898-9.225 6.31-15.147 6.31s-11.28-2.413-15.145-6.309l-0.001-0.001-120.747-120.32v311.040c0 11.782-9.551 21.333-21.333 21.333s-21.333-9.551-21.333-21.333v0-311.040l-120.747 120.32c-3.781 3.92-9.068 6.365-14.927 6.4h-0.007c-6.003-0.015-11.432-2.459-15.359-6.399l-0.001-0.001c-3.771-3.845-6.098-9.117-6.098-14.933s2.327-11.088 6.102-14.937l-0.003 0.003z" />
<glyph unicode="&#xe924;" glyph-name="Transactions" d="M512 743.68l-17.92-28.16c-17.067-26.88-168.107-264.533-168.107-358.827 0-102.74 83.287-186.027 186.027-186.027s186.027 83.287 186.027 186.027v0c0 94.293-151.040 331.947-168.107 358.827zM512 213.333c-79.078 0.242-143.118 64.282-143.36 143.337v0.023c0 61.44 91.307 222.293 143.36 307.2 52.053-85.333 143.36-245.76 143.36-307.2-0.242-79.078-64.282-143.118-143.337-143.36h-0.023zM512 917.333c144.109-0.776 272.657-66.737 357.764-169.873l0.636-0.794h-187.733v-42.667h256v256h-42.667v-178.347c-93.092 108.978-230.455 177.783-383.903 178.346h-0.097c-282.77 0-512-229.23-512-512v0h42.667c0 259.206 210.128 469.333 469.333 469.333v0zM981.333 448c-2.452-257.335-211.631-465-469.313-465-143.397 0-271.774 64.31-357.863 165.661l-0.557 0.673h187.733v42.667h-256v-256h42.667v183.467c93.254-109.048 230.369-178.245 383.689-180.050l0.311-0.003c0.003 0 0.007 0 0.011 0 281.57 0 510.053 227.288 511.988 508.402l0.001 0.184z" />
<glyph unicode="&#xe925;" glyph-name="Administration" d="M1021.44 354.56v191.573l-128 42.667-9.387 21.333 63.147 123.733-141.227 140.8-116.48-59.733-21.76 10.24-52.48 134.827h-14.080c-174.507 0-174.507 0-179.2-11.947l-37.973-112.64-35.413-14.507-124.16 61.867-131.413-131.84 57.6-123.307-16.213-39.68-131.84-45.653 3.413-179.627 128-49.067 16.64-42.667-56.32-126.72 128-128 125.013 61.867 36.693-14.080 45.653-128 191.147 7.68 40.107 128 26.88 11.52 124.587-57.6 133.547 139.947-61.44 124.587 6.4 17.493zM896 171.947l-93.013-97.28-114.773 52.907-61.013-26.88-37.12-118.613-131.413-5.547-42.667 118.187-69.547 29.013-115.2-56.747-85.333 85.333 52.053 114.773-29.867 75.947-121.173 46.933-2.133 122.88 120.747 42.667 30.293 73.813-53.333 113.067 90.453 89.6 114.773-56.747 70.4 29.44 38.4 115.2h130.133l48.213-128 55.467-26.027 107.947 57.173 97.707-97.28-56.32-113.92 24.32-55.893 115.627-39.253v-133.12l-120.32-44.8-19.2-52.053zM512 648.533c-109.568-0.007-198.389-88.831-198.389-198.4 0-109.573 88.827-198.4 198.4-198.4 108.823 0 197.183 87.615 198.388 196.153l0.001 0.114c0.007 0.634 0.011 1.383 0.011 2.133 0 109.573-88.827 198.4-198.4 198.4-0.004 0-0.008 0-0.012 0h0.001zM512 293.12c-86.943 0.012-157.419 70.496-157.419 157.44 0 86.952 70.488 157.44 157.44 157.44s157.44-70.488 157.44-157.44c0-0.9-0.008-1.799-0.023-2.695l0.002 0.135c-1.203-85.794-71.033-154.881-156.999-154.881-0.155 0-0.31 0-0.465 0.001h0.024z" />
<glyph unicode="&#xe926;" glyph-name="ProductInfo" d="M333.653 341.333c94.257 0 170.667 76.41 170.667 170.667v0c0 85.333-138.667 305.067-154.453 329.813l-17.92 28.16-17.92-28.16c-15.36-23.040-152.32-241.067-152.32-328.107-0.005-0.509-0.009-1.11-0.009-1.712 0-94.257 76.41-170.667 170.667-170.667 0.453 0 0.906 0.002 1.358 0.005h-0.069zM333.653 791.893c47.787-78.080 128-223.147 128-278.187 0-71.517-57.976-129.493-129.493-129.493s-129.493 57.976-129.493 129.493v0c1.707 55.040 83.2 200.107 130.987 278.187zM149.333 85.333h725.333v-42.667h-725.333v42.667zM149.333 238.933h725.333v-42.667h-725.333v42.667zM576 392.533h298.667v-42.667h-298.667v42.667zM576 546.133h298.667v-42.667h-298.667v42.667zM576 699.733h298.667v-42.667h-298.667v42.667zM576 853.333h298.667v-42.667h-298.667v42.667zM0 960v-1024h1024v1024zM981.333-21.333h-938.667v938.667h938.667z" />
<glyph unicode="&#xe927;" glyph-name="CompanyInfo" d="M149.333 85.333h725.333v-42.667h-725.333v42.667zM149.333 238.933h725.333v-42.667h-725.333v42.667zM165.547 501.76h320c8.769 0.238 15.787 7.403 15.787 16.208 0 0.002 0 0.004 0 0.006v0 55.893c0 0.002 0 0.005 0 0.007 0 4.995-2.32 9.449-5.942 12.342l-0.032 0.024-106.667 85.333c-2.458 1.398-5.399 2.222-8.533 2.222s-6.076-0.824-8.62-2.268l0.087 0.045c-5.292-2.795-8.86-8.223-8.96-14.493v-121.187h-21.333v275.2c0.001 0.081 0.002 0.176 0.002 0.271 0 6.238-3.617 11.63-8.869 14.194l-0.093 0.041c-2.458 1.398-5.399 2.222-8.533 2.222s-6.076-0.824-8.62-2.268l0.087 0.045-88.747-71.68c-3.657-2.917-5.979-7.373-5.979-12.371 0-0.151 0.002-0.301 0.006-0.451v0.022-103.68l-65.28-51.2c-3.653-2.917-5.973-7.371-5.973-12.366 0-0.003 0-0.005 0-0.008v0-55.893c0-8.954 7.259-16.213 16.213-16.213v0zM394.667 624.64l74.667-58.88v-32.427h-74.667zM252.587 733.44l56.747 42.667v-242.773h-56.747zM181.333 565.76l39.253 30.72v-63.147h-39.253zM149.333 392.533h725.333v-42.667h-725.333v42.667zM576 546.133h298.667v-42.667h-298.667v42.667zM576 699.733h298.667v-42.667h-298.667v42.667zM576 853.333h298.667v-42.667h-298.667v42.667zM0 960v-1024h1024v1024zM981.333-21.333h-938.667v938.667h938.667z" />
<glyph unicode="&#xe928;" glyph-name="CarrierDetails" d="M298.667 704h-125.013l-88.32-170.667h213.333zM256 576h-98.56l42.667 85.333h55.893zM384 320c0 47.128-38.205 85.333-85.333 85.333s-85.333-38.205-85.333-85.333c0-47.128 38.205-85.333 85.333-85.333v0c47.128 0 85.333 38.205 85.333 85.333v0zM256 320c0 23.564 19.103 42.667 42.667 42.667s42.667-19.103 42.667-42.667c0-23.564-19.103-42.667-42.667-42.667v0c-23.564 0-42.667 19.103-42.667 42.667v0zM905.813 447.573l-42.24 39.68h-107.52l-42.667-39.68h-238.080l-90.88 107.52-0.427 234.24h-264.533l-119.467-241.067v-143.36h128v-42.667h42.667v85.333h-128v90.453l102.827 208.64h195.84l0.427-206.933 113.067-134.827h276.48l42.667 39.68h71.68l42.667-39.68h93.013v-42.667h42.667v85.333h-118.187zM896 320c0 47.128-38.205 85.333-85.333 85.333s-85.333-38.205-85.333-85.333c0-47.128 38.205-85.333 85.333-85.333v0c47.128 0 85.333 38.205 85.333 85.333v0zM768 320c0 23.564 19.103 42.667 42.667 42.667s42.667-19.103 42.667-42.667c0-23.564-19.103-42.667-42.667-42.667v0c-23.564 0-42.667 19.103-42.667 42.667v0zM426.667 362.24h256v-42.667h-256v42.667zM597.333 533.333h256c94.257 0 170.667 76.41 170.667 170.667v0 42.667c0 94.257-76.41 170.667-170.667 170.667v0h-256c-94.257 0-170.667-76.41-170.667-170.667v0-42.667c0-94.257 76.41-170.667 170.667-170.667v0zM469.333 746.667c0 70.692 57.308 128 128 128v0h256c70.692 0 128-57.308 128-128v0-42.667c0-70.692-57.308-128-128-128v0h-256c-70.692 0-128 57.308-128 128v0zM256 149.333h768v-42.667h-768v42.667zM256 21.333h768v-42.667h-768v42.667zM0 149.333h170.667v-42.667h-170.667v42.667zM0 21.333h170.667v-42.667h-170.667v42.667z" />
<glyph unicode="&#xe929;" glyph-name="Home" d="M426.667 435.627h170.667v-371.627h-170.667zM194.56 644.693l317.44 180.48 314.453-179.2v-581.973h-186.453v415.147h-256v-415.147h-189.44zM512 874.667l-512-290.56 20.48-37.973 131.84 72.533v-597.333h717.653v600.747l133.547-75.947 20.48 37.973z" />
<glyph unicode="&#xe92a;" glyph-name="BOLOffice" d="M0 960v-1024h1024v1024zM42.667 631.467h358.827l61.013-94.293h-419.84zM412.587 470.613v-283.733h-356.267v283.733zM981.333-21.333h-938.667v141.227h629.76v51.2h-10.24v158.72l276.48 281.6-35.84 30.72-291.84-291.84h-46.080v-179.2h-79.787v298.667h105.813l-156.16 234.24h-392.107v213.333h938.667zM208.64 277.333l40.96-42.667 70.827 72.533-41.387 41.387 36.267 36.693-46.080 46.080-148.907-148.907 46.080-47.787 42.24 42.667z" />
<glyph unicode="&#xe92b;" glyph-name="DEU" d="M0 960v-1024h1024v1024zM963.413-3.413h-902.827v902.827h902.827zM218.88 219.733h79.787v-74.24c0.239-28.18 23.020-50.961 51.177-51.2h311.916c28.277 0 51.2 22.923 51.2 51.2v0 74.24h79.36v60.587h-573.44zM358.4 219.733h293.12v-64.853h-293.12zM609.707 815.787h-469.333v-395.52h469.333zM549.12 480.427h-349.013v274.773h349.013zM716.8 685.227c25.685 0 46.507 20.822 46.507 46.507s-20.822 46.507-46.507 46.507c-25.685 0-46.507-20.822-46.507-46.507v0c0-25.685 20.822-46.507 46.507-46.507v0zM847.36 685.227c25.501 0.241 46.080 20.97 46.080 46.505 0 25.685-20.822 46.507-46.507 46.507s-46.506-20.821-46.507-46.505v0c0-0.001 0-0.001 0-0.002 0-25.685 20.822-46.507 46.507-46.507 0.15 0 0.3 0.001 0.45 0.002h-0.023zM716.8 569.173c25.685 0 46.507 20.822 46.507 46.507s-20.822 46.507-46.507 46.507c-25.685 0-46.507-20.822-46.507-46.507v0c0-25.685 20.822-46.507 46.507-46.507v0zM847.36 569.173c25.501 0.241 46.080 20.97 46.080 46.505 0 25.685-20.822 46.507-46.507 46.507s-46.506-20.821-46.507-46.505v0c0-0.001 0-0.001 0-0.002 0-25.685 20.822-46.507 46.507-46.507 0.15 0 0.3 0.001 0.45 0.002h-0.023zM716.8 457.387c25.685 0 46.507 20.822 46.507 46.507s-20.822 46.507-46.507 46.507c-25.685 0-46.507-20.822-46.507-46.507v0c0-25.685 20.822-46.507 46.507-46.507v0zM847.36 457.387c25.501 0.241 46.080 20.97 46.080 46.505 0 25.685-20.822 46.507-46.507 46.507s-46.506-20.821-46.507-46.505v0c0-0.001 0-0.001 0-0.002 0-25.685 20.822-46.507 46.507-46.507 0.15 0 0.3 0.001 0.45 0.002h-0.023z" />
<glyph unicode="&#xe92c;" glyph-name="EntryGate" d="M0 468.48v0-532.48h1024v1024h-1024zM42.667 417.28h377.173v-430.080h-377.173zM981.333-21.333h-351.573v8.533h-10.24v158.72l276.48 281.6-35.84 30.72-291.84-291.84h-46.080v-179.2h-56.32v481.28h-423.253v448.853h938.667zM514.987 572.16l39.68-38.827 136.533 142.507-142.080 136.533-34.133-41.387 73.813-66.987-256-5.547v-51.2h256l-73.813-75.093z" />
<glyph unicode="&#xe92d;" glyph-name="ExitGate" d="M1024-64v1024h-1024v-1024h1024zM981.333-12.8h-372.053v430.080h372.053zM42.667-21.333v938.667h938.667v-448.853h-423.253v-481.28h-56.32v179.2h-46.080l-291.84 291.84-35.84-30.72 276.48-278.187v-162.133h-10.24v-8.533zM509.013 573.44l-73.813 73.813h256v51.2l-256 5.547 73.813 66.987-34.133 40.107-142.080-136.533 136.533-141.227 39.68 40.107z" />
<glyph unicode="&#xe92e;" glyph-name="Done" d="M387.84 176.64l-218.88 233.387 31.573 29.013 187.307-200.107 435.627 463.787 31.147-29.013-466.773-497.067z" />
<glyph unicode="&#xe92f;" glyph-name="ExportXls" d="M856.747 167.253v457.813l-203.52 203.093h-8.533c-9.387 0-229.973 6.827-288.853 0-21.404-2.102-40.024-12.563-52.801-28.028l-0.106-0.132c-9.681-13.331-15.487-30.023-15.487-48.070 0-3.358 0.201-6.67 0.592-9.923l-0.038 0.393v-251.733h-78.507c-26.863 0-48.64-21.777-48.64-48.64v0-227.413c0.242-26.679 21.925-48.213 48.638-48.213 0.001 0 0.001 0 0.002 0h77.653c0-7.253 0-14.933 0-24.32-0.025-0.721-0.040-1.569-0.040-2.421 0-21.913 9.549-41.597 24.713-55.115l0.073-0.064c15.967-12.97 36.544-20.824 58.955-20.824 2.827 0 5.625 0.125 8.389 0.37l-0.358-0.026c8.96 0 151.467-4.693 267.947-4.693 8.845-0.237 19.258-0.373 29.702-0.373 38.516 0 76.603 1.84 114.177 5.436l-4.786-0.37c23.572 2.824 43.803 15.187 57.014 33.055l0.159 0.225c9.484 15.035 15.112 33.328 15.112 52.934 0 6.020-0.531 11.916-1.547 17.644l0.089-0.605zM665.6 755.627l120.32-120.32c-26.453 0-59.733 0-85.333 0-19.138 0.539-34.447 16.182-34.447 35.4 0 1.66 0.114 3.293 0.335 4.892l-0.021-0.185zM203.52 215.040v227.413c0.229 3.11 2.809 5.547 5.958 5.547 0.005 0 0.011 0 0.016 0h401.066c0.004 0 0.009 0 0.014 0 3.384 0 6.155-2.627 6.385-5.953l0.001-0.020v-227.413c-0.23-3.346-3.001-5.973-6.386-5.973-0.005 0-0.010 0-0.015 0h-401.066c-0.005 0-0.010 0-0.015 0-3.299 0-5.973 2.674-5.973 5.973 0 0.15 0.006 0.299 0.016 0.446l-0.001-0.020zM807.68 122.88c-6.666-8.611-16.655-14.372-28.012-15.35l-0.148-0.010c-51.2-8.107-283.733-3.413-402.773 0-1.566-0.167-3.384-0.263-5.223-0.263-11.323 0-21.803 3.616-30.346 9.755l0.155-0.106c-6.122 5.907-9.924 14.183-9.924 23.348 0 0.943 0.040 1.876 0.119 2.799l-0.008-0.12c0 10.24 0 17.493 0 23.467h280.747c0.001 0 0.001 0 0.002 0 26.949 0 48.823 21.725 49.065 48.617v227.436c-0.463 26.742-22.25 48.243-49.060 48.243-0.603 0-1.203-0.011-1.8-0.032l0.086 0.002h-279.893v256c-0.127 1.312-0.199 2.836-0.199 4.378 0 9.266 2.614 17.922 7.145 25.27l-0.119-0.208c6.026 6.454 14.431 10.618 23.81 11.090l0.083 0.003c45.653 5.547 204.8 0 261.973 0v-111.36c-0.094-1.436-0.147-3.112-0.147-4.802 0-41.909 32.838-76.148 74.188-78.39l0.199-0.009h42.667c27.307 0 54.613 0 72.96 0v-431.36c0.759-3.48 1.193-7.477 1.193-11.576 0-9.823-2.496-19.063-6.888-27.121l0.148 0.297zM357.12 385.707h-30.293l-23.893-40.533-23.893 40.533h-32.853l38.4-58.88-40.96-60.587h30.293l26.453 40.96 26.027-40.96h32.853l-41.387 61.013 39.253 58.453zM404.907 385.707h-28.16v-119.467h90.027v23.467h-61.867v96zM534.187 336.213l-11.947 2.56c-3.217 0.659-6.072 1.691-8.714 3.073l0.181-0.086c-3.595 1.489-6.436 4.192-8.067 7.588l-0.040 0.092c-0.112 0.705-0.175 1.519-0.175 2.347s0.064 1.641 0.187 2.435l-0.011-0.088c0.477 3.852 2.947 7.031 6.331 8.507l0.069 0.027c3.571 2.469 7.994 3.945 12.761 3.945 0.765 0 1.521-0.038 2.267-0.112l-0.094 0.008c0.401 0.021 0.87 0.033 1.342 0.033 5.176 0 10.015-1.44 14.14-3.941l-0.121 0.068c4.237-2.551 7.689-6.003 10.166-10.108l0.074-0.132 19.2 12.373c-3.995 7.77-10.351 13.851-18.109 17.396l-0.237 0.097c-7.302 3.25-15.822 5.142-24.784 5.142-0.587 0-1.172-0.008-1.756-0.024l0.086 0.002c-0.459 0.014-0.998 0.022-1.539 0.022-6.329 0-12.4-1.102-18.033-3.126l0.372 0.117c-5.395-1.632-10.084-4.112-14.172-7.323l0.092 0.070c-3.641-3.195-6.642-7.015-8.859-11.305l-0.101-0.215c-1.749-4.284-2.832-9.247-2.985-14.444l-0.001-0.062c0-0.059-0.001-0.128-0.001-0.197 0-8.622 3.237-16.488 8.563-22.449l-0.029 0.033c7.432-7.3 17.094-12.352 27.871-14.043l0.289-0.037 11.947-2.987c5.378-0.85 10.149-2.964 14.155-6.028l-0.075 0.055c2.357-1.97 3.845-4.912 3.845-8.2 0-0.117-0.002-0.234-0.006-0.35v0.017c0-9.387-7.68-14.080-22.187-14.080-0.34-0.012-0.741-0.019-1.142-0.019-6.152 0-11.934 1.588-16.957 4.376l0.179-0.091c-5.158 3.032-9.341 7.215-12.286 12.214l-0.087 0.16-18.347-13.227c2.374-4.327 5.366-8 8.909-11.050l0.051-0.043c3.293-2.912 7.098-5.349 11.244-7.147l0.276-0.107c3.772-1.582 8.208-2.912 12.809-3.775l0.418-0.065c2.237-0.208 4.838-0.327 7.467-0.327s5.229 0.119 7.797 0.351l-0.331-0.024c1.124-0.077 2.437-0.12 3.76-0.12 11.928 0 23.028 3.547 32.303 9.644l-0.222-0.137c7.591 6.071 12.412 15.332 12.412 25.719 0 0.558-0.014 1.113-0.041 1.665l0.003-0.078c0.008 0.252 0.012 0.548 0.012 0.846 0 8.358-3.433 15.915-8.967 21.336l-0.005 0.005c-8.558 6.973-19.191 11.716-30.843 13.195l-0.304 0.032z" />
<glyph unicode="&#xe930;" glyph-name="Bay" d="M128 128c0-29.867 25.6-51.2 51.2-51.2s51.2 25.6 51.2 51.2v17.067c4.267 0 4.267 0 4.267 0 29.867-17.067 59.733-25.6 93.867-21.333 8.533 0 17.067 0 29.867 0 8.533 0 17.067 0 29.867 0 17.067 0 29.867 4.267 38.4 8.533 4.267 4.267 12.8 8.533 21.333 8.533v-12.8c0-29.867 25.6-51.2 51.2-51.2s51.2 25.6 51.2 51.2v21.333c21.333 4.267 29.867 17.067 29.867 46.933 0 59.733 0 115.2 0 170.667v0 81.067c0 72.533 0 136.533 0 221.867 0 8.533 0 25.6-12.8 34.133-8.533 8.533-21.333 12.8-29.867 8.533-132.267 0-264.533 0-401.067 0-8.533 0-21.333 0-29.867-8.533-8.533-12.8-8.533-25.6-8.533-34.133 0-51.2 0-89.6 0-132.267v-192c0-51.2 0-106.667 0-153.6 0-8.533 0-25.6 12.8-34.133 4.267-4.267 8.533-8.533 17.067-12.8v-17.067zM192 128c0-4.267-4.267-12.8-12.8-12.8-4.267 0-12.8 4.267-12.8 12.8v17.067c8.533 0 17.067 0 21.333 0v-17.067h4.267zM512 128c0-4.267-4.267-12.8-12.8-12.8s-12.8 4.267-12.8 12.8v17.067h4.267c8.533 0 12.8 0 21.333 0v-17.067zM541.867 256h-68.267c8.533 12.8 21.333 21.333 29.867 29.867 0 0 4.267 0 8.533 0 8.533 0 12.8 0 21.333 0 4.267 0 8.533 0 12.8 0-4.267-8.533-4.267-17.067-4.267-29.867zM541.867 328.533c-12.8 0-21.333 0-29.867 0s-21.333 0-29.867-8.533c-17.067-17.067-34.133-34.133-51.2-46.933-8.533-8.533-12.8-21.333-8.533-34.133s12.8-17.067 29.867-21.333c8.533 0 17.067 0 29.867 0h64c0-8.533 0-17.067 0-25.6v-4.267h-12.8c-8.533 0-21.333 0-29.867 0-34.133 4.267-59.733-4.267-89.6-21.333-4.267 0-8.533-4.267-17.067-4.267s-17.067 0-25.6 0c-12.8 0-21.333 0-34.133 0-29.867-4.267-51.2 4.267-72.533 17.067-12.8 8.533-25.6 8.533-34.133 8.533-17.067 0-29.867 0-46.933 0-12.8 0-25.6 0-38.4 0v0c0 0 0 0 0 4.267 0 8.533 0 17.067 0 25.6h64c8.533 0 21.333 0 29.867 0 12.8 0 25.6 8.533 29.867 21.333s0 21.333-8.533 34.133c-17.067 17.067-29.867 34.133-51.2 46.933-8.533 8.533-21.333 8.533-29.867 8.533s-21.333 0-29.867 0c0 4.267 0 8.533 0 12.8v21.333c8.533-4.267 17.067-4.267 25.6-4.267h337.067c8.533 0 17.067 0 25.6 4.267 4.267-8.533 4.267-21.333 4.267-34.133zM140.8 256c0 8.533 0 21.333 0 29.867 8.533 0 21.333 0 29.867 0 0 0 8.533 0 4.267 0 12.8-8.533 21.333-21.333 34.133-34.133h-68.267v4.267zM140.8 537.6c0 12.8 12.8 25.6 25.6 25.6h345.6c17.067 0 25.6-12.8 25.6-25.6v0c0-25.6 0-51.2 0-76.8v-34.133c0-17.067-12.8-25.6-25.6-25.6h-345.6c-12.8 0-25.6 8.533-25.6 25.6v29.867c0 25.6 0 51.2 0 81.067zM140.8 674.133v0c132.267 0 268.8 0 401.067 0v0c0 0 0 0 0-4.267 0-25.6 0-51.2 0-72.533-8.533 4.267-17.067 4.267-25.6 4.267h-349.867c-8.533 0-17.067 0-25.6-4.267 0 21.333 0 46.933 0 76.8-4.267-4.267-4.267-4.267 0 0zM302.933 273.067h76.8v-42.667h-76.8v42.667zM925.867 268.8v473.6c0 72.533-59.733 132.267-132.267 132.267h-21.333c-42.667 0-76.8-21.333-102.4-51.2h-366.933v-72.533h42.667v34.133h302.933c-4.267-12.8-8.533-25.6-8.533-42.667v-473.6c0-68.267 55.467-123.733 123.733-128v-76.8h-644.267v-42.667h785.067v42.667h-102.4v76.8c68.267 4.267 123.733 59.733 123.733 128zM682.667 268.8v473.6c0 51.2 42.667 89.6 89.6 89.6h21.333c51.2 0 89.6-38.4 89.6-89.6v-473.6c0-51.2-38.4-89.6-89.6-89.6h-21.333c-46.933 0-89.6 42.667-89.6 89.6z" />
<glyph unicode="&#xe931;" glyph-name="BCU" d="M42.667 763.733v-631.467h938.667v631.467h-938.667zM925.867 187.733h-827.733v520.533h827.733v-520.533zM601.6 627.2h-430.933v-362.667h430.933v362.667zM546.133 324.267h-320v247.467h320v-247.467zM793.6 426.667h81.067v-81.067h-81.067v81.067zM793.6 554.667h81.067v-81.067h-81.067v81.067zM652.8 426.667h81.067v-81.067h-81.067v81.067zM652.8 554.667h81.067v-81.067h-81.067v81.067z" />
</font>
</defs>
</svg>
