<?xml version="1.0" standalone="no"?>
<!DOCTYPE svg PUBLIC "-//W3C//DTD SVG 1.1//EN" "http://www.w3.org/Graphics/SVG/1.1/DTD/svg11.dtd" >
<svg xmlns="http://www.w3.org/2000/svg">
<metadata>
<json>
<![CDATA[
{
	"fontFamily": "Honeywell-Flight",
	"majorVersion": 1,
	"minorVersion": 0,
	"copyright": "Honeywell International",
	"version": "Version 1.0",
	"fontId": "Honeywell-Flight",
	"psName": "Honeywell-Flight",
	"subFamily": "Regular",
	"fullName": "Honeywell-Flight",
	"description": "Font generated by IcoMoon."
}
]]>
</json>
</metadata>
<defs>
<font id="Honeywell-Flight" horiz-adv-x="1024">
<font-face units-per-em="1024" ascent="960" descent="-64" />
<missing-glyph horiz-adv-x="1024" />
<glyph unicode="&#x20;" horiz-adv-x="512" d="" />
<glyph unicode="&#xe92a;" glyph-name="ac-atr" data-tags="ac-atr" d="M512 874.667c15.076 0 32-55.609 32-85.333v-173.369l160-96.853v101.689l1.991 3.982h38.684l1.991-3.84v-128l149.333-90.453v-64.569l-352 128v-337.92l85.333-64v-29.724l-117.333 31.147-119.609-31.431v30.009l85.333 64v338.347l-349.724-128v64.427l149.333 90.738v128l1.991 3.982h38.684l1.849-3.84-0.853-102.542 159.716 96.711s1.28 153.316 1.28 173.511c0 29.724 16.924 85.333 32 85.333zM512 917.333c-61.867 0-74.667-107.947-74.667-128s-1.138-149.333-1.138-149.333l-73.956-44.942v35.84l-18.347 36.551h-90.88l-18.347-36.551v-113.778l-149.333-90.311v-149.476l349.724 128v-256l-85.333-64v-106.667l162.276 42.667 160-42.667v106.667l-85.333 64v256l352-128v149.191l-149.902 90.88v113.778l-18.347 36.551h-90.738l-18.347-36.836v-36.124l-74.667 45.227v149.333c0 20.48-12.8 128-74.667 128v0z" />
<glyph unicode="&#xe92b;" glyph-name="ac-bga" data-tags="ac-bga" d="M512 874.667c28.444 0 32-29.867 32-42.667v-216.036l20.48-12.516 331.52-200.96v-64.569l-351.573 128.427v-189.013h74.24v-46.364l-17.636-17.636h-56.889v-85.333l85.333-64v-29.724l-106.382 28.444-11.093 2.702-10.951-2.844-108.658-28.444v29.867l85.333 64v85.333h-54.756l-17.636 17.636v46.364h72.391v189.013l-56.889-21.049-292.836-106.951v64.427l350.72 213.191v23.751s1.28 149.618 1.28 192.284c0 12.8 3.129 42.667 32 42.667zM512 917.333c-51.342 0-74.667-42.667-74.667-85.333s-1.138-192-1.138-192l-350.862-213.191v-149.476l349.724 128v-85.333h-72.391v-106.667l42.667-42.667h29.724v-21.333l-85.333-64v-106.667l162.276 42.667 160-42.667v106.667l-85.333 64v21.333h32l42.667 42.667v106.667h-74.667v85.333l352-128v149.191l-352 213.333v192.142c0 42.667-23.324 85.333-74.667 85.333v0z" />
<glyph unicode="&#xe92c;" glyph-name="ac-dns" data-tags="ac-dns" d="M917.333 490.667l-21.333-63.716v-59.733l-309.333 187.449v189.013c0 42.667-50.489 173.653-74.667 173.653s-74.667-130.987-74.667-173.653-1.138-189.013-1.138-189.013l-308.196-187.307v58.311l-21.333 64.996-21.333-64.996v-256h42.667v32.711l307.058 74.951v-150.613l-85.333-62.72v-85.333l162.276 21.049 160-21.049v85.333l-85.333 62.72v150.613l309.333-75.378v-32.711h42.667v257.707zM597.333 318.72l-52.764 12.8v-226.418l16.782-12.658 67.982-49.92v-15.076l-111.787 14.222-5.547 1.138-5.547-0.711-113.778-14.222v14.507l85.049 62.862v226.276l-52.764-12.8-296.96-72.391v71.111l350.72 213.191v23.751s1.138 146.631 1.138 189.298c0 18.489 16.356 67.698 32 102.542 15.644-34.844 32-84.053 32-102.542v-213.333l20.48-12.516 331.662-200.676v-71.111z" />
<glyph unicode="&#xe92d;" glyph-name="ac-dualprop" data-tags="ac-dualprop" d="M903.396 541.44l-97.991 30.578v46.649l-64 21.333-64-21.333v-6.542l-85.333 26.738v214.471l-76.089 21.333-73.244-21.333v-214.471l-106.667-28.444v8.249l-64 21.333-64-21.333v-47.644l-97.849-29.724c-17.672-5.478-30.286-21.674-30.293-40.817v-137.814l128 23.324v-26.88h128v42.667h85.333v-231.111l-106.524-64v-128l149.333 21.333 21.333 21.333v-46.364h42.667v46.364l21.333-21.333 149.333-21.333v128l-106.667 64v230.969h85.333v-42.667h128v36.693l128-11.662v116.764c-0.032 19.017-12.501 35.114-29.707 40.592l-0.302 0.083zM890.738 430.649l-128 11.662v-40.676h-42.667v42.667h-170.667v-297.813l106.667-64v-54.613l-83.911 12.373-21.049 20.196h-23.040v42.667h-42.667v-42.667h-12.373l-26.453-21.191-89.173-11.52v54.756l106.667 64v297.813h-170.667v-42.667h-42.667v35.413l-128-23.324v86.756l128 38.969v48.498l21.333 7.111 21.333-7.111v-35.556l192 54.756v213.476l30.578 11.378 33.28-11.804v-212.764l170.667-53.333v33.849l21.333 7.111 21.333-7.111v-47.076l128-39.964v-70.116zM229.689 686.649h85.333v-32h-85.333v32zM699.164 686.649h85.333v-32h-85.333v32z" />
<glyph unicode="&#xe92e;" glyph-name="ac-glider" data-tags="ac-glider" d="M512 874.667l-426.667-512v-128l426.667 85.333 426.667-85.333v128zM128 347.164l368.071 442.169v-429.084l-74.667-14.933v124.018h-32v-130.418l-74.667-14.933v102.684h-32v-109.084l-53.333-10.667v55.751h-32v-62.151l-69.404-13.796v60.444zM896 286.72l-69.262 14.222v61.724h-32v-55.751l-53.333 10.667v109.084h-32v-102.684l-74.667 14.933v130.418h-32v-124.018l-74.667 14.933v429.084l367.929-442.169v-60.444zM405.333 234.667v-64l64-149.333h85.333l64 149.333v64l-106.667 21.333zM576 179.484l-49.778-115.484h-28.444l-49.778 115.484v20.196l64 12.8 64-12.8v-20.196z" />
<glyph unicode="&#xe92f;" glyph-name="ac-highwing" data-tags="ac-highwing" d="M513.28 830.436l41.387-10.382v-202.667l384 1.28v-74.098l-241.778-75.236h-138.524l-28.444-307.2 130.844-43.662v-38.827l-91.591-13.084-57.173 57.742-57.742-57.742-91.591 13.084v39.964l116.196 42.667-11.093 307.058h-140.658l-241.778 74.24v73.956h393.529v203.093s26.169 7.111 34.276 9.813zM512 874.667v0zM512 874.667c0-1.138-75.947-21.333-75.947-21.333v-193.138h-350.72c-23.564 0-42.667-19.103-42.667-42.667v0-105.529l277.333-85.333h106.667l8.391-234.667-115.058-42.667v-106.667l149.333-21.333 42.667 42.667 42.667-42.667 149.333 21.333v106.667l-128 42.667 21.333 234.667h106.667l277.333 86.471v105.529c0 23.564-19.103 42.667-42.667 42.667v0l-341.333-1.138v193.138l-85.333 21.333z" />
<glyph unicode="&#xe930;" glyph-name="ac-lowwing" data-tags="ac-lowwing" d="M513.28 830.436l41.387-10.382v-212.622l341.333-106.667v-70.116l-192 17.351h-149.333v-301.511l106.667-64v-54.613l-86.613 12.373-23.751 23.751h-77.938l-23.751-23.751-86.613-12.373v54.613l106.667 64v301.511h-149.333l-192-34.276v86.756l350.862 106.667v213.476s26.169 7.111 34.276 9.813zM512 874.667v0zM512 874.667l-75.804-21.333v-214.471l-320.569-97.564c-17.672-5.478-30.286-21.674-30.293-40.817v-137.814l234.667 42.667h106.667v-234.667l-106.667-64v-128l149.333 21.333 21.333 21.333h42.667l21.333-21.333 149.333-21.333v128l-106.667 64v234.667h106.667l234.667-21.333v116.764c-0.032 19.017-12.501 35.114-29.707 40.592l-0.302 0.083-311.324 97.422v214.471l-85.333 21.333zM469.333 926.293h85.333v-32h-85.333v32z" />
<glyph unicode="&#xe931;" glyph-name="ac-profile" data-tags="ac-profile" d="M586.667 320h-42.667v-192l85.333-64v-28.444l-115.769 32.996-11.662-3.271-107.236-29.724v28.444l85.333 64v338.204l-56.889-20.764-295.111-107.236v67.982l352 209.778v24.036s0 180.053 0 191.573c0 21.333 5.547 42.667 32 42.667s32-21.476 32-42.667v-191.573h42.667v192s2.987 85.333-73.102 85.333-76.231-85.333-76.231-85.333v-192l-352-209.778v-152.889l352 128v-256l-85.333-64v-106.667l161.564 45.227 158.436-45.227v106.667l-85.333 64v170.667zM544.569 575.716h42.667v-42.667h-42.667v42.667zM544 490.667h42.667v-42.667h-42.667v42.667zM639.716 570.169h277.902v-32h-277.902v32zM639.716 485.547h277.902v-32h-277.902v32zM544 404.48h42.667v-42.667h-42.667v42.667zM639.716 399.36h277.902v-32h-277.902v32z" />
<glyph unicode="&#xe932;" glyph-name="ac-right" data-tags="ac-right" d="M938.667 448c-0.386-17.466-14.404-31.534-31.814-31.999l-0.044-0.001h-227.556l-12.373-20.764-197.547-331.236h-67.129l107.236 294.684 20.764 56.889h-338.204l-12.8-17.067-51.2-67.84h-29.298l29.298 108.231 3.129 11.378-3.129 11.947-28.444 105.387h28.444l64-85.333h338.347l-21.049 56.889-106.951 292.836h66.987l210.489-351.004h226.987c17.702-0.705 31.793-15.194 31.858-32.989v-0.006zM981.333 448c-0.233 41.237-33.358 74.661-74.457 75.377l-0.067 0.001h-202.809l-209.778 351.289h-152.889l128-349.724h-256l-64 85.333h-106.667l44.8-160-44.8-162.276h106.667l64 85.333h256l-128-352h152.889l209.778 352h202.809c40.983 0.555 74.050 33.671 74.524 74.621v0.045z" />
<glyph unicode="&#xe933;" glyph-name="ac-settings" data-tags="ac-settings" d="M757.333 644.978v-40.533l22.898-6.827c8.566-2.525 15.969-5.621 22.943-9.407l-0.614 0.305 21.049-11.378 28.871 28.871 15.076-15.787-28.444-28.444 11.378-21.049c3.246-6.138 6.151-13.31 8.328-20.793l0.206-0.825 6.827-22.898h40.818v-21.333h-40.818l-6.827-23.467c-2.527-8.567-5.622-15.97-9.408-22.944l0.305 0.615-10.809-20.907 16.356-17.067 12.089-11.804-15.076-15.076-12.089 12.658-16.924 16.213-21.049-11.378c-6.359-3.48-13.762-6.576-21.502-8.89l-0.826-0.212-22.898-6.827v-40.818h-21.333v40.818l-22.898 6.827c-8.567 2.527-15.97 5.622-22.944 9.408l0.615-0.305-21.049 11.378-16.64-16.213-11.947-11.947-15.218 14.364 12.089 11.804 16.356 17.067-11.378 21.049c-3.48 6.359-6.576 13.762-8.89 21.502l-0.212 0.826-6.827 22.898h-40.249v21.333h40.818l6.827 23.324c2.527 8.567 5.622 15.97 9.408 22.944l-0.305-0.615 10.809 20.338-28.444 28.444 15.076 15.076 28.871-28.871 21.049 11.378c6.36 3.481 13.763 6.577 21.503 8.89l0.826 0.212 22.898 7.538v40.533h21.333zM746.667 388.978c53.019 0 96 42.981 96 96s-42.981 96-96 96c-53.019 0-96-42.981-96-96v0c0.081-52.987 43.013-95.919 95.992-96h0.008zM789.333 676.978h-85.333v-48.924c-10.912-3.238-20.341-7.203-29.22-12.050l0.776 0.388-34.56 34.56-60.302-60.729 34.56-34.56c-4.458-8.103-8.423-17.532-11.39-27.393l-0.272-1.051h-48.924v-85.333h48.924c3.239-10.912 7.205-20.342 12.050-29.221l-0.388 0.777-34.56-34.56 60.302-60.302 34.56 34.56c8.103-4.458 17.532-8.423 27.393-11.39l1.051-0.272v-48.498h85.333v48.924c10.912 3.239 20.342 7.205 29.221 12.050l-0.777-0.388 34.56-34.56 60.302 60.302-34.56 34.56c4.458 8.103 8.423 17.532 11.39 27.393l0.272 1.051h48.924v85.333h-48.924c-3.239 10.912-7.205 20.342-12.050 29.221l0.388-0.777 34.56 34.133-60.302 60.302-34.56-34.56c-8.103 4.459-17.532 8.424-27.394 11.391l-1.050 0.271v49.351zM746.667 420.978c-35.346 0-64 28.654-64 64s28.654 64 64 64c35.346 0 64-28.654 64-64v0c0-35.346-28.654-64-64-64v0 0zM586.667 320h-42.667v-192l85.333-64v-28.444l-115.769 32.996-11.662-3.271-107.236-29.724v28.444l85.333 64v338.204l-56.889-20.764-295.111-107.236v67.982l352 209.778v24.036s0 180.053 0 191.573c0 21.333 5.547 42.667 32 42.667s32-21.476 32-42.667v-191.573h42.667v192s2.987 85.333-73.102 85.333-76.231-85.333-76.231-85.333v-192l-352-209.778v-152.889l352 128v-256l-85.333-64v-106.667l161.564 45.227 158.436-45.227v106.667l-85.333 64v170.667z" />
<glyph unicode="&#xe934;" glyph-name="ac-up" data-tags="ac-up" d="M512 874.667c17.466-0.386 31.534-14.404 31.999-31.814l0.001-0.044v-227.556l352-209.92v-67.698l-351.716 128.569v-338.204l85.333-64v-29.298l-119.893 32.427-11.947-3.129-105.387-28.444v28.444l85.333 64v338.347l-56.889-21.049-292.836-106.951v66.987l351.004 210.489v226.987c0.705 17.702 15.194 31.793 32.989 31.858h0.006zM512 917.333c-41.237-0.233-74.661-33.358-75.377-74.457l-0.001-0.067v-202.809l-351.289-209.778v-152.889l349.724 128v-256l-85.333-64v-106.667l160 44.8 162.276-44.8v106.667l-85.333 64v256l352-128v152.889l-352 209.778v202.809c-0.555 40.983-33.671 74.050-74.621 74.524h-0.045z" />
<glyph unicode="&#xe935;" glyph-name="airports-directory" data-tags="airports-directory" d="M320 181.333h480v682.667h-448c-70.692 0-128-57.308-128-128v0-608c0.081-52.987 43.013-95.919 95.992-96h480.008v42.667h-480c-29.455 0-53.333 23.878-53.333 53.333s23.878 53.333 53.333 53.333v0zM266.667 736c0 47.128 38.205 85.333 85.333 85.333v0h405.333v-597.333h-437.333c-0.036 0-0.078 0-0.12 0-19.847 0-38.278-6.059-53.547-16.427l0.333 0.214v528.213zM635.164 541.867c-8.61 53.596-50.369 95.355-103.25 103.87l-0.714 0.095v47.502h-38.4v-47.502c-53.596-8.61-95.355-50.369-103.87-103.25l-0.095-0.714h-47.502v-38.4h47.502c8.61-53.596 50.369-95.355 103.25-103.87l0.714-0.095v-47.502h38.4v47.502c53.596 8.61 95.355 50.369 103.87 103.25l0.095 0.714h47.502v38.4h-47.502zM464.498 454.827l-20.338 20.338 115.2 115.2 20.338-20.338zM330.667 143.929c-8.202-0.797-14.561-7.656-14.561-16s6.359-15.203 14.495-15.995l0.066-0.005h469.333v32h-469.333z" />
<glyph unicode="&#xe936;" glyph-name="airports-nearby" data-tags="airports-nearby" d="M709.262 425.102c-18.254 113.85-107.001 202.548-219.36 220.53l-1.511 0.199v100.836h-81.493v-100.836c-113.811-18.238-202.491-106.919-220.528-219.215l-0.201-1.514h-100.836v-81.493h100.836c18.181-113.87 106.879-202.617 219.214-220.67l1.515-0.201v-101.404h81.493v101.404c113.909 18.197 202.674 106.962 220.672 219.359l0.2 1.512h101.404v81.493h-101.404zM347.022 240.356l-42.667 42.667 244.622 244.622 42.667-42.667zM894.151 725.333c-9.346 53.707-51.111 95.472-104.052 104.707l-0.766 0.111v44.516h-42.667v-44.516c-53.707-9.346-95.472-51.111-104.707-104.052l-0.111-0.766h-44.516v-42.667h44.516c9.346-53.707 51.111-95.472 104.052-104.707l0.766-0.111v-44.516h42.667v44.516c53.707 9.346 95.472 51.111 104.707 104.052l0.111 0.766h44.516v42.667h-44.516zM723.484 628.622l-30.862 30.151 120.747 120.747 30.151-30.151z" />
<glyph unicode="&#xe937;" glyph-name="airports" data-tags="airports" d="M819.911 495.929c-21.466 134.010-125.851 238.442-258.053 259.745l-1.787 0.237v118.756h-96v-118.756c-134.049-21.483-238.499-125.933-259.746-258.198l-0.236-1.784h-118.756v-96h118.756c21.54-133.989 125.972-238.374 258.199-259.604l1.784-0.236v-118.756h96v118.756c133.95 21.523 238.317 125.89 259.603 258.054l0.237 1.786h118.756v96h-118.756zM393.244 278.471l-50.916 50.916 288.284 288 50.916-50.916z" />
<glyph unicode="&#xe938;" glyph-name="cabin-seat" data-tags="cabin-seat" d="M298.667 832v-201.529l164.836-353.138h329.529l17.636-17.636v-89.031h-378.311l-219.022 464.782v178.916l17.636 17.636h67.698zM341.333 874.667h-128l-42.667-42.667v-206.222l234.667-497.778h448v149.333l-42.667 42.667h-320l-149.333 320v234.667zM469.333 463.929h256v-32h-256v32zM448 53.333h405.333v-32h-405.333v32z" />
<glyph unicode="&#xe939;" glyph-name="cabin" data-tags="cabin" d="M448 53.333h405.333v-32h-405.333v32zM853.333 405.333h-402.489l-109.511 234.667v234.667h-128l-42.667-42.667v-206.222l234.667-497.778h448v149.333l-42.667 42.667h-320l-24.889 53.333h387.556v32zM793.031 277.333l17.636-17.636v-89.031h-378.311l-219.022 464.782v178.916l17.636 17.636h67.698v-201.529l164.836-353.138h329.529zM597.333 490.667h42.667c58.878 0.081 106.586 47.789 106.667 106.659v128.008c-0.081 58.878-47.789 106.586-106.659 106.667h-42.675c-58.878-0.081-106.586-47.789-106.667-106.659v-128.008c0.081-58.878 47.789-106.586 106.659-106.667h0.008zM533.333 725.333c0 35.346 28.654 64 64 64v0h42.667c35.346 0 64-28.654 64-64v0-128c0-35.346-28.654-64-64-64v0h-42.667c-35.346 0-64 28.654-64 64v0 128z" />
<glyph unicode="&#xe93a;" glyph-name="cleaning" data-tags="cleaning" d="M821.333 684.658v-42.667h20.622c-4.616-69.671-30.284-132.578-70.63-183.284l0.515 0.67 28.444 310.471h-106.667v21.333c0 0.001 0 0.003 0 0.004 0 21.443-17.383 38.827-38.827 38.827-0.2 0-0.4-0.002-0.599-0.005h-199.081c-21.443 0-38.827-17.383-38.827-38.827v0-21.333h-192.284l28.444-310.471c-39.924 50.015-65.687 112.914-70.345 181.604l-0.055 1.009h20.622v42.667h-64v-21.333c0.065-107.984 46.123-205.198 119.643-273.123l0.25-0.229 29.44-323.982h448l29.44 323.982c73.771 68.153 119.829 165.367 119.893 273.339v21.345h-64zM448 791.324c0.076 3.711 3.103 6.69 6.825 6.69 0.101 0 0.201-0.002 0.3-0.006h199.097c3.77 0 6.827-3.056 6.827-6.827v0-266.524h-213.333v266.667zM416 727.324v-234.667h277.333v234.667h60.444l-28.444-316.729c-56.896-48.447-131.246-77.917-212.48-77.917s-155.585 29.47-212.944 78.303l0.464-0.386-30.151 316.729h145.778zM327.111 108.658l-4.409 47.929h378.738l-4.551-47.929h-369.778zM704.427 188.587h-384l-15.644 164.409c58.179-39.473 129.949-63.019 207.218-63.019s149.039 23.546 208.526 63.854l-1.308-0.836z" />
<glyph unicode="&#xe93b;" glyph-name="eapis-3" data-tags="eapis-3" d="M808.96 275.769v186.453h-13.369c-49.209 0-89.173 52.053-89.173 115.769v18.489l-27.591-27.591c3.556-71.111 46.933-130.702 102.684-138.809v-122.738zM340.053 725.76l-2.844 73.813 87.467 25.316 49.778-233.529 36.267-36.267-55.609 256.853c16.428-9.135 36.030-14.513 56.889-14.513s40.461 5.378 57.497 14.822l-0.608-0.309-55.609-257.991 36.551 36.267 49.778 234.667 87.467-26.453-2.844-73.529 28.444 28.444 2.418 68.267v2.418l-135.538 40.818-2.276-9.956c-17.517-14.657-40.288-23.558-65.138-23.558s-47.621 8.901-65.298 23.689l0.16-0.131-2.276 9.956-134.542-40.818 2.418-71.111zM241.778 309.902v120.604c56.889 9.102 99.556 67.84 102.827 139.662l-26.738 26.738v-18.347c0-63.858-39.964-115.911-89.173-115.911h-12.516v-187.022zM498.773 372.48v-62.578h-60.018l-34.844-34.844h93.867v-66.987h-160.853l-32.711-32.711h193.564v-27.022c0-45.938-28.444-83.342-64-83.342h-192v51.484l-26.027-21.333v-64h219.876c30.578 0 59.307 20.907 76.516 55.040 16.924-34.56 45.369-55.040 77.369-55.040h219.449v64l-27.733 21.333v-51.627h-191.716c-34.844 0.142-63.289 37.547-63.289 83.484v27.022h194.702l-32.711 32.711h-161.991v66.987h95.573l-32.711 32.711h-62.862v64.711zM423.111 426.667l-9.387 9.387-271.36-262.969 56.604-56.462 271.218 262.969-9.387 9.387 357.973 357.973-37.689 37.689-357.973-357.973zM564.338 388.978l-9.387-9.387 270.080-262.969 56.604 56.462-270.080 262.969-9.529-9.387-357.973 357.973-37.689-37.689 357.973-357.973z" />
<glyph unicode="&#xe93c;" glyph-name="eapis-alt" data-tags="eapis-alt" d="M839.111 317.582l14.222 23.751-128 42.667-14.222-23.751-71.111 23.751-128-170.667-128 170.667-88.889-29.582-17.778 29.582-128-42.667 17.778-29.582-39.111-13.084v-234.667h768v234.667zM775.111 273.067l-65.849 21.902 30.293 50.489 65.849-21.902zM263.111 345.458l30.293-50.489-65.849-21.76-30.293 50.489zM853.333 106.667h-682.667v161.28l18.916 6.258 23.751-39.538 128 42.667-23.751 39.538 50.773 17.351 109.511-146.489 34.133-45.511 34.133 45.511 109.511 146.489 32.996-10.951-27.307-45.938 128-42.667 27.307 45.511 36.693-12.231v-161.28zM234.667 186.596h128v-32h-128v32zM661.333 186.596h128v-32h-128v32zM512 576c183.324 0 213.333 42.667 213.333 42.667l64 106.667-64 85.333-213.333 64-213.333-64-64-85.333 64-106.667s30.009-42.667 213.333-42.667zM286.009 722.631l38.4 51.2 187.591 56.32 187.591-56.889 38.4-51.2-33.707-56.889-192.284 39.68-8.391-1.707-183.893-36.693zM544 741.262v64l-32-15.929-32 15.929v-64l32-15.929 32 15.929zM469.333 490.667c-32.379-0.081-58.596-26.348-58.596-58.738 0 0 0 0 0 0v0h32c0 0 0 0 0 0 0 14.717 11.89 26.657 26.588 26.737h85.341c14.767 0 26.738-11.971 26.738-26.738v0h32c0 32.44-26.298 58.738-58.738 58.738v0h-85.333z" />
<glyph unicode="&#xe93d;" glyph-name="eapis" data-tags="eapis" d="M585.244 298.667l-102.827-102.827-286.578 286.578 362.098 362.098 286.578-286.578-166.258-166.258 17.351-42.951 209.209 209.209-346.88 346.88-422.4-422.4 346.88-346.88 120.604 120.462-17.778 42.667zM634.596 419.556c-4.776 11.3-13.589 20.113-24.587 24.775l-0.302 0.114c-4.661 2.008-10.088 3.176-15.787 3.176s-11.125-1.168-16.053-3.278l0.266 0.101-16.498-6.969c-21.474-10.181-36.060-31.683-36.060-56.591 0-9.389 2.073-18.294 5.785-26.283l-0.161 0.385 43.378-108.658 28.444 9.387v4.693l-42.667 106.667c-2.058 4.003-3.264 8.734-3.264 13.747 0 11.797 6.68 22.033 16.464 27.133l0.169 0.080 16.498 6.969c1.030 0.438 2.227 0.693 3.484 0.693s2.455-0.255 3.544-0.716l-0.060 0.022c3.269-1.494 5.82-4.090 7.218-7.304l0.036-0.092 75.236-185.742-115.627-115.2h-212.053v121.031l-32 32v-185.6h257.28l140.089 140.231zM320 35.556h256v-64h-256v64zM626.631 512c13.333-15.881 26.347-33.463 38.269-51.819l1.269-2.084c6.336 15.969 10.009 34.471 10.009 53.831s-3.674 37.862-10.362 54.847l0.352-1.016c-13.189-20.377-26.201-37.912-40.21-54.581l0.672 0.821zM474.738 459.804c-8.96 8.96-17.778 18.204-26.311 27.733-14.979-18.157-29.082-38.378-41.501-59.7l-1.166-2.167c9.696-13.592 21.339-25.054 34.663-34.256l0.466-0.304c23.548 13.581 43.816 27.685 62.797 43.296l-0.789-0.629c-9.956 8.249-19.342 17.067-28.16 26.027zM556.516 541.582c-10.098 10.098-20.053 19.342-29.582 28.444-9.529-8.533-19.484-17.92-29.582-28.444s-19.342-20.053-28.444-29.582c8.533-9.529 17.778-19.484 28.444-29.582s20.053-19.342 29.582-28.444c9.529 8.533 19.484 17.778 29.582 28.444s19.342 20.053 28.444 29.582c-9.102 9.529-18.347 19.484-28.444 29.582zM426.667 512c-13.334 15.882-26.348 33.463-38.27 51.819l-1.268 2.083c-6.336-15.969-10.009-34.471-10.009-53.831s3.674-37.862 10.362-54.847l-0.352 1.016c13.189 20.377 26.202 37.912 40.21 54.582l-0.672-0.822zM440.889 632.889c-13.818-9.661-25.468-21.311-34.831-34.68l-0.298-0.448c13.581-23.548 27.685-43.816 43.296-62.797l-0.629 0.789c8.533 9.387 17.351 18.773 26.311 27.733s18.204 17.778 27.733 26.311c-18.11 15.142-38.235 29.377-59.468 41.936l-2.114 1.157zM613.404 632.889c-23.489-13.585-43.71-27.688-62.647-43.291l0.781 0.624c9.387-8.533 18.773-17.351 27.733-26.311s17.778-18.204 26.311-27.733c14.981 18.193 29.085 38.461 41.499 59.832l1.167 2.177c-9.61 13.634-21.161 25.14-34.395 34.404l-0.449 0.298zM526.933 611.698c15.881 13.333 33.463 26.347 51.819 38.269l2.084 1.269c-15.969 6.336-34.471 10.009-53.831 10.009s-37.862-3.674-54.847-10.362l1.016 0.352c20.377-13.189 37.912-26.202 54.582-40.21l-0.822 0.672z" />
<glyph unicode="&#xe93e;" glyph-name="egi-2" data-tags="egi 2" d="M853.333 789.333v-682.667h-682.667v682.667h682.667zM896 832h-768v-768h768v768zM296.391 541.724h137.387v-32.996h-96.427v-39.111h83.484v-33.28h-83.484v-40.676h99.556v-32.996h-140.516v179.058zM472.036 452.409c0 64.996 29.156 92.871 87.182 92.871 35.271 0 58.027-11.236 69.831-38.116l-33.422-17.92c-5.504 12.851-18.043 21.691-32.647 21.691-1.376 0-2.733-0.078-4.067-0.231l0.163 0.015c-28.444 0-44.8-13.084-44.8-58.596s16.071-59.876 45.227-59.876c1.024-0.108 2.213-0.17 3.416-0.17 18.868 0 34.19 15.183 34.415 33.997v2.154h-37.547v31.147h75.236v-96.711h-29.582l-2.56 22.044c-10.318-15.571-27.764-25.698-47.576-25.698-1.175 0-2.341 0.036-3.498 0.106l0.159-0.008c-49.92 0-79.929 29.867-79.929 93.298zM685.511 541.724h42.667v-179.058h-42.667v179.058z" />
<glyph unicode="&#xe93f;" glyph-name="egi" data-tags="egi" d="M876.658 320c-4.978 106.667-39.822 168.818-94.436 228.409l42.667 45.511-22.471 24.747-42.667-42.667c-64.054 59.446-150.15 95.92-244.764 95.92s-180.711-36.475-244.993-96.13l0.229 0.21-42.667 42.667-22.613-22.613 42.667-48.213c-54.329-59.022-89.173-121.173-94.151-227.84h-60.16v-42.667h106.667v32c0 176.731 143.269 320 320 320s320-143.269 320-320v0-32h106.667v42.667h-69.973zM472.32 725.333l42.667-64 42.667 64h-85.333zM586.098 512l-71.111 106.667-71.111-106.667h142.222zM327.964 448h384v-42.667h-384v42.667zM327.964 192h384v-42.667h-384v42.667zM370.631 362.667h298.667v-42.667h-298.667v42.667zM370.631 277.333h298.667v-42.667h-298.667v42.667z" />
<glyph unicode="&#xe940;" glyph-name="fbo-1" data-tags="fbo-1" d="M981.333 277.333v42.667h-725.333v-234.667h725.333v42.667h-69.262v149.333h69.262zM723.627 277.333v-149.333h-124.587v149.333h124.444zM567.182 277.333v-149.333h-124.444v149.333h124.444zM298.667 277.333h112.071v-149.333h-112.071v149.333zM880.071 128h-124.444v149.333h124.444v-149.333zM298.667 362.667h42.667v128h21.333v42.667h-213.333v-42.667h21.333v-405.333h42.667v405.333h85.333v-128zM256 821.333c-17.673 0-32-14.327-32-32v0h64c0 17.673-14.327 32-32 32v0zM85.333 554.667h341.333v42.667h-14.222l32.142 64-32.142 64h14.222v42.667h-341.333v-42.667h14.222l-32.142-64 32.142-64h-14.222v-42.667zM376.747 725.333l32-64-32-64h-40.676v128h40.818zM303.929 725.333v-128h-95.858v128h96zM103.253 661.333l32 64h40.818v-128h-40.818z" />
<glyph unicode="&#xe941;" glyph-name="fbo-2" data-tags="fbo-2" d="M784.498 358.258l-9.529 3.271c-78.285 26.361-168.506 42.273-262.225 43.795l-0.744 0.010c-45.351-0.135-89.579-4.58-132.403-12.948l4.403 0.717v140.231h21.333v42.667h-213.333v-42.667h21.333v-272.356l-42.667-85.333v-175.644h165.404v175.929h352v-175.929h165.262v174.507zM256 533.333h85.333v-149.476c-28.497-6.929-52.594-14.778-75.887-24.198l3.638 1.3-7.253-3.129-5.831-11.52v187.022zM810.667 42.667h-90.596v165.262h-416v-165.262h-90.738v123.022l79.36 158.862c65.262 23.862 140.608 37.802 219.168 38.115h0.139c86.067-1.644 168.281-15.565 245.789-40.076l-6.144 1.676 59.022-157.44v-124.16zM298.667 271.929h128v-32h-128v32zM448 271.929h128v-32h-128v32zM597.333 271.929h128v-32h-128v32zM298.667 864c-17.673 0-32-14.327-32-32v0h64c0 17.673-14.327 32-32 32v0zM128 597.333h341.333v42.667h-14.222l32.142 64-32.142 64h14.222v42.667h-341.333v-42.667h14.222l-32.142-64 32.142-64h-14.222v-42.667zM419.413 768l32-64-32-64h-40.676v128h40.818zM346.596 768v-128h-95.858v128h96zM145.92 704l32 64h40.818v-128h-40.818z" />
<glyph unicode="&#xe942;" glyph-name="fbo" data-tags="fbo" d="M981.333 277.333c-0.154 74.852-55.302 136.776-127.179 147.526l-0.821 0.101v65.707h-341.333v-426.667h341.333v65.707c72.698 10.85 127.846 72.775 128 147.61v0.016zM810.667 106.667h-256v341.333h256v-341.333zM853.333 172.8v209.067c49.089-10.229 85.44-53.136 85.44-104.533s-36.352-94.304-84.747-104.412l-0.693-0.121zM741.404 533.333c0.080 14.656 11.94 26.515 26.588 26.596h0.008c0.042 0 0.092 0 0.142 0 32.44 0 58.738 26.298 58.738 58.738s-26.298 58.738-58.738 58.738c-32.44 0-58.738-26.298-58.738-58.738v0h32c0 14.767 11.971 26.737 26.738 26.737s26.738-11.971 26.738-26.738c0-14.767-11.971-26.738-26.738-26.738-0.050 0-0.1 0-0.15 0h0.008c-32.329-0.081-58.515-26.267-58.596-58.588v-21.341h32v21.333zM597.333 581.262c14.767 0 26.738-11.971 26.738-26.738v0-42.667h32v42.667c0 32.44-26.298 58.738-58.738 58.738v0c-13.904 1.047-24.789 12.586-24.789 26.667s10.885 25.62 24.699 26.661l0.090 0.005c0 0 0 0 0 0 32.39 0 58.657 26.217 58.738 58.588v42.675h-32v-42.667c-0.081-14.706-12.021-26.596-26.737-26.596 0 0 0 0 0 0v0c-31.173-1.583-55.848-27.243-55.848-58.667s24.676-57.084 55.707-58.661l0.141-0.006zM427.52 500.48l23.324 11.804 23.324-11.804-4.124 25.742 18.489 18.204-25.884 3.982-11.804 23.182-11.804-23.182-25.884-3.982 18.489-18.204-4.124-25.742zM450.418 618.667c-0.244 0.003-0.533 0.004-0.822 0.004-29.883 0-56.111-15.647-70.938-39.195l-0.204-0.347h-86.471c-5.324-1.575-9.143-6.422-9.143-12.16s3.819-10.585 9.053-12.137l0.090-0.023h77.796c-1.842-3.535-3.274-7.636-4.082-11.955l-0.043-0.276h-49.351c-5.324-1.575-9.143-6.422-9.143-12.16s3.819-10.585 9.053-12.137l0.090-0.023h49.209c0.851-4.596 2.283-8.696 4.241-12.479l-0.117 0.248h-41.102c-5.324-1.575-9.143-6.422-9.143-12.16s3.819-10.585 9.053-12.137l0.090-0.023h49.92c15.031-23.895 41.259-39.542 71.142-39.542 0.289 0 0.578 0.001 0.866 0.004h-0.044c0.119-0.001 0.26-0.001 0.401-0.001 6.56 0 12.95 0.726 19.095 2.101l-0.58-0.109v22.187c-5.63-1.865-12.117-3-18.851-3.128l-0.064-0.001c-36.978 0.023-66.947 30.005-66.947 66.987 0 36.996 29.991 66.987 66.987 66.987 27.434 0 51.017-16.492 61.374-40.103l0.168-0.43v35.556c-15.344 16.302-37.063 26.454-61.154 26.454-0.151 0-0.301 0-0.451-0.001h0.023zM469.333 149.333c-7.111 0-14.222 0-21.333 0-198.116 0-256 96.569-271.787 140.373h293.12v32h-298.667v48.64h298.667v32h-301.796c-19.058 50.631-44.231 116.764-61.156 162.56 52.196 11.804 88.178 38.258 123.164 64.142 52.196 38.542 101.547 74.951 218.453 74.951 0.476 0.002 1.040 0.003 1.603 0.003 22.011 0 43.648-1.604 64.8-4.701l-2.403 0.289v42.667c-19.164 2.732-41.358 4.332-63.912 4.409h-0.088c-238.649 0-239.36-145.351-400.64-145.351 0 0 80.64-214.898 80.64-214.898v-80.64s24.604-199.111 320-199.111c7.253 0 14.222 0 21.333 0v42.667z" />
<glyph unicode="&#xe943;" glyph-name="flight-attendant" data-tags="flight-attendant" d="M766.72 264.533l-84.053 69.689h21.333c47.128 0 85.333 38.205 85.333 85.333v0c-47.128 0-85.333 38.205-85.333 85.333v0 64c0 0.152 0.001 0.331 0.001 0.511 0 45.785-16.097 87.81-42.941 120.724l0.274-0.346-44.231-14.222c27.4-27.020 44.373-64.551 44.373-106.047 0-0.018 0-0.036 0-0.053v0.003-64.569c0.004-50.629 29.402-94.391 72.058-115.151l0.759-0.334c-7.723-7.732-18.397-12.516-30.189-12.516-0.037 0-0.074 0-0.11 0h-106.661v-42.667l47.218-26.596h-54.613l-77.938-91.022-77.938 91.307h-54.613l47.218 26.311v45.227l-106.667-2.56c-11.778 0.011-22.437 4.792-30.151 12.515v0c43.416 21.093 72.814 64.855 72.818 115.484v64.001c-0.001 0.184-0.001 0.401-0.001 0.618 0 41.496 16.974 79.028 44.358 106.032l0.017 0.017-44.231 14.222c-26.57-32.569-42.667-74.594-42.667-120.378 0-0.18 0-0.359 0.001-0.539v0.028-64c0-47.128-38.205-85.333-85.333-85.333v0c0-47.128 38.205-85.333 85.333-85.333v0h21.191l-83.911-69.973c-26.912-22.5-43.947-56.037-44.089-93.558v-149.357h597.333v149.333c-0.014 37.629-17.018 71.284-43.757 93.712l-0.19 0.155zM768 64h-512v106.667c0 0.084 0 0.182 0 0.281 0 24.394 11.006 46.217 28.324 60.775l0.121 0.099 56.889 47.218v-3.129h77.938l92.729-108.516 92.729 108.516h81.778l53.049-44.089c17.439-14.657 28.445-36.48 28.445-60.874 0-0.099 0-0.198-0.001-0.297v0.015-106.667zM661.333 718.222v106.951c-33.991 30.578-100.124 49.493-149.333 49.493s-115.342-18.916-149.333-49.493v-106.951l149.333-42.667zM394.667 809.244c33.435 20.626 73.957 32.846 117.333 32.846s83.899-12.221 118.312-33.407l-0.978 0.56v-66.844l-117.333-33.28-117.333 33.564v66.844zM597.333 782.507c0-11.782-9.551-21.333-21.333-21.333s-21.333 9.551-21.333 21.333c0 11.782 9.551 21.333 21.333 21.333s21.333-9.551 21.333-21.333z" />
<glyph unicode="&#xe944;" glyph-name="flight-plan-doc" data-tags="flight-plan-doc" d="M170.667 917.333v-938.667h682.667v648.96l-289.849 289.707h-392.818zM780.516 640h-204.516v204.658zM213.333 874.667h320v-277.333h277.333v-576h-597.333v853.333zM765.298 296.249c0 36.132-29.291 65.422-65.422 65.422v0c-6.681-0.087-13.077-1.173-19.089-3.115l0.458 0.128-63.716 92.16c-0.433-0.353-0.963-0.604-1.544-0.708l-0.021-0.003c10.541 11.572 16.996 27.026 16.996 43.988 0 36.132-29.291 65.422-65.422 65.422s-65.422-29.291-65.422-65.422c0-16.962 6.455-32.416 17.042-44.040l-0.047 0.052-42.667-61.724 27.164-18.631 40.391 58.311c1.086 1.061 1.954 2.339 2.533 3.766l0.027 0.074c6.34-2.427 13.672-3.832 21.333-3.832s14.994 1.405 21.755 3.973l-0.421-0.14 63.147-90.88c-11.096-11.699-17.92-27.545-17.92-44.984 0-36.132 29.291-65.422 65.422-65.422s65.422 29.291 65.422 65.422c0 0.065 0 0.13 0 0.194v-0.010zM535.324 494.222c-0.002 0.127-0.003 0.276-0.003 0.426 0 17.909 14.518 32.427 32.427 32.427s32.427-14.518 32.427-32.427c0-17.858-14.435-32.344-32.274-32.426h-0.008c-0.001 0-0.003 0-0.005 0-17.787 0-32.244 14.259-32.563 31.97v0.030zM699.876 263.111c-17.909 0-32.427 14.518-32.427 32.427s14.518 32.427 32.427 32.427c17.909 0 32.427-14.518 32.427-32.427v0c-0.080-17.876-14.55-32.346-32.419-32.427h-0.008zM393.956 269.653l-52.622-75.378c-6.048 2.164-13.026 3.459-20.294 3.555h-0.044c-36.417-0.038-65.924-29.569-65.924-65.991 0-36.446 29.545-65.991 65.991-65.991s65.991 29.545 65.991 65.991c0 17.178-6.564 32.824-17.32 44.565l0.045-0.049 51.627 74.667zM321.422 99.84c-17.909 0-32.427 14.518-32.427 32.427s14.518 32.427 32.427 32.427c17.909 0 32.427-14.518 32.427-32.427v0c-0.080-17.876-14.55-32.346-32.419-32.427h-0.008zM424.391 284.587l36.836-48.498 17.636 127.858-112.924-62.578 58.453-16.782z" />
<glyph unicode="&#xe945;" glyph-name="flight-plan-new" data-tags="flight-plan-new" d="M766.578 425.956c0 47.128-38.205 85.333-85.333 85.333v0c-8.684-0.147-16.979-1.593-24.77-4.15l0.592 0.168-82.347 119.324c-0.549-0.475-1.221-0.822-1.961-0.99l-0.030-0.006c14.296 15.221 23.079 35.766 23.079 58.362 0 47.128-38.205 85.333-85.333 85.333s-85.333-38.205-85.333-85.333c0-22.188 8.468-42.398 22.349-57.574l-0.059 0.065-55.182-79.929 35.271-24.036 52.196 75.378c1.564 1.19 2.85 2.658 3.803 4.338l0.037 0.071c8.319-3.242 17.949-5.12 28.018-5.12s19.699 1.878 28.559 5.304l-0.541-0.184 81.778-117.476c-14.865-15.234-24.035-36.085-24.035-59.077 0-46.736 37.887-84.622 84.622-84.622s84.622 37.887 84.622 84.622c0 0.069 0 0.139 0 0.208v-0.011zM469.333 681.956c0 23.564 19.103 42.667 42.667 42.667s42.667-19.103 42.667-42.667c0-23.564-19.103-42.667-42.667-42.667v0c-23.564 0-42.667 19.103-42.667 42.667v0zM682.667 383.289c-23.564 0-42.667 19.103-42.667 42.667s19.103 42.667 42.667 42.667c23.564 0 42.667-19.103 42.667-42.667v0c-0.4-23.256-19.347-41.956-42.661-41.956-0.002 0-0.004 0-0.006 0v0zM286.436 391.111l-67.413-97.564c-7.828 2.784-16.858 4.442-26.261 4.551h-0.050c-0.203 0.002-0.442 0.003-0.681 0.003-47.128 0-85.333-38.205-85.333-85.333s38.205-85.333 85.333-85.333c47.128 0 85.333 38.205 85.333 85.333 0 22.298-8.552 42.598-22.555 57.799l0.054-0.060 66.702 96.427zM192.711 172.089c-23.564 0-42.667 19.103-42.667 42.667s19.103 42.667 42.667 42.667c23.564 0 42.667-19.103 42.667-42.667v0c0-23.564-19.103-42.667-42.667-42.667v0zM853.333 256v85.333h-42.667v-85.333h-85.333v-42.667h85.333v-85.333h42.667v85.333h85.333v42.667h-85.333zM325.831 410.88l47.502-62.72 22.898 165.404-146.062-81.067 75.662-21.618z" />
<glyph unicode="&#xe946;" glyph-name="flight-plan" data-tags="flight-plan" d="M766.578 425.956c0 47.128-38.205 85.333-85.333 85.333v0c-8.684-0.147-16.979-1.593-24.77-4.15l0.592 0.168-82.347 119.324c-0.549-0.475-1.221-0.822-1.961-0.99l-0.030-0.006c14.296 15.221 23.079 35.766 23.079 58.362 0 47.128-38.205 85.333-85.333 85.333s-85.333-38.205-85.333-85.333c0-22.188 8.468-42.398 22.349-57.574l-0.059 0.065-55.182-79.929 35.271-24.036 52.196 75.378c1.564 1.19 2.85 2.658 3.803 4.338l0.037 0.071c8.319-3.242 17.949-5.12 28.018-5.12s19.699 1.878 28.559 5.304l-0.541-0.184 81.778-117.476c-14.865-15.234-24.035-36.085-24.035-59.077 0-46.736 37.887-84.622 84.622-84.622s84.622 37.887 84.622 84.622c0 0.069 0 0.139 0 0.208v-0.011zM469.333 681.956c0 23.564 19.103 42.667 42.667 42.667s42.667-19.103 42.667-42.667c0-23.564-19.103-42.667-42.667-42.667v0c-23.564 0-42.667 19.103-42.667 42.667v0zM682.667 383.289c-23.564 0-42.667 19.103-42.667 42.667s19.103 42.667 42.667 42.667c23.564 0 42.667-19.103 42.667-42.667v0c-0.4-23.256-19.347-41.956-42.661-41.956-0.002 0-0.004 0-0.006 0v0zM286.436 391.111l-67.413-97.564c-7.828 2.784-16.858 4.442-26.261 4.551h-0.050c-0.203 0.002-0.442 0.003-0.681 0.003-47.128 0-85.333-38.205-85.333-85.333s38.205-85.333 85.333-85.333c47.128 0 85.333 38.205 85.333 85.333 0 22.298-8.552 42.598-22.555 57.799l0.054-0.060 66.702 96.427zM192.711 172.089c-23.564 0-42.667 19.103-42.667 42.667s19.103 42.667 42.667 42.667c23.564 0 42.667-19.103 42.667-42.667v0c0-23.564-19.103-42.667-42.667-42.667v0zM325.831 410.88l47.502-62.72 22.898 165.404-146.062-81.067 75.662-21.618z" />
<glyph unicode="&#xe947;" glyph-name="flight-schedule-alt" data-tags="flight-schedule-alt" d="M784.071 725.333v64h-32v-64h-101.404v64h-32v-64h-101.262v64h-32v-64h-101.404v64h-32v-64h-101.262v64h-32v-64h-90.738v-640h746.667v640h-90.596zM832.142 128h-661.476v431.929h661.333v-431.929zM170.667 591.929v90.738h48.071v-42.667h32v42.667h101.404v-42.667h31.858v42.667h101.404v-42.667h32v42.667h101.262v-42.667h32v42.667h101.404v-42.667h32v42.667h47.929v-90.738h-661.333zM256 298.667h106.667v-106.667h-106.667v106.667zM256 490.667h106.667v-106.667h-106.667v106.667zM448 298.667h106.667v-106.667h-106.667v106.667zM448 490.667h106.667v-106.667h-106.667v106.667zM640 298.667h106.667v-106.667h-106.667v106.667zM640 490.667h106.667v-106.667h-106.667v106.667z" />
<glyph unicode="&#xe948;" glyph-name="flight-schedule" data-tags="flight-schedule" d="M784.071 725.333v64h-32v-64h-101.404v64h-32v-64h-101.262v64h-32v-64h-101.404v64h-32v-64h-101.262v64h-32v-64h-90.738v-640h746.667v640h-90.596zM832.142 128h-661.476v431.929h661.333v-431.929zM170.667 591.929v90.738h48.071v-42.667h32v42.667h101.404v-42.667h31.858v42.667h101.404v-42.667h32v42.667h101.262v-42.667h32v42.667h101.404v-42.667h32v42.667h47.929v-90.738h-661.333zM659.2 498.631c-22.471 22.471-47.644-2.702-47.644-2.702l-56.889-56.889-165.973 42.667-45.084-45.084 142.222-66.133-75.947-76.089-44.089 6.258-31.431-31.431 61.013-34.56 33.422-60.16 31.573 31.716-6.258 44.089 75.662 75.662 66.133-142.222 45.084 45.084-42.667 165.973 56.889 56.889s26.027 24.32 3.556 46.791v0z" />
<glyph unicode="&#xe949;" glyph-name="fuel" data-tags="fuel" d="M810.667 725.333s-213.333 0-213.333 0c-94.257 0-170.667-76.41-170.667-170.667s76.41-170.667 170.667-170.667v0h213.333c94.257 0 170.667 76.41 170.667 170.667s-76.41 170.667-170.667 170.667v0zM810.667 426.667h-213.333c-70.692 0-128 57.308-128 128s57.308 128 128 128v0h213.333c70.692 0 128-57.308 128-128s-57.308-128-128-128v0zM298.667 298.667c-47.128 0-85.333-38.205-85.333-85.333s38.205-85.333 85.333-85.333c47.128 0 85.333 38.205 85.333 85.333v0c0 47.128-38.205 85.333-85.333 85.333v0zM298.667 160c-29.455 0-53.333 23.878-53.333 53.333s23.878 53.333 53.333 53.333c29.455 0 53.333-23.878 53.333-53.333v0c0-29.455-23.878-53.333-53.333-53.333v0zM704 298.667c-47.128 0-85.333-38.205-85.333-85.333s38.205-85.333 85.333-85.333c47.128 0 85.333 38.205 85.333 85.333v0c0 47.128-38.205 85.333-85.333 85.333v0zM704 160c-29.455 0-53.333 23.878-53.333 53.333s23.878 53.333 53.333 53.333c29.455 0 53.333-23.878 53.333-53.333v0c0-29.455-23.878-53.333-53.333-53.333v0zM789.333 362.667h-170.667l-42.667-64h-149.333l-42.667 64v256h-234.667l-106.667-213.333v-170.667h85.333v-21.333h42.667v64h-85.333v115.769l87.609 182.898h168.391v-230.969l64-89.031h193.564l42.667 64h124.871l42.667-64h44.231v-21.333h42.667v64h-64l-42.667 64zM298.667 533.333h-106.667l-42.667-128h149.333v128zM266.667 437.333h-72.96l21.333 64h51.627v-64zM760.604 633.884l-28.444-28.444-83.769 21.191-22.613-22.898 71.111-33.422-38.258-38.258-22.329 3.129-15.644-16.071 30.72-17.067 17.067-30.436 15.929 15.929-3.129 22.329 37.973 37.689 33.422-71.111 22.756 22.756-21.618 83.769 28.444 28.444c3.658 3.048 5.969 7.605 5.969 12.701 0 4.19-1.562 8.015-4.135 10.925l0.015-0.018c-2.979 2.536-6.871 4.079-11.124 4.079-4.839 0-9.212-1.997-12.338-5.213l-0.004-0.004zM618.667 783.929h170.667v-32h-170.667v32zM405.333 229.262h192v-32h-192v32z" />
<glyph unicode="&#xe94a;" glyph-name="hangar" data-tags="hangar" d="M512 560.64c-35.129 0-35.129-39.396-35.129-39.396v-88.462l-162.276-96.711v-71.111l162.276 59.022v-117.76l-38.684-28.444v-49.778l74.524 21.333 73.102-20.907v49.351l-39.396 28.444v118.044l162.276-59.022v71.111l-162.276 96.711v88.32s1.422 39.396-33.707 39.396v0zM917.333 106.667h-42.667v562.773l-362.667 181.333-362.667-181.333v-562.773h-42.667v589.227l405.333 202.667 405.333-202.667v-589.227zM320 656.071h320v-32h-320v32zM426.667 656.071h277.333v-32h-277.333v32zM384 720.071h256v-32h-256v32z" />
<glyph unicode="&#xe94b;" glyph-name="helicopter" data-tags="helicopter" d="M304.071 647.68h32v-241.209h-32v241.209zM688.071 647.68h32v-241.209h-32v241.209zM389.404 170.667h32v-192h-32v192zM600.178 489.102l31.716-31.716 29.44 58.738v89.742l-42.667-42.667v-36.978l-18.489-37.12zM362.667 605.867v-89.742l29.44-58.738 31.716 31.716-18.489 37.12v36.978l-42.667 42.667zM569.884 366.080l16.356 16.356-30.151 30.151-28.444-28.444v-326.258c0-8.405-6.813-15.218-15.218-15.218s-15.218 6.813-15.218 15.218v0 325.831l-28.444 28.444-30.151-30.151 16.356-16.356v-110.649h-49.636v-42.667h48.782v-154.453c0-31.969 25.916-57.884 57.884-57.884s57.884 25.916 57.884 57.884v0 154.88h48.782v42.667h-48.782v110.649zM405.333 728.32c0 57.742 46.649 125.013 106.667 125.013s106.667-67.129 106.667-125.013v-44.516l42.667 42.667v1.849c0 79.218-64 167.68-149.333 167.68s-149.333-88.462-149.333-167.68v-1.849l42.667-42.667v44.516zM559.644 516.978c-0.127 5.129-1.054 10.001-2.661 14.552l0.101-0.33 349.013 349.724-30.151 30.151-349.724-349.298c-4.239 1.509-9.129 2.381-14.222 2.381s-9.983-0.872-14.528-2.475l0.306 0.094-349.724 349.298-30.151-30.151 349.156-349.156c-1.652-4.421-2.607-9.53-2.607-14.862s0.956-10.441 2.705-15.164l-0.098 0.302-349.156-349.156 30.151-30.151 349.724 349.156c4.421-1.652 9.53-2.607 14.862-2.607s10.441 0.956 15.164 2.705l-0.302-0.098 348.444-349.156 30.151 30.151-349.156 349.156c1.625 4.434 2.607 9.554 2.702 14.891l0.001 0.042zM304.071 832h32v-42.667h-32v42.667zM688.071 832h32v-42.667h-32v42.667z" />
<glyph unicode="&#xe94c;" glyph-name="intl-trip" data-tags="intl-trip" d="M888.178 825.173c-16.64 16.64-34.844-2.133-34.844-2.133l-42.667-42.667-123.733 31.716-33.564-33.564 105.529-49.209-56.889-56.889-32.853 4.693-22.898-22.898 45.511-25.6 24.889-44.8 22.898 23.467-4.693 32.853 56.889 56.889 49.209-106.809 33.564 33.564-31.147 124.302 42.667 42.667s19.484 18.062 2.702 34.844v0zM233.671 437.049l25.6-43.093-25.6-50.631 25.6-23.751 46.222 26.738 25.884 47.644-25.884 49.067-22.898 46.507-21.76-23.040-27.164-3.556v-25.884zM900.978 557.938l-35.129-35.129c5.001-22.51 7.866-48.364 7.866-74.887 0-121.436-60.062-228.844-152.1-294.138l-1.118-0.753-81.351 60.302-62.578-35.556-22.898-28.444-21.333 21.191-65.849 24.747-19.342-46.933h-25.742l-58.027-20.907-7.822-6.542c-21.557 10.293-39.975 21.283-57.264 33.74l1.086-0.745-30.578-30.578c66.85-50.689 151.431-81.198 243.138-81.198 223.467 0 404.622 181.156 404.622 404.622 0 39.61-5.692 77.89-16.301 114.068l0.719-2.861zM468.48 585.671v32.142h27.591l25.742 21.333h32v-26.311l15.929-28.018-20.907-31.004h-53.333l-27.022 31.858zM340.338 528.071v26.596l52.196-26.169 27.449-51.911-26.311-29.724-53.333 27.449 22.329 26.453-22.329 27.307zM511.147 304.498v46.507l139.52 140.089 23.040-22.613h23.467l12.089 10.951 23.467-40.533 16.213-18.631 18.204-46.649-22.187-58.027-20.338-39.111h-27.307l-22.187 41.956-24.036 28.16-24.178 20.764-23.324-26.88h-22.756l-29.013-24.462-40.676-11.52zM156.444 97.422c-0.009 0-0.020 0-0.031 0-36.367 0-65.849 29.482-65.849 65.849 0 18.227 7.405 34.724 19.372 46.647l0.002 0.002 18.062 18.916 22.898-22.613-19.058-19.058c-6.133-6.133-9.926-14.606-9.926-23.964 0-18.717 15.173-33.891 33.891-33.891 9.359 0 17.831 3.793 23.964 9.926l469.333 469.333 22.613-22.613-469.333-469.333c-11.76-11.779-27.984-19.097-45.918-19.2h-0.020zM620.8 837.689c-32.821 9.821-70.548 15.528-109.59 15.644h-0.063c-0.19 0-0.416 0.001-0.641 0.001-223.545 0-404.764-181.219-404.764-404.764 0-91.354 30.264-175.64 81.314-243.378l-0.744 1.031 30.578 30.578c-42.928 58.406-68.698 131.743-68.698 211.098 0 44.881 8.243 87.837 23.298 127.437l-0.822-2.464 20.053-40.533h21.333l21.333-20.48v42.667l21.333 21.333-21.333 21.333 42.667 21.333v41.956h32.569l31.716-20.907 21.476-20.907v-42.667l42.667-21.76-21.333 42.667h21.333l21.333 42.667-21.333 21.76 21.333 20.907h18.204l45.796 21.76 21.333 21.76-21.333 20.907 21.333 42.667 21.333-21.333 37.262 37.262c5.404-0.853 10.809-1.422 16.071-2.56z" />
<glyph unicode="&#xe94d;" glyph-name="luggage" data-tags="luggage" d="M977.778 661.333l-145.778-24.604v-423.396h-789.333v-42.667h101.973c-10.32-11.322-16.64-26.446-16.64-43.047 0-35.346 28.654-64 64-64s64 28.654 64 64c0 16.6-6.32 31.725-16.686 43.098l0.046-0.051h417.28c-10.32-11.322-16.64-26.446-16.64-43.047 0-35.346 28.654-64 64-64s64 28.654 64 64c0 16.6-6.32 31.725-16.686 43.098l0.046-0.051h123.307v429.938l110.222 18.062zM789.333 746.667h-213.333v106.667h-277.333v-106.667h-213.333v-490.667h704v490.667zM341.333 810.667h192v-64h-192v64zM746.667 298.667h-618.667v405.333h618.667v-405.333zM645.404 640h32v-277.333h-32v277.333zM197.404 640h32v-277.333h-32v277.333z" />
<glyph unicode="&#xe94e;" glyph-name="notams-2" data-tags="notams-2" d="M234.667 362.667h42.667v-42.667h-42.667v42.667zM341.333 362.667h448v-42.667h-448v42.667zM234.667 256h42.667v-42.667h-42.667v42.667zM341.333 256h448v-42.667h-448v42.667zM234.667 149.333h42.667v-42.667h-42.667v42.667zM341.333 149.333h448v-42.667h-448v42.667zM512 874.667l-298.667-426.667h597.333zM530.204 716.373l-5.12-152.604h-27.307l-4.409 152.604h36.836zM512 499.627c-10.873 0.546-19.483 9.496-19.483 20.456 0 11.311 9.169 20.48 20.48 20.48s20.48-9.169 20.48-20.48c0-0.091-0.001-0.183-0.002-0.274v0.014c0.021-0.339 0.034-0.736 0.034-1.135 0-10.604-8.596-19.2-19.2-19.2-0.814 0-1.616 0.051-2.403 0.149l0.094-0.010z" />
<glyph unicode="&#xe94f;" glyph-name="notams-3" data-tags="notams-3" d="M394.667 74.667h-74.667c-52.987 0.081-95.919 43.013-96 95.992v608.008c0 70.692 57.308 128 128 128v0h448v-682.667h-480c-29.455 0-53.333-23.878-53.333-53.333s23.878-53.333 53.333-53.333v0h74.667v-42.667zM352 864c-47.128 0-85.333-38.205-85.333-85.333v0-528.213c14.935 10.155 33.367 16.213 53.213 16.213 0.042 0 0.084 0 0.127 0h437.326v597.333h-405.333zM565.333-10.667l-64 64-64-64v192h128v-192zM800 74.667h-192v42.667h149.333v64h42.667v-106.667zM512 479.004c25.742 0 41.244-13.084 41.244-38.969s-15.644-37.973-41.244-37.973-40.818 13.084-40.818 37.973 14.222 38.969 40.818 38.969zM538.738 507.449h-53.76l-11.236 227.556h75.52z" />
<glyph unicode="&#xe950;" glyph-name="notams" data-tags="notams" d="M448 240.498h256v-32h-256v32zM320 240.498h42.667v-32h-42.667v32zM448 139.093h256v-32h-256v32zM320 139.093h42.667v-32h-42.667v32zM563.484 917.333h-392.818v-938.667h682.667v648.818zM576 844.516l204.516-204.516h-204.516v204.516zM810.667 21.333h-597.333v853.333h320v-277.333h277.333v-576zM320 299.093h384l-192 298.667zM512 331.378c-11.782 0-21.333 9.551-21.333 21.333s9.551 21.333 21.333 21.333v0c11.782 0 21.333-9.551 21.333-21.333s-9.551-21.333-21.333-21.333v0zM526.222 388.267h-28.444l-6.116 123.876h41.244z" />
<glyph unicode="&#xe951;" glyph-name="pilot-crushcap" data-tags="pilot-crushcap" d="M509.582 768c-238.507 0-239.36-145.351-400.498-145.351 0 0 80.64-214.898 80.64-214.898v-80.64s24.604-199.111 320-199.111 324.693 199.111 324.693 199.111v80.64s80.924 214.613 80.64 214.898c-161.28 0-166.827 145.351-405.476 145.351zM232.249 391.111h559.502v-48.64h-559.502v48.64zM509.582 170.667c-198.116 0-256 96.569-271.787 140.373h547.556c-17.351-44.373-78.222-140.373-275.769-140.373zM794.738 423.68h-565.476c-19.058 50.489-44.231 117.333-61.156 162.56 52.196 11.804 88.178 38.258 123.164 64.142 52.196 38.542 101.547 74.951 218.453 74.951s168.107-36.551 221.867-75.378c35.698-25.742 72.249-52.053 124.444-63.716-16.924-45.227-42.24-112.071-61.298-162.56zM489.102 521.813l23.324 11.804 23.324-11.804-4.124 25.742 18.631 18.204-25.884 3.982-11.947 23.182-11.804-23.182-25.884-3.982 18.631-18.204-4.267-25.742zM353.564 576h77.653c-1.842-3.535-3.274-7.636-4.082-11.955l-0.043-0.276h-49.067c-5.324-1.575-9.143-6.422-9.143-12.16s3.819-10.585 9.053-12.137l0.090-0.023h48.64c0.851-4.596 2.283-8.696 4.241-12.479l-0.117 0.248h-40.676c-5.324-1.575-9.143-6.422-9.143-12.16s3.819-10.585 9.053-12.137l0.090-0.023h49.92c15.393-23.885 41.858-39.476 71.964-39.476s56.571 15.591 71.761 39.14l0.203 0.336h49.92c5.324 1.575 9.143 6.422 9.143 12.16s-3.819 10.585-9.053 12.137l-0.090 0.023h-41.244c2.031 3.525 3.648 7.609 4.636 11.932l0.057 0.299h49.209c5.324 1.575 9.143 6.422 9.143 12.16s-3.819 10.585-9.053 12.137l-0.090 0.023h-49.209c-1.045 4.622-2.663 8.706-4.808 12.448l0.115-0.217h77.653c5.324 1.575 9.143 6.422 9.143 12.16s-3.819 10.585-9.053 12.137l-0.090 0.023h-86.329c-15.393 23.885-41.858 39.476-71.964 39.476s-56.571-15.591-71.761-39.14l-0.203-0.336h-86.471c-5.324-1.575-9.143-6.422-9.143-12.16s3.819-10.585 9.053-12.137l0.090-0.023zM512 618.667c36.996 0 66.987-29.991 66.987-66.987s-29.991-66.987-66.987-66.987c-36.996 0-66.987 29.991-66.987 66.987v0c0.081 36.963 30.024 66.906 66.979 66.987h0.008z" />
<glyph unicode="&#xe952;" glyph-name="plane-approach-1" data-tags="plane-approach-1" d="M907.662 199.822l-68.551-9.956-118.044 118.044 221.156 103.253-71.111 71.111-258.844-65.564-88.036 88.178c-10.672 11.119-25.198 18.468-41.423 19.894l-0.248 0.018c-12.406-0.265-23.497-5.681-31.258-14.188l-0.031-0.034c-35.129-35.129 4.267-74.382 4.267-74.382l88.462-88.462-65.564-258.844 71.111-71.111 103.253 221.156 118.044-118.044-9.813-68.836 49.209-49.209 53.618 95.289 93.867 52.196zM847.36 126.436l-8.249-4.409-4.409-7.822-32.569-58.596-7.964 8.391 7.538 53.049 2.276 15.787-161.707 161.707-19.342-41.387-83.911-179.769-25.173 24.747 61.013 241.778 4.409 17.636-100.978 100.978c-7.538 7.964-14.222 19.484-4.409 29.44 2.014 2.72 5.106 4.542 8.633 4.833l0.043 0.003c7.207-1.294 13.45-4.749 18.195-9.662l0.009-0.010 101.262-101.262 17.636 4.409 241.778 61.013 25.316-25.316-221.156-103.253 161.707-161.707 15.787 2.276 52.907 6.542 7.822-7.822zM359.538 630.613l-262.258 262.258-30.151-30.151 262.258-262.258h-140.516v-42.667h213.333v213.333h-42.667v-140.516z" />
<glyph unicode="&#xe953;" glyph-name="plane-approach-2" data-tags="plane-approach-2" d="M584.96 375.182c-21.618-21.618 2.56-45.938 2.56-45.938l54.613-54.613-40.391-159.573 43.378-43.378 63.716 136.391 73.387-72.96-6.116-42.667 30.293-30.293 32.711 58.738 57.884 32.142-30.293 30.293-42.667-6.116-72.818 72.818 136.391 63.716-43.378 43.378-159.716-39.964-54.471 54.613s-23.467 25.031-45.084 3.413v0zM490.667 640v-140.516l-326.258 326.258-30.151-30.151 326.258-326.258h-140.516v-42.667h213.333v213.333h-42.667z" />
<glyph unicode="&#xe954;" glyph-name="psngr-boarding" data-tags="psngr-boarding" d="M704 768v-149.333h-130.418c-5.54 31.151-17.731 58.751-35.082 82.318l0.379-0.54c-71.111 94.009-136.107-8.533-136.107-8.533l3.698-222.578h-1.138v-149.333h-149.333v-149.333h-170.667v-213.333h329.529l523.804 589.227v221.44h-234.667zM896 562.773l-500.196-562.773h-267.804v128h170.667v149.333h149.333v149.333h149.333v149.333h149.333v149.333h149.333v-162.56zM245.333 394.667h42.667v160h-160v-42.667h117.333v-117.333zM538.738 832.284c0-35.189-28.526-63.716-63.716-63.716s-63.716 28.526-63.716 63.716c0 35.189 28.526 63.716 63.716 63.716s63.716-28.526 63.716-63.716z" />
<glyph unicode="&#xe955;" glyph-name="psngr-deboarding" data-tags="psngr-deboarding" d="M704 853.333v-149.333h-149.333v-149.333h-149.333v-149.333h-129.28l1.28 73.244s-65.138 102.542-136.107 8.533c-61.582-81.778-35.271-201.387-27.449-231.111h-28.444v-213.333h329.529l523.804 589.227v221.44h-234.667zM896 648.107l-500.196-562.773h-267.804v128h170.667v149.333h149.333v149.333h149.333v149.333h149.333v149.333h149.333v-162.56zM496.071 725.333h-117.333v117.333h-42.667v-160h160v42.667zM268.8 618.951c0-35.189-28.526-63.716-63.716-63.716s-63.716 28.526-63.716 63.716c0 35.189 28.526 63.716 63.716 63.716s63.716-28.526 63.716-63.716z" />
<glyph unicode="&#xe956;" glyph-name="ramp-1" data-tags="ramp-1" d="M309.333 253.298c-47.128 0-85.333-38.205-85.333-85.333s38.205-85.333 85.333-85.333c47.128 0 85.333 38.205 85.333 85.333v0c0 47.128-38.205 85.333-85.333 85.333v0zM309.333 114.631c-29.455 0-53.333 23.878-53.333 53.333s23.878 53.333 53.333 53.333c29.455 0 53.333-23.878 53.333-53.333v0c0-29.455-23.878-53.333-53.333-53.333v0zM714.667 253.298c-47.128 0-85.333-38.205-85.333-85.333s38.205-85.333 85.333-85.333c47.128 0 85.333 38.205 85.333 85.333v0c0 47.128-38.205 85.333-85.333 85.333v0zM714.667 114.631c-29.455 0-53.333 23.878-53.333 53.333s23.878 53.333 53.333 53.333c29.455 0 53.333-23.878 53.333-53.333v0c0-29.455-23.878-53.333-53.333-53.333v0zM800 317.298h-170.667l-42.667-64h-149.333l-42.667 64v256h-234.667l-106.667-213.333v-170.667h85.333v-21.333h42.667v64h-85.333v115.769l87.609 182.898h168.391v-231.111l64-88.889h193.564l42.667 64h124.871l42.667-64h44.231v-21.333h42.667v64h-64l-42.667 64zM309.333 487.964h-106.667l-42.667-128h149.333v128zM277.333 391.964h-72.96l21.333 64h51.627v-64zM416 183.893h192v-32h-192v32zM549.404 770.702l378.596-328.96v-60.587h-197.547l-298.667 255.716h-288.569v133.831h406.187zM565.333 813.369h-464.782v-219.164h315.449l298.667-256h256v123.022l-405.333 352.142z" />
<glyph unicode="&#xe957;" glyph-name="ramp-2" data-tags="ramp-2" d="M216.32 181.333c0-44.772-36.295-81.067-81.067-81.067s-81.067 36.295-81.067 81.067c0 44.772 36.295 81.067 81.067 81.067s81.067-36.295 81.067-81.067zM119.182 522.667h32v-234.667h-32v234.667zM244.48 192h405.333v-32h-405.333v32zM927.147 202.667v131.271l-456.96 444.729h-353.707v-203.236h239.218l12.516-12.373 363.236-360.391-17.636-42.667-375.609 372.764h-264.391v288.569h413.724l482.276-469.333v-192h-42.667v42.667zM860.139 228.681c40.282-19.542 57.094-68.039 37.552-108.321s-68.039-57.094-108.321-37.552c-40.282 19.542-57.094 68.039-37.552 108.321s68.039 57.094 108.321 37.552z" />
<glyph unicode="&#xe958;" glyph-name="ramp-3" data-tags="ramp-3" d="M512 528.924c-18.741-0.446-33.764-15.744-33.764-34.551 0-1.306 0.072-2.595 0.213-3.863l-0.014 0.156c0-19.2 0-86.329 0-86.329l-157.867-95.858v-67.271l157.298 56.889v-115.2l-38.4-28.444v-47.787l72.533 19.2 72.107-19.2v47.929l-38.4 28.444v115.2l158.293-57.458v67.413l-158.293 96v86.471c0.127 1.111 0.199 2.399 0.199 3.704 0 18.857-15.102 34.186-33.871 34.553l-0.034 0.001zM853.333 106.667h-42.667v640h-597.333v-640h-42.667v682.667h682.667v-682.667zM480 682.667h64v-106.667h-64v106.667zM704 533.333v-64h-106.667v64h106.667z" />
<glyph unicode="&#xe959;" glyph-name="runway-analysis-1" data-tags="runway-analysis-1" d="M789.76 722.773c-12.822-0.755-22.934-11.337-22.934-24.28 0-0.464 0.013-0.925 0.039-1.383l-0.003 0.064v-56.889l-105.529-64.284v-45.938l105.529 38.4v-76.8l-25.6-19.2v-32l48.498 14.222 47.502-14.222v32.711l-25.6 19.2v76.8l105.671-38.4v45.227l-105.671 63.004v56.889s0.853 25.6-21.902 25.6v0zM640 411.307h298.667v-42.667h-298.667v42.667zM85.333 411.307h298.667v-42.667h-298.667v42.667zM112.071 773.973h32v-341.618h-32v341.618zM325.404 773.973h32v-341.618h-32v341.618zM218.738 475.022h32v-42.667h-32v42.667zM250.738 511.573h-32v73.244h32v-73.244zM250.738 621.369h-32v73.244h32v-73.102zM218.738 773.973h32v-42.667h-32v42.667zM805.404 264.676h-198.116l-95.004 41.102-87.324-41.102h-206.222v82.631h32v-50.631h166.969l94.009 44.231 102.258-44.231h159.431v50.631h32v-82.631zM496.071 323.271h32v-130.702h-32v130.702zM659.484 117.902h-32v56.036h-230.969v-56.036h-32v88.036h294.969v-88.036z" />
<glyph unicode="&#xe95a;" glyph-name="runway-analysis-2" data-tags="runway-analysis-2" d="M490.667 170.667h42.667v-64.569h-42.667v64.569zM855.751 106.667l-182.898 362.667h-47.787l182.898-362.667h47.787zM490.667 468.907h42.667v-66.702h-42.667v66.702zM490.667 340.053h42.667v-108.089h-42.667v108.089zM213.191 106.667l163.271 362.667h-46.791l-163.129-362.667h46.649zM807.253 566.329l-225.849 83.342c-0.48 11.414-2.787 22.15-6.634 32.119l0.234-0.688c6.35 0.346 11.715 4.234 14.18 9.709l0.042 0.104c1.102 2.386 1.744 5.178 1.744 8.12 0 8.535-5.408 15.806-12.985 18.574l-0.137 0.044c-2.619 1.243-5.669 2.059-8.884 2.272l-0.076 0.004 9.956 35.556 48.213 2.844 4.551 9.671-52.622 12.942-44.231 32.142-4.551-9.529 28.444-37.973-21.049-31.004c-2.141 2.319-4.687 4.228-7.53 5.622l-0.15 0.066c-2.996 1.923-6.652 3.066-10.574 3.066-7.847 0-14.626-4.572-17.819-11.196l-0.051-0.118c-1.068-2.124-1.693-4.629-1.693-7.28 0-3.872 1.334-7.433 3.568-10.248l-0.026 0.034c-10.877-3.787-20.301-8.945-28.681-15.393l0.237 0.175-208.924 120.889 9.671-33.564 170.667-141.227c5.698-36.393 36.825-63.906 74.378-63.906 14.58 0 28.191 4.147 39.719 11.327l-0.319-0.185 215.040-40.249z" />
<glyph unicode="&#xe95b;" glyph-name="runway-analysis-3" data-tags="runway-analysis-3" d="M661.902 618.667c-26.596 0-26.738-29.867-26.738-29.867v-67.129l-123.164-73.671v-53.476l123.164 44.8v-89.6l-29.867-22.471v-37.12l56.889 15.787 55.467-15.787v37.262l-29.867 22.471v89.6l122.88-44.8v53.333l-123.164 73.387v67.413s0.996 29.867-25.6 29.867v0zM320 789.333c70.692 0 128-57.308 128-128s-57.308-128-128-128c-70.692 0-128 57.308-128 128v0c0 70.692 57.308 128 128 128v0zM320 832c-94.257 0-170.667-76.41-170.667-170.667s76.41-170.667 170.667-170.667c94.257 0 170.667 76.41 170.667 170.667v0c0 94.257-76.41 170.667-170.667 170.667v0 0zM298.667 516.551h42.667v-345.884h-42.667v345.884zM810.667 170.667v-64h-597.333v64h597.333zM853.333 213.333h-682.667v-149.333h682.667v149.333zM213.333 37.262h85.333v-32h-85.333v32zM725.333 37.262h85.333v-32h-85.333v32zM263.489 705.908l27.713 16 42.667-73.901-27.713-16-42.667 73.901zM341.333 640c0-11.782-9.551-21.333-21.333-21.333s-21.333 9.551-21.333 21.333c0 11.782 9.551 21.333 21.333 21.333s21.333-9.551 21.333-21.333z" />
<glyph unicode="&#xe95c;" glyph-name="runway" data-tags="runway" d="M304.356 635.164l210.062-153.6 248.462 82.631c4.674 1.388 10.051 2.215 15.611 2.275h0.033c1.026 0.225 2.204 0.354 3.413 0.354 8.108 0 14.862-5.799 16.34-13.476l0.017-0.104c1.090-1.964 1.731-4.307 1.731-6.8 0-1.905-0.375-3.723-1.054-5.384l0.034 0.095c-5.241-6.972-12.426-12.227-20.748-14.989l-0.301-0.087h-0.711l-154.88-53.049-381.867-130.133-92.16 18.631-38.684 56.889 14.222 4.836 66.56-36.978 16.498-9.387 216.178 73.956-37.973 47.502-103.822 129.564 22.329 7.68zM310.898 683.093l-100.978-34.418 142.222-177.067-141.369-48.213-82.773 45.796-85.333-28.444 80.356-117.049 120.32-24.32 546.56 186.169s69.12 20.907 48.356 81.778c-7.246 24.891-29.852 42.772-56.634 42.772-1.241 0-2.472-0.038-3.694-0.114l0.167 0.008c-10.16-0.041-19.941-1.598-29.15-4.455l0.705 0.188-227.556-75.662-210.489 152.604zM128 165.404h426.667v-32h-426.667v32zM597.333 165.404h170.667v-32h-170.667v32zM810.667 165.404h170.667v-32h-170.667v32z" />
<glyph unicode="&#xe95d;" glyph-name="screen-seat" data-tags="screen-seat" d="M917.618 311.751l-37.12 56.889c-4.187 6.48-6.678 14.398-6.684 22.896v255.575c0.003 0.321 0.004 0.699 0.004 1.079 0 66.965-47.034 122.945-109.869 136.707l-0.926 0.17c-75.288 15.884-161.947 25.185-250.705 25.599l-0.317 0.001c-88.968-0.323-175.595-9.525-259.287-26.763l8.407 1.447c-63.762-13.931-110.798-69.911-110.798-136.877 0-0.479 0.002-0.958 0.007-1.436l-0.001 0.073v-254.862c-0.006-8.5-2.497-16.417-6.786-23.066l0.102 0.168-37.262-57.6c-11.626-15.148-19.259-33.917-21.022-54.365l-0.027-0.391v-150.329h42.667v150.329c2.286 12.102 7.281 22.766 14.34 31.728l-0.118-0.155 37.262 57.6c8.715 12.969 13.994 28.886 14.222 46.022l0.001 0.058v254.862c-0.006 0.412-0.010 0.899-0.010 1.386 0 46.373 32.447 85.167 75.876 94.918l0.649 0.123c72.53 15.209 156.007 24.098 241.498 24.461l0.28 0.001c85.772-0.366 169.25-9.255 249.91-25.862l-8.132 1.399c44.43-9.599 77.234-48.565 77.234-95.192 0-0.434-0.003-0.867-0.009-1.3l0.001 0.066v-254.862c0.229-17.194 5.508-33.111 14.416-46.387l-0.194 0.307 36.551-57.6c6.946-8.805 11.942-19.47 14.151-31.121l0.071-0.452v-150.329h42.667v150.329c-1.781 20.84-9.416 39.611-21.232 55.004l0.183-0.249zM256 341.333h512v341.333h-512v-341.333zM288 373.333v37.831h448v-37.831h-448zM736 650.667v-207.502h-448v207.502h448zM455.538 615.253v-123.307l112.924 55.040-112.924 68.267z" />
<glyph unicode="&#xe95e;" glyph-name="speed-indicator-air" data-tags="speed-indicator-air" d="M624.213 241.636l-83.627 244.622-47.644-0.142-28.587-38.116 140.658-215.751 19.2 9.387zM512 876.373c-235.641 0-426.667-191.025-426.667-426.667s191.025-426.667 426.667-426.667c235.641 0 426.667 191.025 426.667 426.667v0c0 235.641-191.025 426.667-426.667 426.667v0zM512 65.707c-211.99 0.116-383.796 171.994-383.796 384 0 56.325 12.127 109.817 33.912 158.009l-0.978-2.417 95.573-47.644 14.222 28.444-95.858 47.787c27.789 49.904 64.491 91.556 108.335 124.137l1.034 0.734 59.591-89.173 26.596 17.778-59.591 89.173c52.639 33.144 116.056 53.93 184.101 56.862l0.788 0.027v-108.089h32v107.662c72.42-2.972 138.98-25.699 195.122-62.89l-1.415 0.881-62.293-87.609 26.027-18.489 62.009 87.467c43.809-34.385 79.442-77.062 104.943-125.871l1.013-2.129-96.853-44.942 13.511-28.444 97.564 44.231c18.108-43.020 28.63-93.028 28.63-145.493 0-212.077-171.923-384-384-384-0.065 0-0.131 0-0.196 0h0.010zM789.333 448c0-153.167-124.166-277.333-277.333-277.333s-277.333 124.166-277.333 277.333v0h-64c0-188.513 152.82-341.333 341.333-341.333s341.333 152.82 341.333 341.333v0h-64z" />
<glyph unicode="&#xe95f;" glyph-name="speed-indicator-vertical" data-tags="speed-indicator-vertical" d="M512 874.667c-0.171 0-0.374 0-0.577 0-116.149 0-221.419-46.582-298.146-122.082l0.056 0.055-22.044-23.182c-15.909-18.048-30.646-37.989-43.594-59.144l-1.064-1.869-8.96-15.787-1.28-2.418-5.404-9.813c-10.445-19.787-20.1-43.057-27.64-67.261l-0.804-2.997-7.68-31.004c-4.939-22.168-8.209-47.979-9.084-74.397l-0.018-0.697h-0.427v-32h0.853c0.874-26.656 4.042-52.032 9.324-76.624l-0.506 2.811 7.822-31.147c8.336-27.252 17.992-50.572 29.555-72.739l-1.11 2.339v-0.853c4.551-8.96 9.387-17.778 14.222-26.311v-0.853c75.894-125.073 211.333-207.36 365.99-207.36 235.641 0 426.667 191.025 426.667 426.667 0 235.46-190.731 426.372-426.122 426.666h-0.028zM649.813 90.027l-40.818 120.604-30.293-10.24 40.818-120.747c-32.358-9.916-69.552-15.626-108.079-15.626-104.237 0-198.713 41.796-267.582 109.543l0.052-0.051 46.649 44.231-22.044 23.182-46.507-44.089c-13.46 15.406-26.031 32.412-37.164 50.401l-0.952 1.652 55.893 30.862-15.502 28.444-55.893-30.862c-8.764 16.897-16.97 36.87-23.451 57.605l-0.727 2.697 61.867 15.929-7.964 31.004-61.867-15.644c-3.991 18.565-6.695 40.269-7.517 62.453l-0.020 0.694h63.289v31.858h-63.147c0.867 23.338 3.673 45.475 8.275 66.947l-0.452-2.52 61.582-15.929 7.964 31.004-61.582 15.929c7.267 23.38 15.518 43.3 25.319 62.289l-0.999-2.129 55.324-30.578 15.502 28.444-54.898 29.724c12.119 19.752 24.738 36.852 38.649 52.795l-0.391-0.458 45.796-43.378 22.044 23.182-46.364 43.804c68.736 67.368 162.969 108.944 266.913 108.944 38.546 0 75.756-5.717 110.829-16.35l-2.702 0.704-40.818-120.747 30.293-10.24 40.818 120.604c69.688-27.541 127.518-72.467 169.935-129.531l0.731-1.029-105.244-70.969 17.92-26.596 105.387 71.111c33.144-52.639 53.93-116.056 56.862-184.101l0.027-0.788h-127.573v-32h127.147c-2.966-68.833-23.751-132.249-57.818-186.475l0.93 1.586-105.387 71.111-17.493-26.738 105.387-71.111c-43.235-58.074-101.164-102.961-168.341-129.509l-2.61-0.909zM277.333 437.333l256.569-31.716 20.764 42.951-21.902 42.382-255.431-32.284v-21.333zM695.609 556.8c18.745-31.106 29.834-68.662 29.834-108.808 0-117.821-95.513-213.333-213.333-213.333-18.838 0-37.105 2.442-54.503 7.026l1.487-0.333 10.24 41.387c12.804-3.44 27.505-5.417 42.667-5.417 94.303 0 170.75 76.447 170.75 170.75 0 79.141-53.841 145.706-126.892 165.065l-1.191 0.268 10.524 41.387c55.891-14.554 101.779-49.871 129.881-97.020l0.536-0.972z" />
<glyph unicode="&#xe960;" glyph-name="speed-indicator" data-tags="speed-indicator" d="M528.071 509.724v172.942h-32v-172.942c-27.823-7.359-48-32.307-48-61.968 0-35.346 28.654-64 64-64s64 28.654 64 64c0 29.66-20.177 54.608-47.553 61.867l-0.447 0.101zM512 416c-17.673 0-32 14.327-32 32s14.327 32 32 32c17.673 0 32-14.327 32-32v0c0-17.673-14.327-32-32-32v0zM512 874.667c-0.171 0-0.374 0-0.577 0-116.149 0-221.419-46.582-298.146-122.082l0.056 0.055-22.044-23.182c-15.909-18.048-30.646-37.989-43.594-59.144l-1.064-1.869-8.96-15.787-1.28-2.418-5.404-9.813c-10.445-19.787-20.1-43.057-27.64-67.261l-0.804-2.997-7.68-31.004c-4.939-22.168-8.209-47.979-9.084-74.397l-0.018-0.697h-0.427v-32h0.853c0.874-26.656 4.042-52.032 9.324-76.624l-0.506 2.811 7.822-31.147c8.336-27.252 17.992-50.572 29.555-72.739l-1.11 2.339v-0.853c4.551-8.96 9.387-17.778 14.222-26.311v-0.853c75.894-125.073 211.333-207.36 365.99-207.36 235.641 0 426.667 191.025 426.667 426.667 0 235.46-190.731 426.372-426.122 426.666h-0.028zM649.813 90.027l-40.818 120.604-30.293-10.24 40.818-120.747c-32.358-9.916-69.552-15.626-108.079-15.626-104.237 0-198.713 41.796-267.582 109.543l0.052-0.051 46.649 44.231-22.044 23.182-46.507-44.089c-13.46 15.406-26.031 32.412-37.164 50.401l-0.952 1.652 55.893 30.862-15.502 28.444-55.893-30.862c-8.764 16.897-16.97 36.87-23.451 57.605l-0.727 2.697 61.867 15.929-7.964 31.004-61.867-15.644c-3.991 18.565-6.695 40.269-7.517 62.453l-0.020 0.694h63.289v31.858h-63.147c0.867 23.338 3.673 45.475 8.275 66.947l-0.452-2.52 61.582-15.929 7.964 31.004-61.582 15.929c7.267 23.38 15.518 43.3 25.319 62.289l-0.999-2.129 55.324-30.578 15.502 28.444-54.898 29.724c12.119 19.752 24.738 36.852 38.649 52.795l-0.391-0.458 45.796-43.378 22.044 23.182-46.364 43.804c68.736 67.368 162.969 108.944 266.913 108.944 38.546 0 75.756-5.717 110.829-16.35l-2.702 0.704-40.818-120.747 30.293-10.24 40.818 120.604c69.688-27.541 127.518-72.467 169.935-129.531l0.731-1.029-105.244-70.969 17.92-26.596 105.387 71.111c33.144-52.639 53.93-116.056 56.862-184.101l0.027-0.788h-127.573v-32h127.147c-2.966-68.833-23.751-132.249-57.818-186.475l0.93 1.586-105.387 71.111-17.493-26.738 105.387-71.111c-43.235-58.074-101.164-102.961-168.341-129.509l-2.61-0.909z" />
<glyph unicode="&#xe961;" glyph-name="track-up-centered" data-tags="track-up-centered" d="M938.667 746.667v-554.667h-853.333v554.667h853.333zM981.333 789.333h-938.667v-640h938.667v640zM512 680.391c-18.748-0.437-33.779-15.739-33.779-34.551 0-1.356 0.078-2.694 0.23-4.009l-0.015 0.16c0-19.2 0-86.329 0-86.329l-157.867-95.858v-67.271l157.298 56.889v-115.2l-38.4-28.444v-47.929l72.533 19.484 71.964-19.2v47.644l-38.4 28.444v115.2l158.293-57.742v67.982l-158.293 96v86.329c0.137 1.155 0.215 2.493 0.215 3.849 0 18.812-15.031 34.114-33.739 34.55l-0.041 0.001z" />
<glyph unicode="&#xe962;" glyph-name="track-up" data-tags="track-up" d="M512 533.333c-18.748-0.437-33.779-15.739-33.779-34.551 0-1.356 0.078-2.694 0.23-4.009l-0.015 0.16c0-19.2 0-86.329 0-86.329l-157.867-95.858v-67.271l157.298 56.889v-115.2l-38.4-28.444v-47.929l72.533 19.484 71.964-19.2v48.071l-38.4 28.444v115.2l158.436-57.458v67.271l-158.293 96v86.329c0.137 1.154 0.215 2.491 0.215 3.846 0 18.862-15.111 34.195-33.888 34.554l-0.034 0.001zM981.333 149.333h-298.667v42.667h256v554.667h-853.333v-554.667h256v-42.667h-298.667v640h938.667v-640z" />
<glyph unicode="&#xe963;" glyph-name="trip-kit-add" data-tags="trip-kit-add" d="M437.333 484.693l-20.764-40.533-45.227-6.969 32.427-32.142-7.253-44.8 40.818 20.622 40.818-20.622-7.253 44.8 32.427 32.142-45.227 6.969-20.764 40.533zM666.738 462.222c0.009 0.206 0.014 0.447 0.014 0.69 0 7.757-5.263 14.285-12.412 16.208l-0.117 0.027h-118.471c-20.972 32.833-57.225 54.291-98.489 54.291s-77.517-21.457-98.209-53.823l-0.28-0.468h-118.329c-7.375-2.109-12.682-8.79-12.682-16.711s5.307-14.602 12.56-16.681l0.122-0.030h106.667c-2.478-4.81-4.404-10.39-5.489-16.264l-0.058-0.376h-67.698c-7.375-2.109-12.682-8.79-12.682-16.711s5.307-14.602 12.56-16.681l0.122-0.030h67.413c1.24-6.265 3.26-11.835 5.991-16.97l-0.16 0.33h-56.889c-7.375-2.109-12.682-8.79-12.682-16.711s5.307-14.602 12.56-16.681l0.122-0.030h68.267c20.972-32.833 57.225-54.291 98.489-54.291s77.517 21.457 98.209 53.823l0.28 0.468h68.267c7.375 2.109 12.682 8.79 12.682 16.711s-5.307 14.602-12.56 16.681l-0.122 0.030h-56.889c2.478 4.81 4.404 10.39 5.489 16.264l0.058 0.376h67.413c7.375 2.109 12.682 8.79 12.682 16.711s-5.307 14.602-12.56 16.681l-0.122 0.030h-66.418c-1.142 6.25-3.069 11.83-5.707 16.984l0.16-0.344h106.382c7.261 1.954 12.518 8.479 12.518 16.231 0 0.094-0.001 0.187-0.002 0.28v-0.014zM437.333 320c-50.662 0.002-91.731 41.071-91.731 91.733s41.070 91.733 91.733 91.733c50.413 0 91.328-40.666 91.73-90.984v-0.038c0.001-0.169 0.002-0.369 0.002-0.569 0-50.692-41.054-91.795-91.727-91.875h-0.008zM789.333 149.333h-47.929v256h-32v-256h-544v448h453.262v42.667h-21.333v85.333h-320v-85.333h-234.667v-533.333h789.333v298.667h-42.667v-256zM320 682.667h234.667v-42.667h-234.667v42.667zM85.333 597.333h48.071v-448h-48.071v448zM817.778 768c-90.329 0-163.556-73.226-163.556-163.556s73.226-163.556 163.556-163.556c90.329 0 163.556 73.226 163.556 163.556v0c0 90.329-73.226 163.556-163.556 163.556v0zM833.849 588.516v-90.738h-32v90.738h-101.404v32h101.404v90.596h32v-90.738h101.262v-32h-101.262z" />
<glyph unicode="&#xe964;" glyph-name="trip-kit-refresh" data-tags="trip-kit-refresh" d="M437.333 484.693l-20.764-40.533-45.227-6.969 32.427-32.142-7.253-44.8 40.818 20.622 40.818-20.622-7.253 44.8 32.427 32.142-45.227 6.969-20.764 40.533zM666.738 462.222c0.009 0.206 0.014 0.447 0.014 0.69 0 7.757-5.263 14.285-12.412 16.208l-0.117 0.027h-118.471c-20.972 32.833-57.225 54.291-98.489 54.291s-77.517-21.457-98.209-53.823l-0.28-0.468h-118.329c-7.375-2.109-12.682-8.79-12.682-16.711s5.307-14.602 12.56-16.681l0.122-0.030h106.667c-2.478-4.81-4.404-10.39-5.489-16.264l-0.058-0.376h-67.698c-7.375-2.109-12.682-8.79-12.682-16.711s5.307-14.602 12.56-16.681l0.122-0.030h67.413c1.24-6.265 3.26-11.835 5.991-16.97l-0.16 0.33h-56.889c-7.375-2.109-12.682-8.79-12.682-16.711s5.307-14.602 12.56-16.681l0.122-0.030h68.267c20.972-32.833 57.225-54.291 98.489-54.291s77.517 21.457 98.209 53.823l0.28 0.468h68.267c7.375 2.109 12.682 8.79 12.682 16.711s-5.307 14.602-12.56 16.681l-0.122 0.030h-56.889c2.478 4.81 4.404 10.39 5.489 16.264l0.058 0.376h67.413c7.375 2.109 12.682 8.79 12.682 16.711s-5.307 14.602-12.56 16.681l-0.122 0.030h-66.418c-1.142 6.25-3.069 11.83-5.707 16.984l0.16-0.344h106.382c7.261 1.954 12.518 8.479 12.518 16.231 0 0.094-0.001 0.187-0.002 0.28v-0.014zM437.333 320c-50.662 0.002-91.731 41.071-91.731 91.733s41.070 91.733 91.733 91.733c50.413 0 91.328-40.666 91.73-90.984v-0.038c0.001-0.169 0.002-0.369 0.002-0.569 0-50.692-41.054-91.795-91.727-91.875h-0.008zM789.333 149.333h-47.929v256h-32v-256h-544v448h453.262v42.667h-21.333v85.333h-320v-85.333h-234.667v-533.333h789.333v298.667h-42.667v-256zM320 682.667h234.667v-42.667h-234.667v42.667zM85.333 597.333h48.071v-448h-48.071v448zM817.778 768c-90.329 0-163.556-73.226-163.556-163.556s73.226-163.556 163.556-163.556c90.329 0 163.556 73.226 163.556 163.556v0c0 90.329-73.226 163.556-163.556 163.556v0zM817.778 504.889c-54.983 0-99.556 44.573-99.556 99.556s44.573 99.556 99.556 99.556v0c23.867-0.022 45.736-8.561 62.735-22.741l-0.157 0.127v44.089h32l-0.853-101.404-100.836 0.711v32h49.351c-11.43 9.718-26.357 15.632-42.664 15.644h-0.003c-0.1 0.001-0.218 0.001-0.336 0.001-37.31 0-67.556-30.246-67.556-67.556s30.246-67.556 67.556-67.556c34.805 0 63.462 26.32 67.153 60.143l0.027 0.301h32c-3.584-51.717-46.174-92.376-98.369-92.871h-0.049z" />
<glyph unicode="&#xe965;" glyph-name="trip-kit" data-tags="trip-kit" d="M464.924 353.138l40.818 20.764 40.818-20.764-7.253 44.8 32.427 32.142-45.227 6.969-20.764 40.533-20.764-40.533-45.369-6.969 32.569-32.142-7.253-44.8zM227.556 448h135.964c-3.413 0-5.973-21.333-7.111-21.333h-86.187c-9.367-2.739-16.093-11.251-16.093-21.333s6.726-18.595 15.936-21.294l0.157-0.039h86.187c1.138 0 3.698-21.333 7.111-21.333h-71.964c-9.367-2.739-16.093-11.251-16.093-21.333s6.726-18.595 15.936-21.294l0.157-0.039h87.324c26.85-41.933 73.194-69.329 125.938-69.329s99.088 27.396 125.581 68.734l0.357 0.595h87.467c9.367 2.739 16.093 11.251 16.093 21.333s-6.726 18.595-15.936 21.294l-0.157 0.039h-71.964c3.413 0 5.973 21.333 7.111 21.333h86.187c9.367 2.739 16.093 11.251 16.093 21.333s-6.726 18.595-15.936 21.294l-0.157 0.039h-86.187c-1.138 0-3.698 21.333-7.111 21.333h135.964c9.367 2.739 16.093 11.251 16.093 21.333s-6.726 18.595-15.936 21.294l-0.157 0.039h-151.324c-26.85 41.933-73.194 69.329-125.938 69.329s-99.088-27.396-125.581-68.734l-0.357-0.595h-151.467c-9.367-2.739-16.093-11.251-16.093-21.333s6.726-18.595 15.936-21.294l0.157-0.039zM504.889 522.667c64.801 0 117.333-52.532 117.333-117.333s-52.532-117.333-117.333-117.333c-64.801 0-117.333 52.532-117.333 117.333v0c0.081 64.769 52.564 117.252 117.326 117.333h0.008zM704 746.667v85.333h-384v-85.333h-277.333v-682.667h938.667v682.667h-277.333zM362.667 789.333h298.667v-42.667h-298.667v42.667zM149.333 106.667h-64v597.333h64v-597.333zM832 106.667h-640v597.333h640v-597.333zM938.667 106.667h-64v597.333h64v-597.333z" />
<glyph unicode="&#xe966;" glyph-name="uav" data-tags="uav" d="M728.036 399.929c-0.046 0-0.101 0-0.155 0-39.446 0-75.7-13.667-104.284-36.524l0.333 0.257c-17.070 23.337-27.314 52.605-27.314 84.267s10.243 60.93 27.597 84.673l-0.283-0.406c28.394-22.615 64.786-36.286 104.372-36.286 92.921 0 168.249 75.328 168.249 168.249s-75.328 168.249-168.249 168.249c-92.921 0-168.249-75.328-168.249-168.249 0-39.586 13.671-75.978 36.549-104.714l-0.263 0.342c-9.394-6.065-20.399-12.136-31.818-17.471l-1.747-0.733c-10.684-4.068-23.082-6.988-35.976-8.205l-0.575-0.044c-4.551 0-9.244 0-14.222 0s-9.244 0-14.222 0c-26.988 2.423-51.319 12.142-71.485 27.146l0.374-0.266c22.615 28.394 36.286 64.786 36.286 104.372 0 92.921-75.328 168.249-168.249 168.249s-168.249-75.328-168.249-168.249c0-92.921 75.328-168.249 168.249-168.249 39.586 0 75.978 13.671 104.714 36.549l-0.342-0.263c17.070-23.337 27.314-52.605 27.314-84.267s-10.243-60.93-27.597-84.673l0.283 0.406c-28.394 22.615-64.786 36.286-104.372 36.286-92.921 0-168.249-75.328-168.249-168.249s75.328-168.249 168.249-168.249c92.921 0 168.249 75.328 168.249 168.249 0 39.586-13.671 75.978-36.549 104.714l0.263-0.342c23.269 17.274 52.556 27.652 84.267 27.652s60.998-10.378 84.649-27.924l-0.383 0.271c-22.737-28.404-36.488-64.86-36.488-104.528 0-92.764 75.2-167.964 167.964-167.964s167.964 75.2 167.964 167.964c0 92.286-74.427 167.189-166.532 167.958h-0.073zM160 664.036c0 0.078 0 0.171 0 0.264 0 75.091 60.873 135.964 135.964 135.964s135.964-60.873 135.964-135.964c0-31.406-10.648-60.326-28.532-83.344l0.23 0.308-65.991 65.849c2.396 4.909 3.797 10.68 3.797 16.779 0 5.227-1.029 10.214-2.896 14.769l0.094-0.26 35.413 35.556-22.756 22.756-35.413-35.556c-4.381 1.804-9.467 2.852-14.798 2.852-21.993 0-39.822-17.829-39.822-39.822 0-5.331 1.047-10.417 2.948-15.064l-0.096 0.266-40.818-40.676 22.756-22.756 40.818 40.818c4.303-1.812 9.305-2.864 14.552-2.864 3.112 0 6.137 0.37 9.034 1.069l-0.262-0.053 68.693-68.693c-22.707-17.686-51.637-28.356-83.058-28.356-75.013 0-135.822 60.81-135.822 135.822 0 0.119 0 0.238 0 0.356v-0.018zM295.964 96c-0.078 0-0.171 0-0.264 0-75.091 0-135.964 60.873-135.964 135.964s60.873 135.964 135.964 135.964c31.406 0 60.326-10.648 83.344-28.532l-0.308 0.23-69.973-69.973c-3.779 1.446-8.151 2.284-12.718 2.284-3.784 0-7.433-0.575-10.866-1.642l0.259 0.069-39.396 39.68-22.756-22.756 37.262-37.262c-2.812-5.236-4.489-11.446-4.551-18.043v-0.019c0-22.072 17.893-39.964 39.964-39.964v0c6.664 0.037 12.927 1.717 18.416 4.655l-0.212-0.104 37.12-37.262 22.756 22.756-39.538 39.538c0.998 3.174 1.573 6.823 1.573 10.607 0 4.567-0.838 8.938-2.368 12.969l0.084-0.251 69.973 69.973c17.686-22.707 28.356-51.637 28.356-83.058 0-75.013-60.81-135.822-135.822-135.822-0.119 0-0.238 0-0.356 0h0.018zM728.036 800c0.078 0 0.171 0 0.264 0 75.091 0 135.964-60.873 135.964-135.964s-60.873-135.964-135.964-135.964c-31.406 0-60.326 10.648-83.344 28.532l0.308-0.23 69.973 69.973c3.779-1.446 8.151-2.284 12.718-2.284 3.784 0 7.433 0.575 10.866 1.642l-0.259-0.069 39.396-39.68 22.756 22.756-37.262 37.262c2.812 5.236 4.489 11.446 4.551 18.043v0.019c0 22.072-17.893 39.964-39.964 39.964v0c-6.664-0.037-12.927-1.717-18.416-4.655l0.212 0.104-37.12 37.262-22.756-22.756 39.538-39.538c-0.998-3.174-1.573-6.823-1.573-10.607 0-4.567 0.838-8.938 2.368-12.969l-0.084 0.251-69.973-69.973c-17.686 22.707-28.356 51.637-28.356 83.058 0 75.013 60.81 135.822 135.822 135.822 0.119 0 0.238 0 0.356 0h-0.018zM728.036 96c-0.025 0-0.056 0-0.086 0-75.013 0-135.822 60.81-135.822 135.822 0 31.358 10.627 60.234 28.476 83.224l-0.23-0.308 69.973-69.973c-1.446-3.779-2.284-8.151-2.284-12.718 0-3.784 0.575-7.433 1.642-10.866l-0.069 0.259-39.68-39.396 22.756-22.756 37.262 37.262c5.277-2.834 11.541-4.514 18.193-4.551h0.012c22.011 0.081 39.822 17.942 39.822 39.964 0 0 0 0 0 0v0c-0.037 6.664-1.717 12.927-4.655 18.416l0.104-0.212 37.262 37.12-22.756 22.756-39.538-39.538c-3.174 0.998-6.823 1.573-10.607 1.573-4.567 0-8.938-0.838-12.969-2.368l0.251 0.084-69.973 69.973c22.677 17.567 51.528 28.16 82.852 28.16 75.091 0 135.964-60.873 135.964-135.964 0-75.069-60.837-135.928-135.898-135.964h-0.003z" />
<glyph unicode="&#xe967;" glyph-name="valance" data-tags="valance" d="M938.667 640v-192h-853.333v192h-42.667v-234.667h938.667v234.667h-42.667zM197.404 320h32v-64h-32v64zM116.813 310.012l42.64 42.64 22.627-22.627-42.64-42.64-22.627 22.627zM244.727 330.039l22.627 22.627 42.64-42.64-22.627-22.627-42.64 42.64zM794.738 320h32v-64h-32v64zM714.125 309.99l42.64 42.64 22.627-22.627-42.64-42.64-22.627 22.627zM842.039 330.018l22.627 22.627 42.64-42.64-22.627-22.627-42.64 42.64zM496.071 320h32v-64h-32v64zM415.469 310.001l42.64 42.64 22.627-22.627-42.64-42.64-22.627 22.627zM543.383 330.028l22.627 22.627 42.64-42.64-22.627-22.627-42.64 42.64z" />
<glyph unicode="&#xe968;" glyph-name="weather-chart" data-tags="weather-chart" d="M173.227 917.333v-938.667h682.667v648.818l-289.849 289.849h-392.818zM783.076 640h-204.516v204.516zM215.893 874.667h320v-277.333h277.333v-576h-597.333v853.333zM541.013 533.333h28.302v-37.831h-28.302v37.831zM665.443 455.746l26.751 26.751 20.013-20.013-26.751-26.751-20.013 20.013zM725.333 339.627h37.831v-28.302h-37.831v28.302zM665.495 195.096l20.013 20.013 26.751-26.751-20.013-20.013-26.751 26.751zM398.257 462.432l20.013 20.013 26.751-26.751-20.013-20.013-26.751 26.751zM687.502 325.404c0 0.045 0 0.098 0 0.152 0 72.97-59.154 132.124-132.124 132.124-47.517 0-89.175-25.083-112.456-62.731l-0.326-0.567c-35.728-4.224-65.71-25.494-81.924-55.33l-0.28-0.563c-56.889 0-94.436-38.116-94.436-85.333-0.001-0.163-0.002-0.356-0.002-0.55 0-43.721 32.881-79.763 75.263-84.745l0.401-0.038h227.271c26.644 0.157 48.935 18.605 54.96 43.415l0.080 0.389c38.372 23.576 63.576 65.32 63.576 112.951 0 0.291-0.001 0.581-0.003 0.871v-0.045zM568.32 197.404h-224.996c-27.874 4.354-48.965 28.143-49.067 56.878v0.011c0 33.422 27.164 56.889 66.133 56.889h16.498l8.107 14.222c13.327 25.506 39.575 42.625 69.825 42.667h0.006c47.128 0 85.333-38.205 85.333-85.333v0-28.444h28.444c0.042 0 0.092 0 0.142 0 15.906 0 28.8-12.894 28.8-28.8 0-15.856-12.813-28.719-28.65-28.8h-0.008zM616.96 254.293c-9.915 16.948-27.936 28.208-48.606 28.444h-0.034c-0.146 49.888-32.377 92.21-77.136 107.426l-0.801 0.237c-0.711 0.853-1.422 1.707-2.133 2.56 16.84 15.634 39.478 25.227 64.356 25.227 52.303 0 94.702-42.4 94.702-94.702 0-27.424-11.657-52.126-30.287-69.421l-0.060-0.055z" />
<glyph unicode="&#xe969;" glyph-name="wheel-chocks" data-tags="wheel-chocks" d="M459.662 699.449c-89.884 0-160.996-108.089-160.996-246.187s71.111-246.044 160.996-246.044 160.996 108.089 160.996 246.044-70.684 246.187-160.996 246.187zM459.662 249.884c-64.142 0-118.329 93.156-118.329 203.378s54.187 203.378 118.329 203.378 118.329-93.156 118.329-203.378-54.187-203.378-118.329-203.378zM856.178 152.036l-270.507-30.436-34.702-52.764-34.56-52.764 63.004-3.698 63.004-3.556 321.991 41.956-108.231 101.262zM536.747 86.471l19.342 29.44c-25.685-14.607-56.396-23.287-89.12-23.466h-0.053c-142.222 0-256.853 170.667-256.853 379.591s112.356 373.049 256 373.049 257.849-167.822 257.849-373.618c0-138.24-50.489-259.271-125.44-325.547l64.569 7.253c63.289 77.369 103.538 191.147 103.538 318.293 0 158.151-60.871 292.836-152.747 363.236 132.409-37.12 225.28-180.764 225.28-363.236 0-111.644-28.444-234.667-97.28-309.333l61.156 6.827c50.347 73.387 78.791 176.924 78.791 302.507 0 237.084-144.498 415.716-336.782 415.716h-79.218c-167.253 0-298.667-182.613-298.667-415.716s134.684-421.689 299.804-421.689h45.084zM214.329 195.271l-85.333-9.671-69.404-105.529 126.009-7.396 117.333 17.493c-34.883 29.663-64.336 64.369-87.564 103.224l-1.040 1.878z" />
<glyph unicode="&#xe96a;" glyph-name="window-down" data-tags="window-down" d="M512 874.667c256 0 256-96.427 256-256v-341.333c0-165.12 0-256-256-256s-256 90.88-256 256v341.333c0 159.573 0 256 256 256zM512 917.333c-296.533 0-298.667-133.689-298.667-298.667v-341.333c0-164.978 1.28-298.667 298.667-298.667s298.667 133.689 298.667 298.667v341.333c0 164.978-2.133 298.667-298.667 298.667v0zM448 122.596h128v-32h-128v32z" />
<glyph unicode="&#xe96b;" glyph-name="window-mid" data-tags="window-mid" d="M512 917.333c-296.533 0-298.667-133.689-298.667-298.667v-341.333c0-164.978 1.28-298.667 298.667-298.667s298.667 133.689 298.667 298.667v341.333c0 164.978-2.133 298.667-298.667 298.667zM256 618.667c0 159.573 0 256 256 256s256-96.427 256-256v-170.667h-512v170.667zM330.667 416h362.667v-107.662c0-136.96 0-212.338-181.333-212.338s-181.333 75.378-181.333 212.338v107.662zM512 21.333c-256 0-256 90.88-256 256v138.667h42.667v-107.662c0-134.969 0.853-244.338 213.333-244.338s213.333 109.369 213.333 244.338v107.662h42.667v-138.667c0-165.12 0-256-256-256zM448 506.738h128v-32h-128v32z" />
<glyph unicode="&#xe96c;" glyph-name="window-up" data-tags="window-up" d="M512 917.333c-296.533 0-298.667-133.689-298.667-298.667v-341.333c0-164.978 1.28-298.667 298.667-298.667s298.667 133.689 298.667 298.667v341.333c0 164.978-2.133 298.667-298.667 298.667zM512 874.667c206.507 0 246.329-62.72 254.151-170.667h-508.302c7.822 107.947 47.644 170.667 254.151 170.667zM330.667 452.693v219.307h362.667v-363.662c0-136.96 0-212.338-181.333-212.338s-181.333 75.378-181.333 212.338v144.356zM768 277.333c0-165.12 0-256-256-256s-256 90.88-256 256v341.333c0 18.631 0 36.409 0 53.333h42.667v-363.662c0-134.969 0.853-244.338 213.333-244.338s213.333 109.369 213.333 244.338v363.662h42.667c0-16.924 0-34.702 0-53.333v-341.333z" />
</font>
</defs>
</svg>
