<?xml version="1.0" encoding="UTF-8"?>
<svg width="120px" height="23px" viewBox="0 0 120 23" version="1.1" xmlns="http://www.w3.org/2000/svg" xmlns:xlink="http://www.w3.org/1999/xlink">
    <!-- Generator: Sketch 49.3 (51167) - http://www.bohemiancoding.com/sketch -->
    <title>ic_honeywell_logo</title>
    <desc>Created with Sketch.</desc>
    <defs></defs>
    <g id="Symbols" stroke="none" stroke-width="1" fill="none" fill-rule="evenodd">
        <g id="Framework/Header/logo/dark" transform="translate(-32.000000, -25.000000)" fill="#FFFFFF" fill-rule="nonzero">
            <g id="ic_honeywell_logo" transform="translate(32.000000, 25.000000)">
                <path d="M9.6,0 L15,0 L15,17.4 L9.6,17.4 L9.6,9.5 L5.4,9.5 L5.4,17.4 L0,17.4 L0,0 L5.4,0 L5.4,7.3 L9.6,7.3 L9.6,0 Z M30.1,7.6 C31.1,9.3 31.2,11.7 30.5,13.7 C29.8,15.7 28.4,16.7 27.5,17.2 C26.6,17.7 25.1,18 23.7,18 C22.3,18 20.4,17.7 19.2,16.7 C18,15.7 17.1,14.7 16.8,13.2 C16.4,11.7 16.2,9.2 17.7,7.1 C19.2,5 21.2,4.7 22.1,4.5 C22.9,4.4 23.4,4.4 23.5,4.4 C23.5,4.4 25.2,4.3 26.6,4.9 C28,5.3 29.1,5.9 30.1,7.6 Z M25.5,9.3 C25.5,8.3 25.3,7.6 25.2,7.2 C24.9,6.5 24.5,5.8 23.7,5.8 C23.6,5.8 23.5,5.8 23.4,5.8 C23,5.9 22.6,6.3 22.2,7.1 C21.9,7.8 21.9,8.9 21.9,10.4 C21.9,10.8 21.9,11.3 21.9,11.8 C21.9,14.1 22.1,14.8 22.6,15.5 C22.9,15.9 23.2,16.2 23.6,16.2 C23.9,16.2 24.2,16.1 24.5,15.9 C25.3,15.2 25.5,13.8 25.5,13.4 C25.5,13.1 25.5,11 25.5,9.3 Z M43.7,4.7 C41.9,3.9 40.1,4.4 39.1,4.9 C38.1,5.4 37.4,6.4 37.4,6.4 L37.4,4.7 L32.4,4.7 L32.4,17.4 L37.4,17.4 L37.4,8.3 C37.4,8.1 38,7.4 38.7,7.1 C39.4,6.7 40.2,6.9 40.5,7.3 C40.9,7.8 40.9,8.3 40.9,8.6 L40.9,17.4 L45.9,17.4 L45.9,7.7 C45.8,7.1 45.5,5.5 43.7,4.7 Z M60.8,7.7 C61.7,9.5 61.6,11.8 61.6,11.8 L52.7,11.8 L52.7,14.4 C52.7,14.4 52.8,14.9 53,15.2 C53.2,15.5 53.9,16.5 56.4,16.1 C59.1,15.7 59,13.7 59.1,13.7 L61.3,13.7 C61.3,13.7 61.3,15 60.4,15.8 C59.5,16.7 57.9,17.5 56.2,17.7 C54.4,17.9 51.9,17.9 49.9,16.2 C48.7,15.2 48.2,14.1 47.8,13.2 C47.4,12 47.2,9.6 48.2,7.6 C49.2,5.6 51.7,4 54.9,4.1 C57.9,4.4 59.7,5.6 60.8,7.7 Z M56.4,9 C56.4,8.3 56.3,7.6 56.2,7.3 C56.1,7.1 56,6.7 55.5,6.2 C55,5.7 54.1,5.7 53.7,6.1 C53.3,6.4 52.9,7 52.8,7.8 C52.7,8.5 52.7,9.8 52.7,10.1 L56.4,10.1 C56.4,9.9 56.4,9.6 56.4,9 Z M106.5,7.7 C107.4,9.5 107.3,11.8 107.3,11.8 L98.4,11.8 L98.4,14.4 C98.4,14.4 98.5,14.9 98.7,15.2 C98.9,15.5 99.6,16.5 102.1,16.1 C104.8,15.7 104.7,13.7 104.8,13.7 L107,13.7 C107,13.7 107,15 106.1,15.8 C105.2,16.7 103.6,17.5 101.9,17.7 C100.1,17.9 97.6,17.9 95.6,16.2 C94.4,15.2 93.9,14.1 93.5,13.2 C93.1,12 92.9,9.6 93.9,7.6 C94.9,5.6 97.4,4 100.6,4.1 C103.5,4.4 105.3,5.6 106.5,7.7 Z M102,9 C102,8.3 101.9,7.6 101.8,7.3 C101.7,7.1 101.6,6.7 101.1,6.2 C100.6,5.7 99.7,5.7 99.3,6.1 C98.9,6.4 98.5,7 98.4,7.8 C98.3,8.5 98.3,9.8 98.3,10.1 L102,10.1 C102,9.9 102,9.6 102,9 Z M91,4.7 L89.1,11.8 L86.9,4.7 L82.5,4.7 L80.6,11.8 L78.4,4.7 L71.5,4.7 L69,10.7 L66.7,4.6 L61.2,4.6 L66.3,17.6 C66.3,17.6 66.3,17.7 66.2,18.1 C66.1,18.5 65.7,19.4 65.1,20 C64.5,20.7 63.8,20.5 63.8,20.5 C63.8,20.5 64.1,20.3 64.2,19.9 C64.4,19.5 64.3,18.9 64,18.3 C63.7,17.7 62.9,17.3 61.7,17.5 C60.5,17.7 60,18.8 60.1,19.9 C60.2,20.9 60.9,21.8 62.6,22.1 C64.3,22.4 65.3,21.8 66.3,20.9 C67.2,20.1 68,17.9 68,17.9 L73.3,4.9 L77.1,17.2 L81.3,17.2 L83.3,9.8 L85.6,17.2 L89.7,17.2 L93.2,4.5 L91,4.5 L91,4.7 Z M108.7,17.4 L113.5,17.4 L113.5,0 L108.7,0 L108.7,17.4 Z M115.1,0 L115.1,17.4 L119.9,17.4 L119.9,0 L115.1,0 Z" id="Shape"></path>
            </g>
        </g>
    </g>
</svg>