<?xml version="1.0" encoding="UTF-8"?>
<svg width="204px" height="38px" viewBox="0 0 204 38" version="1.1" xmlns="http://www.w3.org/2000/svg" xmlns:xlink="http://www.w3.org/1999/xlink">
    <!-- Generator: Sketch 53 (72520) - https://sketchapp.com -->
    <title>Honeywell_Logo_SPOT_PMS1795_Red</title>
    <desc>Created with Sketch.</desc>
    <defs>
        <polygon id="path-1" points="0 0 204 0 204 38 0 38"></polygon>
    </defs>
    <g id="Component-Page" stroke="none" stroke-width="1" fill="none" fill-rule="evenodd">
        <g id="Honeywell_Logo_SPOT_PMS1795_Red">
            <mask id="mask-2" fill="white">
                <use xlink:href="#path-1"></use>
            </mask>
            <g id="Clip-2"></g>
            <path d="M195.806382,29.6838085 L204,29.6838085 L204,0 L195.806382,0 L195.806382,29.6838085 Z M185.053959,29.6838085 L193.247577,29.6838085 L193.247577,0 L185.053959,0 L185.053959,29.6838085 Z M154.839991,8.02619651 L151.558121,20.168566 L147.884943,8.02619651 L140.426301,8.02619651 L137.112104,20.168566 L133.338549,8.02619651 L121.650393,8.02619651 L117.402165,18.3404809 L113.427852,8.02619651 L104.130069,8.02619651 L112.766033,30.2136635 C112.766033,30.2136635 112.766033,30.4249241 112.583991,31.057002 C112.40365,31.6907836 111.803079,33.2582004 110.749954,34.3724293 C109.696829,35.4866583 108.553534,35.1868046 108.553534,35.1868046 C108.553534,35.1868046 109.004387,34.7932467 109.274899,34.1611688 C109.547112,33.5290909 109.456941,32.4131583 108.975464,31.4181893 C108.493987,30.4249241 107.166947,29.6412156 105.123647,30.0313661 C103.075242,30.4249241 102.171835,32.2921946 102.3828,34.070872 C102.593765,35.8478456 103.738762,37.3556325 106.625924,37.8684504 C109.516488,38.3812683 111.260354,37.3249656 112.856204,35.9091793 C114.450353,34.4916893 115.743366,30.8747046 115.743366,30.8747046 L124.741714,8.78775666 L131.137024,29.6838085 L138.359181,29.6838085 L141.806081,17.1206217 L145.707237,29.6838085 L152.743949,29.6838085 L158.691809,8.02619651 L154.839991,8.02619651 Z M173.646523,15.3470554 C173.663536,14.1817151 173.437259,12.931189 173.313062,12.520594 L173.292646,12.4541491 C173.171851,12.0469615 172.969393,11.3654759 172.157857,10.5374709 C171.368439,9.72820677 169.852551,9.75546619 169.075042,10.3176918 C168.457458,10.7657686 167.725885,11.8152564 167.485997,13.1526718 C167.283539,14.2805305 167.290344,16.4783215 167.297149,17.1206217 L173.639718,17.1206217 C173.634614,16.8821017 173.634614,16.3914321 173.646523,15.3470554 Z M181.164712,13.1066716 C182.774173,16.1750604 182.52748,20.168566 182.498557,20.168566 L167.295448,20.168566 L167.295448,24.5658517 C167.295448,24.5658517 167.448568,25.4568941 167.797341,25.9203043 C168.142712,26.3854182 169.376178,28.1862439 173.549547,27.5252029 C178.175471,26.7909022 178.047871,23.4805859 178.141444,23.4805859 L181.799309,23.4822896 C181.799309,23.4822896 181.756776,25.6732658 180.235785,27.119719 C178.716495,28.5695796 176.021584,30.0637367 173.006822,30.3721089 C169.990359,30.6821849 165.726819,30.7690743 162.285023,27.8983163 C160.270645,26.220158 159.363835,24.4005915 158.771771,22.7224332 C158.038497,20.6490133 157.819025,16.6078038 159.516955,13.1850424 C161.211482,9.76057733 165.548179,7.02952384 170.880156,7.30041436 C176.213834,7.57130488 179.281337,9.52035366 181.164712,13.1066716 Z M96.0062049,15.3470554 C96.0215169,14.1851225 95.7969409,12.9328927 95.6710423,12.520594 L95.6506263,12.4524454 C95.5298317,12.0452578 95.3273731,11.3654759 94.5175387,10.5374709 C93.7247177,9.72991048 92.2088303,9.7571699 91.4313212,10.3176918 C90.8137374,10.7674723 90.0821644,11.8169601 89.8439778,13.1526718 C89.6415192,14.2805305 89.6500259,16.4783215 89.6568312,17.1206217 L95.9959969,17.1206217 C95.9908929,16.8821017 95.9908929,16.3914321 96.0062049,15.3470554 Z M103.520991,13.1066716 C105.133855,16.1750604 104.905876,20.168566 104.880356,20.168566 L89.6534285,20.168566 L89.6534285,24.5658517 C89.6534285,24.5658517 89.8082498,25.4568941 90.157023,25.9203043 C90.5040949,26.3854182 91.7341584,28.1862439 95.9058262,27.5252029 C100.533451,26.7926059 100.40415,23.4805859 100.497723,23.4805859 L104.15729,23.4822896 C104.15729,23.4822896 104.113055,25.6732658 102.593765,27.119719 C101.074475,28.5695796 98.3812653,30.0637367 95.3648024,30.3721089 C92.3500409,30.6821849 88.0847998,30.7690743 84.644705,27.8983163 C82.6303271,26.220158 81.7235168,24.4005915 81.1297516,22.7224332 C80.3964772,20.6490133 80.1770053,16.6078038 81.873234,13.1850424 C83.5711641,9.76057733 87.9027572,7.02952384 93.2398379,7.30041436 C98.5735159,7.57130488 101.641019,9.52035366 103.520991,13.1066716 Z M74.3295248,8.1096785 C71.2705286,6.80804102 68.271079,7.58323088 66.5391223,8.41293958 C64.8054643,9.24264829 63.6825847,10.9565845 63.6298434,10.9446585 L63.6298434,8.02619651 L55.0942572,8.02619651 L55.0942572,29.6838085 L63.6298434,29.6855122 L63.6298434,14.1135665 C63.6298434,13.8034906 64.655747,12.6551874 65.8211599,12.0282206 C66.9865728,11.4046613 68.3748603,11.7556264 68.8563375,12.3365929 C69.5419745,13.1611904 69.5419745,14.093122 69.5419745,14.6144584 L69.5419745,29.6838085 L77.9652728,29.6838085 L77.9516621,13.1969684 C77.8904142,12.1542955 77.3868197,9.41131597 74.3295248,8.1096785 Z M43.4146081,15.9126885 C43.3958934,14.2362339 43.1304855,12.9840042 42.8888963,12.3706671 C42.4499525,11.2615493 41.6622354,10.0144307 40.3351959,10.0144307 C40.1905826,10.0144307 40.039164,10.0297641 39.8792387,10.0621347 C39.1663803,10.1950244 38.4926526,10.948066 37.8750688,12.2991111 C37.3357463,13.4763775 37.3323437,15.3180923 37.328941,17.8651447 C37.3272397,18.6011491 37.3272397,19.3950798 37.3119277,20.2469368 C37.2455757,24.1552567 37.5841409,25.3154859 38.4245993,26.5796416 C38.8856604,27.2713495 39.4896335,27.7040929 40.1293346,27.7960934 C40.6516438,27.8693531 41.1909663,27.7023891 41.6639368,27.3071275 C43.0147949,26.1707503 43.3244375,23.748069 43.3873868,23.0325092 C43.4503361,22.3118381 43.4469334,18.8362616 43.4146081,15.9126885 Z M51.1879973,12.9294853 C52.848498,15.7866136 53.0407486,19.9351572 51.8702317,23.3033997 C50.6980134,26.6716422 48.3365636,28.3293559 46.7594282,29.1812129 C45.1839941,30.0347736 42.713659,30.4777392 40.2875586,30.4777392 C37.8597568,30.4777392 34.7514219,29.9444767 32.665588,28.2799482 C30.5780528,26.6171233 29.172752,24.7890383 28.5347522,22.3169493 C27.8967525,19.8431566 27.5054459,15.4186114 30.1357063,11.9208866 C32.767668,8.42486558 36.0869681,7.78597284 37.6147649,7.51848975 C38.9775324,7.27485865 39.8775374,7.3055255 40.0051374,7.3055255 C40.0051374,7.3055255 42.9688589,7.13515411 45.3541274,8.0739005 C47.7393959,9.01094319 49.5274965,10.072357 51.1879973,12.9294853 Z M16.35321,0 L25.4740547,0 L25.4740547,29.6838085 L16.35321,29.6838085 L16.35321,16.1409861 L9.19910597,16.1409861 L9.19910597,29.6838085 L0,29.6838085 L0,0 L9.19910597,0 L9.19910597,12.3621486 L16.35321,12.3621486 L16.35321,0 L16.35321,0 Z" id="Fill-1" fill="#C02531" mask="url(#mask-2)"></path>
        </g>
    </g>
</svg>